<svg xmlns="http://www.w3.org/2000/svg" width="40" height="39" viewBox="0 0 40 39"><path fill="#6aca00" d="M37.33 28.61c-.45-.06-.95.04-1.38.2-2.6.95-5.06 2.05-7.64 3.03-.13.05-.28.1-.36.2a3.2 3.2 0 0 1-2.55 1.13c-1.61.02-3.21.07-4.82.11l-3.26.08c-.28 0-.63-.31-.64-.63-.02-.33.2-.44.48-.47l.33-.02 4.06-.1c1.43-.04 2.85-.05 4.28-.12a1.72 1.72 0 0 0 1.68-1.75c.02-1.03-.77-1.81-1.85-1.79-1.6.03-3.62-.19-5.26-.44-1.95-.31-2.9-1.31-4.79-1.93-2.91-.94-5.89-.6-8.9-.54l-.02-.63c-.01-.67-.34-.96-1.01-.94l-5.27.13-.41.03c.1.94.17 1.86.29 2.78a23.5 23.5 0 0 0 3.5 9.42c.09.13.3.25.45.25.6.02 1.2-.01 1.8-.03.59-.02.92-.36.91-.97l-.01-.52 4.05 1.19c2.52.73 5.02 1.52 7.55 2.17 2.11.53 4.23.59 6.23-.52 4.24-2.35 8.48-4.69 12.71-7.05.21-.12.41-.31.55-.51.48-.68.12-1.65-.7-1.76zM23 24.04a16.84 16.84 0 0 1 3.5-6.86c1.86-2.23 4.32-3.06 7.09-3.15 1.83-.06 3.68-.01 5.69-.01-.7 3.33-2.01 6.01-4.39 8.07-3.27 2.81-7.13 3.31-11.4 2.8 1.93-1.21 3.72-2.28 5.46-3.45a63.73 63.73 0 0 0 4.96-3.74L23.2 24.31l-.2-.27zM22.95 22.56c-1.04 0-2.06.1-3.05-.02a21.91 21.91 0 0 1-3.47-.75 7.42 7.42 0 0 1-5.03-4.94c-.5-1.39-.92-2.81-1.37-4.22-.05-.15-.02-.32-.03-.48 5.95-.91 11.7 2.33 12.95 10.41zM22.63 16.61c-2.6-2.56-5.05-7.94-2.65-11.78 1.04-1.66 2.25-3.21 3.39-4.83 4.3 4.09 5.02 11.09-.74 16.61z"/></svg>