<svg xmlns="http://www.w3.org/2000/svg" width="58" height="37" viewBox="0 0 58 37"><path fill="#00c262" d="M5.16 0A5.17 5.17 0 0 0 0 5.16v25.77a5.17 5.17 0 0 0 5.16 5.16h47.68A5.17 5.17 0 0 0 58 30.93V5.16A5.17 5.17 0 0 0 52.84 0zm-.02 2.58h47.74L30.85 23.72a2.55 2.55 0 0 1-3.66 0zM17.2 17.7L2.84 32.06a2.64 2.64 0 0 1-.26-1.13V5.16c0-.43.1-.82.28-1.17zM55.14 3.99c.18.35.28.74.28 1.17v25.77c0 .41-.1.79-.26 1.13L40.82 17.72zm-36.09 15.5l6.37 6.09a5.2 5.2 0 0 0 7.2 0l6.33-6.09 14 14-.11.02H5.16l-.11-.02z"/></svg>