<svg xmlns="http://www.w3.org/2000/svg" width="51" height="50" viewBox="0 0 51 50"><path fill="#3a465e" d="M11 12.05h1.63a6.47 6.47 0 0 1 6.49-6.43V4A8.1 8.1 0 0 0 11 12.05z"/><path fill="#3a465e" d="M50.37 18.5a7.3 7.3 0 0 0-7.31-7.24h-2.48a8.1 8.1 0 0 0-12.01-6.23A12.18 12.18 0 0 0 18.69 0 12.16 12.16 0 0 0 6.52 11.3 7.3 7.3 0 0 0 0 18.5c0 4 3.28 7.24 7.31 7.24h23.55a8.16 8.16 0 0 0 13.05-.05 7.27 7.27 0 0 0 6.46-7.19zm-18.64 5.64H7.31a5.66 5.66 0 0 1-5.69-5.64c0-3.1 2.54-5.63 5.69-5.63h.81c-.55-4.06 2.8-11.26 10.57-11.26 6.6 0 9.41 5.66 9.41 5.66s1.93-1.64 4.39-1.64c5.25 0 6.59 5.07 6.49 7.24h4.07a5.67 5.67 0 0 1 5.69 5.63c0 3.49-2.75 5.52-5.73 5.64 0 0-1.81 3.22-5.64 3.22-3.82 0-5.64-3.22-5.64-3.22z"/><path fill="#3a465e" d="M25 19v-2h2v2zM28 19v-2h2v2zM21 19v-2h2v2zM2 40.52a4.87 4.87 0 1 0 9.76 0c0-2.72-4.88-8.52-4.88-8.52S2 37.71 2 40.52zm1.63 0c0-1.22 1.79-3.99 3.25-5.93 1.46 1.93 3.25 4.71 3.25 5.93a3.25 3.25 0 0 1-6.5 0zM39 38.52a4.87 4.87 0 1 0 9.76 0c-.01-2.75-4.88-8.52-4.88-8.52S39 35.77 39 38.52zm1.63 0c0-1.22 1.79-3.99 3.25-5.93 1.46 1.93 3.25 4.71 3.25 5.93a3.26 3.26 0 0 1-3.25 3.23 3.24 3.24 0 0 1-3.25-3.23zM16 35.52a4.87 4.87 0 1 0 9.76 0c0-2.78-4.88-8.52-4.88-8.52S16 32.64 16 35.52zm1.63.01c0-1.22 1.79-3.99 3.25-5.93 1.46 1.93 3.25 4.71 3.25 5.93a3.25 3.25 0 0 1-6.5 0zM26 44.52a4.87 4.87 0 1 0 9.76 0c0-2.81-4.88-8.52-4.88-8.52S26 41.71 26 44.52zm1.63 0c0-1.22 1.79-3.99 3.25-5.93 1.46 1.93 3.25 4.71 3.25 5.93a3.25 3.25 0 0 1-6.5 0z"/></svg>