<svg xmlns="http://www.w3.org/2000/svg" width="27" height="59" viewBox="0 0 27 59"><path fill="#3a465e" d="M16.33 16.73c0 1.49-1.19 2.7-2.66 2.7a2.68 2.68 0 0 1-2.67-2.7v-4.04A2.68 2.68 0 0 1 13.67 10a2.68 2.68 0 0 1 2.66 2.69zM14.67 39.19V23H12v16.19a11.41 11.41 0 0 0 2.67 0zM12.33 49v4.28l-1.46-1.51L9 53.7l2.8 2.87-.01.01 1.87 1.93.01-.01.01.01 1.87-1.93-.01-.01 2.8-2.87-1.87-1.93L15 53.28V49a14.87 14.87 0 0 1-2.67 0z"/><path fill="#3a465e" d="M0 13.47v16.16a13.42 13.42 0 0 0 14.69 13.4 13.41 13.41 0 0 0 11.98-13.4V13.47A13.4 13.4 0 0 0 13.34 0 13.4 13.4 0 0 0 0 13.47zm14.69 26.85a12.22 12.22 0 0 1-2.67 0 10.75 10.75 0 0 1-9.35-10.69V13.47c0-5.94 4.78-10.78 10.67-10.78C19.22 2.69 24 7.53 24 13.47v16.16c0 5.48-4.07 10.01-9.31 10.69z"/></svg>