<svg xmlns="http://www.w3.org/2000/svg">
<defs>
<font id="GTWalsheimProBold" horiz-adv-x="613" >
  <font-face 
    font-family="GTWalsheimProBold"
    font-weight="700"
    font-stretch="normal"
    units-per-em="1000"
    panose-1="2 0 5 3 4 0 0 2 0 3"
    ascent="750"
    descent="-250"
    x-height="482"
    cap-height="700"
    bbox="-150 -321.002 1242 1002"
    underline-thickness="50"
    underline-position="-50"
    unicode-range="U+0020-U+FB04"
  />
<missing-glyph horiz-adv-x="800" 
d="M400 717c56 0 106.5 -10.167 151.5 -30.5s83 -47.5 114 -81.5s54.833 -73.167 71.5 -117.5s25 -90.166 25 -137.499s-8.33301 -93.166 -25 -137.499s-40.5 -83.5 -71.5 -117.5s-69 -61.167 -114 -81.5s-95.5 -30.5 -151.5 -30.5s-106.5 10.167 -151.5 30.5
s-83 47.5 -114 81.5s-54.833 73.167 -71.5 117.5s-25 90.166 -25 137.499s8.33301 93.166 25 137.499s40.5 83.5 71.5 117.5s69 61.167 114 81.5s95.5 30.5 151.5 30.5zM400 695c-50.667 0 -98.334 -9.66699 -143.001 -29c-40 -18 -75.333 -43.333 -106 -76
c-30 -33.333 -52.333 -70 -67 -110c-16 -42 -24 -85.333 -24 -130c0 -45.333 8 -88.333 24 -129c14.667 -41.333 37 -78 67 -110c30.667 -33.333 66 -58.666 106 -75.999c44.667 -19.333 92.334 -29 143.001 -29s98 9.66699 142 29c40 17.333 75.333 42.666 106 75.999
c30 32 52.333 68.667 67 110c16 40.667 24 83.667 24 129c0 44.667 -8 88 -24 130c-14.667 40 -37 76.667 -67 110c-30.667 32.667 -66 58 -106 76c-44 19.333 -91.333 29 -142 29zM201 500c0 12 4.16699 22.167 12.5 30.5s18.166 12.5 29.499 12.5
c12 0 22.167 -4.16699 30.5 -12.5s12.5 -18.5 12.5 -30.5c0 -11.333 -4.16699 -21.333 -12.5 -30s-18.5 -13 -30.5 -13c-11.333 0 -21.166 4.33301 -29.499 13s-12.5 18.667 -12.5 30zM498 500c0 12 4.16699 22.167 12.5 30.5s18.166 12.5 29.499 12.5
c12 0 22.167 -4.16699 30.5 -12.5s12.5 -18.5 12.5 -30.5c0 -11.333 -4.16699 -21.333 -12.5 -30s-18.5 -13 -30.5 -13c-11.333 0 -21.166 4.33301 -29.499 13s-12.5 18.667 -12.5 30zM219 259l179 268l-110 -243h178v-25h-247zM132 207

<glyph glyph-name="IJ" unicode="IJ" horiz-adv-x="881" 
d="M67 700h164v-700h-164v700zM822 241c0 -83.333 -22.666 -147.164 -67.999 -191.497s-108.333 -66.5 -189 -66.5c-42 0 -79 6.66699 -111 20s-58.667 31.666 -80 54.999s-37.333 50.666 -48 81.999s-16 65.333 -16 102h162c0 -34.667 7.66699 -63.334 23 -86.001
s38.666 -34 69.999 -34s55 10.5 71 31.5s24 50.167 24 87.5v459h162v-459z" />
    <glyph glyph-name="ij" unicode="ij" horiz-adv-x="561" 
d="M321 642c0 27.333 9.33301 50.333 28 69s42 28 70 28c14 0 27 -2.5 39 -7.5s22.5 -11.833 31.5 -20.5s16 -19 21 -31s7.5 -24.667 7.5 -38s-2.5 -25.833 -7.5 -37.5s-12 -22 -21 -31s-19.5 -16 -31.5 -21s-25 -7.5 -39 -7.5s-26.833 2.5 -38.5 7.5s-22 12 -31 21
s-16 19.333 -21 31s-7.5 24.167 -7.5 37.5zM43 642c0 27.333 9.33301 50.333 28 69s42 28 70 28c14 0 27 -2.5 39 -7.5s22.5 -11.833 31.5 -20.5s16 -19 21 -31s7.5 -24.667 7.5 -38s-2.5 -25.833 -7.5 -37.5s-12 -22 -21 -31s-19.5 -16 -31.5 -21s-25 -7.5 -39 -7.5
s-26.833 2.5 -38.5 7.5s-22 12 -31 21s-16 19.333 -21 31s-7.5 24.167 -7.5 37.5zM218 482v-482h-153v482h153zM496 -75c0 -31.333 -3.49805 -57.166 -10.498 -77.499s-16.333 -36.166 -28 -47.499s-25.334 -19.166 -41.001 -23.499s-32.167 -6.5 -49.5 -6.5
c-19.333 0 -39 1.16699 -59 3.5s-34.667 5.16602 -44 8.49902v114c9.33301 -2.66699 16.666 -4.33398 21.999 -5.00098s11 -1 17 -1c13.333 0 23.333 3.66699 30 11s10 19.666 10 36.999v544h153v-557z" />
    <glyph glyph-name="uniFB00" unicode="ff" horiz-adv-x="761" 
d="M748 588c-8 2 -15.499 3.49902 -22.499 4.49902s-15.167 1.5 -24.5 1.5c-8 0 -16 -0.5 -24 -1.5s-15 -3.66699 -21 -8s-10.833 -10.5 -14.5 -18.5s-5.5 -19 -5.5 -33v-51h112v-114h-112v-368h-153v368h-86v114h86v42c0 44 5.83301 78.333 17.5 103
s26.5 43.334 44.5 56.001s37.667 20.5 59 23.5s41.666 4.5 60.999 4.5c18.667 0 35 -1.33301 49 -4s25.333 -5.66699 34 -9v-110zM368.001 587.999c-8 2 -15.499 3.49902 -22.499 4.49902s-15.167 1.5 -24.5 1.5c-8.66699 0 -17 -0.5 -25 -1.5s-15 -3.66699 -21 -8
s-10.833 -10.5 -14.5 -18.5s-5.5 -19 -5.5 -33v-51h113v-114h-112v-368h-153v368h-87v114h87v42c0 44 5.83301 78.333 17.5 103s26.5 43.334 44.5 56.001s37.667 20.5 59 23.5s41.666 4.5 60.999 4.5c18 0 34 -1.33301 48 -4s25.667 -5.66699 35 -9v-110z" />
    <glyph glyph-name="fi" unicode="fi" horiz-adv-x="698" 
d="M443 641c0 26.667 9.16895 49.167 27.502 67.5s40.833 27.5 67.5 27.5c27.333 0 50.166 -9.16699 68.499 -27.5s27.5 -40.833 27.5 -67.5c0 -13.333 -2.5 -25.666 -7.5 -36.999s-11.833 -21.166 -20.5 -29.499s-18.834 -15 -30.501 -20s-24.167 -7.5 -37.5 -7.5
s-25.833 2.5 -37.5 7.5s-21.667 11.667 -30 20s-15 18.166 -20 29.499s-7.5 23.666 -7.5 36.999zM367.002 588c-8 2 -15.499 3.49902 -22.499 4.49902s-15.167 1.5 -24.5 1.5c-8 0 -16 -0.5 -24 -1.5s-15 -3.66699 -21 -8s-10.833 -10.5 -14.5 -18.5s-5.5 -19 -5.5 -33v-51
h112v-114h-112v-368h-153v368h-86v114h86v42c0 44 5.83301 78.333 17.5 103s26.5 43.334 44.5 56.001s37.667 20.5 59 23.5s41.666 4.5 60.999 4.5c18.667 0 35 -1.33301 49 -4s25.333 -5.66699 34 -9v-110zM462.003 481.999h153v-482h-153v482z" />
    <glyph glyph-name="fl" unicode="fl" horiz-adv-x="662" 
d="M444 700h153v-700h-153v700zM367 588c-8 2 -15.499 3.49902 -22.499 4.49902s-15.167 1.5 -24.5 1.5c-8 0 -16 -0.5 -24 -1.5s-15 -3.66699 -21 -8s-10.833 -10.5 -14.5 -18.5s-5.5 -19 -5.5 -33v-51h112v-114h-112v-368h-153v368h-86v114h86v42
c0 44 5.83301 78.333 17.5 103s26.5 43.334 44.5 56.001s37.667 20.5 59 23.5s41.666 4.5 60.999 4.5c18.667 0 35 -1.33301 49 -4s25.333 -5.66699 34 -9v-110z" />
    <glyph glyph-name="uniFB03" unicode="ffi" horiz-adv-x="1080" 
d="M822 642c0 27.333 9.33301 50.333 28 69s42 28 70 28s51.333 -9.33301 70 -28s28 -41.667 28 -69c0 -13.333 -2.5 -25.833 -7.5 -37.5s-12 -22 -21 -31s-19.333 -16 -31 -21s-24.5 -7.5 -38.5 -7.5s-26.833 2.5 -38.5 7.5s-22 12 -31 21s-16 19.333 -21 31
s-7.5 24.167 -7.5 37.5zM748 588c-8 2 -15.499 3.49902 -22.499 4.49902s-15.167 1.5 -24.5 1.5c-8 0 -16 -0.5 -24 -1.5s-15 -3.66699 -21 -8s-10.833 -10.5 -14.5 -18.5s-5.5 -19 -5.5 -33v-51h112v-114h-112v-368h-153v368h-86v114h86v42c0 44 5.83301 78.333 17.5 103
s26.5 43.334 44.5 56.001s37.667 20.5 59 23.5s41.666 4.5 60.999 4.5c18.667 0 35 -1.33301 49 -4s25.333 -5.66699 34 -9v-110zM368.001 587.999c-8 2 -15.499 3.49902 -22.499 4.49902s-15.167 1.5 -24.5 1.5c-8.66699 0 -17 -0.5 -25 -1.5s-15 -3.66699 -21 -8
s-10.833 -10.5 -14.5 -18.5s-5.5 -19 -5.5 -33v-51h113v-114h-112v-368h-153v368h-87v114h87v42c0 44 5.83301 78.333 17.5 103s26.5 43.334 44.5 56.001s37.667 20.5 59 23.5s41.666 4.5 60.999 4.5c18 0 34 -1.33301 48 -4s25.667 -5.66699 35 -9v-110zM844.002 481.998
h153v-482h-153v482z" />
    <glyph glyph-name="uniFB04" unicode="ffl" horiz-adv-x="1041" 
d="M826 700h153v-700h-153v700zM748 588c-8 2 -15.499 3.49902 -22.499 4.49902s-15.167 1.5 -24.5 1.5c-8 0 -16 -0.5 -24 -1.5s-15 -3.66699 -21 -8s-10.833 -10.5 -14.5 -18.5s-5.5 -19 -5.5 -33v-51h112v-114h-112v-368h-153v368h-86v114h86v42
c0 44 5.83301 78.333 17.5 103s26.5 43.334 44.5 56.001s37.667 20.5 59 23.5s41.666 4.5 60.999 4.5c18.667 0 35 -1.33301 49 -4s25.333 -5.66699 34 -9v-110zM368.001 587.999c-8 2 -15.499 3.49902 -22.499 4.49902s-15.167 1.5 -24.5 1.5c-8.66699 0 -17 -0.5 -25 -1.5
s-15 -3.66699 -21 -8s-10.833 -10.5 -14.5 -18.5s-5.5 -19 -5.5 -33v-51h113v-114h-112v-368h-153v368h-87v114h87v42c0 44 5.83301 78.333 17.5 103s26.5 43.334 44.5 56.001s37.667 20.5 59 23.5s41.666 4.5 60.999 4.5c18 0 34 -1.33301 48 -4s25.667 -5.66699 35 -9
v-110z" />
    <glyph glyph-name=".notdef" horiz-adv-x="800" 
d="M400 717c56 0 106.5 -10.167 151.5 -30.5s83 -47.5 114 -81.5s54.833 -73.167 71.5 -117.5s25 -90.166 25 -137.499s-8.33301 -93.166 -25 -137.499s-40.5 -83.5 -71.5 -117.5s-69 -61.167 -114 -81.5s-95.5 -30.5 -151.5 -30.5s-106.5 10.167 -151.5 30.5
s-83 47.5 -114 81.5s-54.833 73.167 -71.5 117.5s-25 90.166 -25 137.499s8.33301 93.166 25 137.499s40.5 83.5 71.5 117.5s69 61.167 114 81.5s95.5 30.5 151.5 30.5zM400 695c-50.667 0 -98.334 -9.66699 -143.001 -29c-40 -18 -75.333 -43.333 -106 -76
c-30 -33.333 -52.333 -70 -67 -110c-16 -42 -24 -85.333 -24 -130c0 -45.333 8 -88.333 24 -129c14.667 -41.333 37 -78 67 -110c30.667 -33.333 66 -58.666 106 -75.999c44.667 -19.333 92.334 -29 143.001 -29s98 9.66699 142 29c40 17.333 75.333 42.666 106 75.999
c30 32 52.333 68.667 67 110c16 40.667 24 83.667 24 129c0 44.667 -8 88 -24 130c-14.667 40 -37 76.667 -67 110c-30.667 32.667 -66 58 -106 76c-44 19.333 -91.333 29 -142 29zM201 500c0 12 4.16699 22.167 12.5 30.5s18.166 12.5 29.499 12.5
c12 0 22.167 -4.16699 30.5 -12.5s12.5 -18.5 12.5 -30.5c0 -11.333 -4.16699 -21.333 -12.5 -30s-18.5 -13 -30.5 -13c-11.333 0 -21.166 4.33301 -29.499 13s-12.5 18.667 -12.5 30zM498 500c0 12 4.16699 22.167 12.5 30.5s18.166 12.5 29.499 12.5
c12 0 22.167 -4.16699 30.5 -12.5s12.5 -18.5 12.5 -30.5c0 -11.333 -4.16699 -21.333 -12.5 -30s-18.5 -13 -30.5 -13c-11.333 0 -21.166 4.33301 -29.499 13s-12.5 18.667 -12.5 30zM219 259l179 268l-110 -243h178v-25h-247zM132 207
c0 3.33301 0.170898 6.66797 0.503906 10.001s0.833008 6.66602 1.5 9.99902c1.33301 3.33301 2.5 6.66602 3.5 9.99902s2.83301 6.66602 5.5 9.99902c1.33301 1.33301 4.33301 4 9 8l11 7c3.33301 2 7.16602 3.83301 11.499 5.5s8.5 3.16699 12.5 4.5l1 1
c2.66699 0.666992 5.66699 3.33398 9 8.00098c2.66699 4 4 7.33301 4 10c0 3.33301 -0.166992 6.33301 -0.5 9s-0.833008 5.66699 -1.5 9l-3 20l17 2c0 -3.33301 0.166992 -6.66602 0.5 -9.99902s0.833008 -6.66602 1.5 -9.99902s1.16699 -6.66602 1.5 -9.99902
s0.5 -6.66602 0.5 -9.99902c0 -6.66699 -2.33301 -13.334 -7 -20.001c-4.66699 -6 -9.33398 -10.333 -14.001 -13c-0.666992 0 -1.33398 -0.166992 -2.00098 -0.5s-1.33398 -0.5 -2.00098 -0.5c-3.33301 -1.33301 -6.83301 -2.83301 -10.5 -4.5s-7.16699 -3.5 -10.5 -5.5
c-2.66699 -0.666992 -6 -2.33398 -10 -5.00098c-2.66699 -2.66699 -4.66699 -4.33398 -6 -5.00098c-2 -3.33301 -3.66699 -7.66602 -5 -12.999c-0.666992 -3.33301 -1.16699 -6.33301 -1.5 -9s-0.5 -5.33398 -0.5 -8.00098h-16zM600.004 161.002
c1.33301 3.33301 2.00195 6.50098 2.00195 9.50098v8.5c-1.33301 6 -2.66602 10.333 -3.99902 13c-0.666992 2 -1.66699 3.66699 -3 5c-0.666992 0 -1.66699 0.666992 -3 2c-1.33301 0 -2.66602 0.666992 -3.99902 2l-14 5l-16.5 8
c-5.66699 2.66699 -11.167 6.33398 -16.5 11.001c-6.66699 4.66699 -12.667 11.334 -18 20.001l-4 11c-0.666992 2.66699 -1.33398 5 -2.00098 7s-1 4.33301 -1 7c-1.33301 5.33301 -2.33301 10.5 -3 15.5s-1 10.167 -1 15.5c0.666992 3.33301 1 6.66602 1 9.99902
s0.666992 6.33301 2 9l15 -5c0 -1.33301 -0.166992 -2.83301 -0.5 -4.5s-0.5 -3.5 -0.5 -5.5v-13c0.666992 -4.66699 1.16699 -9.33398 1.5 -14.001s1.16602 -9 2.49902 -13c1.33301 -2.66699 2.16602 -5 2.49902 -7s1.16602 -3.66699 2.49902 -5c2 -4 4.66699 -7.5 8 -10.5
l11 -9.5c4 -2.66699 8.33301 -5 13 -7s9 -4 13 -6l15 -6c2 -0.666992 4.33301 -2.33398 7 -5.00098c4 -2.66699 6.33301 -5.66699 7 -9c3.33301 -6 5.33301 -12.333 6 -19v-12c0 -4 -0.666992 -8 -2 -12zM168.006 228.003l46.9971 -28
c14.667 -8.66699 29.334 -16.167 44.001 -22.5s29.834 -11.333 45.501 -15s32.834 -5.5 51.501 -5.5c14 0 30.333 0.5 49 1.5s38.167 2.66699 58.5 5s40.333 6 60 11s37.167 11.5 52.5 19.5c0.666992 0 1.66699 0.666992 3 2c-8.66699 -18.667 -22.667 -36.667 -42 -54
s-41 -32.333 -65 -45c-38 -20.667 -73.333 -31 -106 -31s-65.167 12.5 -97.5 37.5s-65.833 66.5 -100.5 124.5zM230.003 169.003c10 -14.667 21.332 -27 33.999 -37s25.5 -18 38.5 -24s25.167 -10.167 36.5 -12.5s20.333 -3.5 27 -3.5c16.667 0 34 3 52 9
s34.667 12.667 50 20s28.333 14.333 39 21s17.334 11 20.001 13l-81 -15.5c-25.333 -5 -54.666 -7.5 -87.999 -7.5c-8.66699 0 -18.834 0.5 -30.501 1.5s-23.5 3 -35.5 6s-23.5 6.83301 -34.5 11.5s-20.167 10.667 -27.5 18z" />
    <glyph glyph-name="space" unicode=" " horiz-adv-x="243" 
 />
    <glyph glyph-name="exclam" unicode="!" horiz-adv-x="338" 
d="M87 700h164v-458h-164v458zM65 87c0 14 2.66699 27.167 8 39.5s12.666 23.166 21.999 32.499s20.166 16.666 32.499 21.999s25.833 8 40.5 8s28.334 -2.66699 41.001 -8s23.834 -12.666 33.501 -21.999s17.167 -20.166 22.5 -32.499s8 -25.5 8 -39.5
s-2.66699 -27.167 -8 -39.5s-12.833 -23.333 -22.5 -33s-20.834 -17.167 -33.501 -22.5s-26.334 -8 -41.001 -8s-28.167 2.66699 -40.5 8s-23.166 12.833 -32.499 22.5s-16.666 20.667 -21.999 33s-8 25.5 -8 39.5z" />
    <glyph glyph-name="quotedbl" unicode="&#x22;" horiz-adv-x="418" 
d="M240 586v125h129v-125l-33 -154h-63zM49 586v125h128v-125l-32 -154h-64z" />
    <glyph glyph-name="numbersign" unicode="#" horiz-adv-x="590" 
d="M239 288h103l17 124h-103zM326 180h-102l-26 -180h-111l25 180h-86v108h101l17 124h-88v108h103l25 180h112l-25 -180h103l25 180h111l-25 -180h80v-108h-95l-17 -124h82v-108h-97l-25 -180h-111z" />
    <glyph glyph-name="dollar" unicode="$" horiz-adv-x="606" 
d="M373 715c34.667 -4 65.0039 -12.8301 91.0039 -26.4971s47.5 -30.334 64.5 -50.001s29.667 -41.834 38 -66.501s12.5 -50.334 12.5 -77.001h-162c0 31.333 -7.5 56 -22.5 74s-36.5 27 -64.5 27c-23.333 0 -43.333 -6 -60 -18s-25 -30 -25 -54
c0 -23.333 9.16699 -41.833 27.5 -55.5s42.5 -25.834 72.5 -36.501c28.667 -10 57.667 -20.833 87 -32.5s55.666 -26 78.999 -43s42.5 -37.667 57.5 -62s22.5 -53.833 22.5 -88.5c0 -32 -5.33301 -61 -16 -87s-25.5 -48.333 -44.5 -67s-41.833 -33.667 -68.5 -45
s-56.334 -18.666 -89.001 -21.999v-107h-89v107c-32 4 -61.5 12.333 -88.5 25s-50.167 29.5 -69.5 50.5s-34.5 45.833 -45.5 74.5s-16.5 61 -16.5 97h162c0 -38 10.333 -67.667 31 -89s47.667 -32 81 -32c26 0 47.833 7.5 65.5 22.5s26.5 34.833 26.5 59.5
c0 14 -2.83301 25.833 -8.5 35.5s-13.334 18.167 -23.001 25.5s-21.167 13.833 -34.5 19.5l-43 17.5c-32 12 -62.5 24 -91.5 36s-54.167 26.5 -75.5 43.5s-38.333 37.5 -51 61.5s-19 53.667 -19 89c0 28 5.33301 53.333 16 76s25 42.167 43 58.5s39.167 29.5 63.5 39.5
s50.166 16.667 77.499 20v107h89v-107z" />
    <glyph glyph-name="percent" unicode="%" horiz-adv-x="955" 
d="M618 754l106 -53l-400 -754l-105 53zM227 306c-24 0 -45.667 3.66699 -65 11s-35.666 17.333 -48.999 30s-23.5 27.5 -30.5 44.5s-10.5 34.833 -10.5 53.5v125c0 18.667 3.5 36.5 10.5 53.5s17.167 31.833 30.5 44.5s29.666 22.667 48.999 30s41 11 65 11
s45.5 -3.66699 64.5 -11s35.167 -17.333 48.5 -30s23.666 -27.5 30.999 -44.5s11 -34.833 11 -53.5v-125c0 -18.667 -3.66699 -36.5 -11 -53.5s-17.666 -31.833 -30.999 -44.5s-29.5 -22.667 -48.5 -30s-40.5 -11 -64.5 -11zM275 570c0 14 -4.33301 26.167 -13 36.5
s-20.334 15.5 -35.001 15.5s-26.334 -5.16699 -35.001 -15.5s-13 -22.5 -13 -36.5v-125c0 -14 4.33301 -26.167 13 -36.5s20.334 -15.5 35.001 -15.5s26.334 5.16699 35.001 15.5s13 22.5 13 36.5v125zM882 130c0 -18.667 -3.66699 -36.5 -11 -53.5
s-17.666 -31.833 -30.999 -44.5s-29.5 -22.667 -48.5 -30s-40.5 -11 -64.5 -11s-45.667 3.66699 -65 11s-35.666 17.333 -48.999 30s-23.5 27.5 -30.5 44.5s-10.5 34.833 -10.5 53.5v125c0 18.667 3.5 36.5 10.5 53.5s17.167 31.833 30.5 44.5s29.666 22.667 48.999 30
s41 11 65 11s45.5 -3.66699 64.5 -11s35.167 -17.333 48.5 -30s23.666 -27.5 30.999 -44.5s11 -34.833 11 -53.5v-125zM679 130c0 -14 4.33301 -26.167 13 -36.5s20.334 -15.5 35.001 -15.5s26.334 5.16699 35.001 15.5s13 22.5 13 36.5v125c0 14 -4.33301 26.167 -13 36.5
s-20.334 15.5 -35.001 15.5s-26.334 -5.16699 -35.001 -15.5s-13 -22.5 -13 -36.5v-125z" />
    <glyph glyph-name="ampersand" unicode="&#x26;" horiz-adv-x="633" 
d="M346 357l264.999 -0.00292969v-126h-46c-0.666992 -36.667 -7 -70.167 -19 -100.5s-29.5 -56.166 -52.5 -77.499s-50.833 -38 -83.5 -50s-70 -18 -112 -18c-32 0 -63.333 4.66699 -94 14s-58.167 23 -82.5 41s-44 40.5 -59 67.5s-22.5 58.167 -22.5 93.5
c0 20.667 3 39.5 9 56.5s14.333 32.167 25 45.5s22.834 25 36.501 35s28.5 18.667 44.5 26c-28.667 12.667 -53.167 31.334 -73.5 56.001s-30.5 57.667 -30.5 99c0 32.667 6.66699 61.334 20 86.001s31.333 45.167 54 61.5s48.5 28.5 77.5 36.5s59.5 12 91.5 12
c43.333 0 80.666 -6.16699 111.999 -18.5s57 -28.666 77 -48.999s34.833 -44 44.5 -71s14.5 -55.5 14.5 -85.5h-162c0 30.667 -6.33301 55.334 -19 74.001s-35.667 28 -69 28c-23.333 0 -42.666 -6.33301 -57.999 -19s-23 -32.334 -23 -59.001c0 -12 1.66699 -23.333 5 -34
s8.83301 -19.834 16.5 -27.501s17.834 -13.667 30.501 -18s28.667 -6.5 48 -6.5v-125c-40 0 -68.167 -9 -84.5 -27s-24.5 -42 -24.5 -72c0 -11.333 2.33301 -22.5 7 -33.5s11.167 -20.667 19.5 -29s18.833 -15 31.5 -20s27 -7.5 43 -7.5c27.333 0 51.166 10 71.499 30
s30.833 48.667 31.5 86h-60v126z" />
    <glyph glyph-name="quotesingle" unicode="'" horiz-adv-x="224" 
d="M48 586v125h128v-125l-32 -154h-64z" />
    <glyph glyph-name="parenleft" unicode="(" horiz-adv-x="399" 
d="M362 637c-20 0 -38 -3.66309 -54 -10.9961s-29.5 -17.333 -40.5 -30s-19.5 -27.334 -25.5 -44.001s-9 -34.334 -9 -53.001v-454c0 -18.667 3 -36.334 9 -53.001s14.5 -31.334 25.5 -44.001s24.5 -22.667 40.5 -30s34 -11 54 -11v-138c-44 0 -83.667 7.33301 -119 22
s-65.333 34.5 -90 59.5s-43.667 54.333 -57 88s-20 69.167 -20 106.5v454c0 37.333 6.66699 72.833 20 106.5s32.333 63 57 88s54.667 44.833 90 59.5s75 22 119 22v-138z" />
    <glyph glyph-name="parenright" unicode=")" horiz-adv-x="399" 
d="M36 775c44 0 83.833 -7.33691 119.5 -22.0039s65.834 -34.5 90.501 -59.5s43.667 -54.333 57 -88s20 -69.167 20 -106.5v-454c0 -37.333 -6.66699 -72.833 -20 -106.5s-32.333 -63 -57 -88s-54.834 -44.833 -90.501 -59.5s-75.5 -22 -119.5 -22v138
c20 0 38.167 3.66699 54.5 11s30 17.333 41 30s19.5 27.334 25.5 44.001s9 34.334 9 53.001v454c0 18.667 -3 36.334 -9 53.001s-14.5 31.334 -25.5 44.001s-24.667 22.667 -41 30s-34.5 11 -54.5 11v138z" />
    <glyph glyph-name="asterisk" unicode="*" horiz-adv-x="466" 
d="M78 392l96 118l-134 35l28 83l131 -53l-11 142h91l-11 -142l130 53l28 -83l-134 -35l96 -118l-75 -53l-80 131l-80 -131z" />
    <glyph glyph-name="plus" unicode="+" 
d="M241 71v152h-148v123h148v152h131v-152h148v-123h-148v-152h-131z" />
    <glyph glyph-name="comma" unicode="," horiz-adv-x="309" 
d="M46 90c0 14 2.66602 27.168 7.99902 39.501s12.5 23 21.5 32s19.5 16.167 31.5 21.5s25 8 39 8c34 0 61.333 -11.833 82 -35.5s31 -54.5 31 -92.5s-4.66699 -70.167 -14 -96.5s-23 -47.833 -41 -64.5s-39.833 -28.667 -65.5 -36s-54.834 -11 -87.501 -11v62
c21.333 0 39.333 2.5 54 7.5s27 11.167 37 18.5c9.33301 8 16.333 16.833 21 26.5s7.66699 19.5 9 29.5c-1.33301 -1.33301 -4.66602 -3 -9.99902 -5s-10.666 -3 -15.999 -3c-30.667 0 -55 9.66699 -73 29s-27 42.666 -27 69.999z" />
    <glyph glyph-name="hyphen" unicode="-" horiz-adv-x="317" 
d="M285 236h-253v122h253v-122z" />
    <glyph glyph-name="period" unicode="." horiz-adv-x="302" 
d="M50 91c0 14 2.66699 27 8 39s12.5 22.5 21.5 31.5s19.667 16.167 32 21.5s25.5 8 39.5 8s27.167 -2.66699 39.5 -8s23 -12.5 32 -21.5s16.167 -19.5 21.5 -31.5s8 -25 8 -39s-2.66699 -27 -8 -39s-12.5 -22.5 -21.5 -31.5s-19.667 -16.167 -32 -21.5s-25.5 -8 -39.5 -8
s-27.167 2.66699 -39.5 8s-23 12.5 -32 21.5s-16.167 19.5 -21.5 31.5s-8 25 -8 39z" />
    <glyph glyph-name="slash" unicode="/" horiz-adv-x="491" 
d="M359 797l124 -53l-351 -816l-124 53z" />
    <glyph glyph-name="zero" unicode="0" horiz-adv-x="616" 
d="M41 465c0 34 6.16699 66 18.5 96s30 56.5 53 79.5s51 41.167 84 54.5s69.833 20 110.5 20s77.5 -6.66699 110.5 -20s61.167 -31.5 84.5 -54.5s41.333 -49.5 54 -79.5s19 -62 19 -96v-230c0 -34 -6.33301 -66 -19 -96s-30.667 -56.5 -54 -79.5s-51.5 -41.167 -84.5 -54.5
s-69.833 -20 -110.5 -20s-77.5 6.66699 -110.5 20s-61 31.5 -84 54.5s-40.667 49.5 -53 79.5s-18.5 62 -18.5 96v230zM413 465c0 15.333 -2.5 29.833 -7.5 43.5s-12 25.667 -21 36s-20.167 18.5 -33.5 24.5s-28 9 -44 9s-30.5 -3 -43.5 -9s-24 -14.167 -33 -24.5
s-15.833 -22.333 -20.5 -36s-7 -28.167 -7 -43.5v-230c0 -15.333 2.33301 -29.833 7 -43.5s11.5 -25.667 20.5 -36s20 -18.5 33 -24.5s27.5 -9 43.5 -9s30.667 3 44 9s24.5 14.167 33.5 24.5s16 22.333 21 36s7.5 28.167 7.5 43.5v230z" />
    <glyph glyph-name="one" unicode="1" horiz-adv-x="405" 
d="M29 577c34 0 61.833 2.50098 83.5 7.50098s38.5 12.5 50.5 22.5s20.333 22.667 25 38s7 33.666 7 54.999h143v-700h-165v463h-144v114z" />
    <glyph glyph-name="two" unicode="2" horiz-adv-x="577" 
d="M45 0c0 56.667 4.49902 104.331 13.499 142.998s21.833 71.334 38.5 98.001s36.167 49.334 58.5 68.001s47.166 36.334 74.499 53.001l57.5 34.5c17.667 11 33.167 22.167 46.5 33.5s23.833 23.833 31.5 37.5s11.5 29.167 11.5 46.5c0 28 -7.66699 48.167 -23 60.5
s-34.333 18.5 -57 18.5c-25.333 0 -46.5 -7.83301 -63.5 -23.5s-25.5 -41.834 -25.5 -78.501h-161c0 32 5.5 61.667 16.5 89s27.167 51 48.5 71s47.333 35.667 78 47s66 17 106 17c32 0 62.5 -4.16699 91.5 -12.5s54.5 -21 76.5 -38s39.5 -39 52.5 -66
s19.5 -58.833 19.5 -95.5c0 -29.333 -6.33301 -56 -19 -80s-28.167 -45.333 -46.5 -64s-38.166 -35.167 -59.499 -49.5s-40.666 -26.5 -57.999 -36.5c-24 -16 -43.833 -29.833 -59.5 -41.5s-28.167 -22.5 -37.5 -32.5s-15.833 -20.333 -19.5 -31s-5.5 -23 -5.5 -37h300v-131
h-486v0z" />
    <glyph glyph-name="three" unicode="3" horiz-adv-x="601" 
d="M194 235c0 -38 9.66602 -67.5 28.999 -88.5s44.666 -31.5 75.999 -31.5c30 0 53 9.33301 69 28s24 40 24 64c0 29.333 -7.66699 52.833 -23 70.5s-42 26.5 -80 26.5h-63v125h63c36 0 60.5 8 73.5 24s19.5 36.667 19.5 62c0 26.667 -7.5 46.334 -22.5 59.001
s-34.167 19 -57.5 19c-34.667 0 -58.167 -9.33301 -70.5 -28s-18.5 -43.334 -18.5 -74.001h-162c0 30 4.83301 58.5 14.5 85.5s24.5 50.667 44.5 71s45.5 36.666 76.5 48.999s68.167 18.5 111.5 18.5c32 0 62.833 -4 92.5 -12s55.667 -20.167 78 -36.5
s40.166 -36.833 53.499 -61.5s20 -53.334 20 -86.001c0 -39.333 -10.167 -72.666 -30.5 -99.999s-44.5 -45.666 -72.5 -54.999c16 -6 30.833 -14 44.5 -24s25.667 -22 36 -36s18.5 -30.167 24.5 -48.5s9 -38.5 9 -60.5c0 -33.333 -6.83301 -63 -20.5 -89
s-32.167 -48 -55.5 -66s-50.166 -31.667 -80.499 -41s-62.166 -14 -95.499 -14c-43.333 0 -81.666 6 -114.999 18s-61.5 29 -84.5 51s-40.333 48.333 -52 79s-17.5 64.667 -17.5 102h162z" />
    <glyph glyph-name="four" unicode="4" horiz-adv-x="611" 
d="M337 193h-280v507h162v-370h118v193h161v-193h85v-137h-85v-193h-161v193z" />
    <glyph glyph-name="five" unicode="5" horiz-adv-x="635" 
d="M69 700h472.998v-126h-324v-156c6.66699 10.667 15.334 20 26.001 28s22.5 14.667 35.5 20s26.333 9.33301 40 12s27.167 4 40.5 4c38.667 0 72.334 -6.83301 101.001 -20.5s52.5 -31.834 71.5 -54.501s33.167 -48.5 42.5 -77.5s14 -58.833 14 -89.5
c0 -34.667 -6.16699 -67.5 -18.5 -98.5s-30 -58 -53 -81s-51.167 -41.333 -84.5 -55s-71 -20.5 -113 -20.5c-41.333 0 -78.5 6.83301 -111.5 20.5s-61 32 -84 55s-40.667 49.833 -53 80.5s-18.5 63 -18.5 97h157c0 -32.667 9.83301 -60.667 29.5 -84s46.5 -35 80.5 -35
c17.333 0 32.833 3.16699 46.5 9.5s25.334 15 35.001 26s17.167 23.833 22.5 38.5s8 30.334 8 47.001c0 16 -2.5 31.167 -7.5 45.5s-12.333 27 -22 38s-21.334 19.667 -35.001 26s-29.167 9.5 -46.5 9.5c-24 0 -44.167 -5.33301 -60.5 -16s-29.833 -26.667 -40.5 -48h-151
v405z" />
    <glyph glyph-name="six" unicode="6" horiz-adv-x="600" 
d="M298 -14c-41.333 0 -78.5 6.83398 -111.5 20.501s-61 32 -84 55s-40.667 49.833 -53 80.5s-18.5 63.334 -18.5 98.001c0 26.667 3.83301 52.167 11.5 76.5s18.167 47.166 31.5 68.499l202 315h182l-140 -210c14 -2 28 -5.66699 42 -11c32 -4 60.667 -13 86 -27
s47 -31.833 65 -53.5s31.667 -46 41 -73s14 -55.5 14 -85.5c0 -34.667 -6.16699 -67.334 -18.5 -98.001s-30 -57.5 -53 -80.5s-51 -41.333 -84 -55s-70.5 -20.5 -112.5 -20.5zM298 121.001c16.667 0 32 3.16602 46 9.49902s25.833 14.833 35.5 25.5
s17.167 23.334 22.5 38.001s8 30 8 46c0 16.667 -2.66699 32.167 -8 46.5s-12.833 26.833 -22.5 37.5s-21.5 19.167 -35.5 25.5s-29.333 9.5 -46 9.5c-34 0 -60.833 -11.5 -80.5 -34.5s-29.5 -51.167 -29.5 -84.5c0 -32.667 9.83301 -60.667 29.5 -84s46.5 -35 80.5 -35z
" />
    <glyph glyph-name="seven" unicode="7" horiz-adv-x="531" 
d="M538 700l-298 -700h-173l243 564h-275v136h503z" />
    <glyph glyph-name="eight" unicode="8" horiz-adv-x="616" 
d="M309 -15c-42 0 -79.335 5.67285 -112.002 17.0059s-60.167 26.666 -82.5 45.999s-39.5 42.166 -51.5 68.499s-18 54.166 -18 83.499c0 18.667 2.83301 36.834 8.5 54.501s13.5 34 23.5 49s21.833 27.833 35.5 38.5s28.834 18.334 45.501 23.001
c-30 11.333 -53.333 31 -70 59s-25 58 -25 90c0 27.333 5.5 53.166 16.5 77.499s27 45.666 48 63.999s46.667 32.833 77 43.5s65.166 16 104.499 16c38.667 0 73.167 -5.33301 103.5 -16s56 -25.167 77 -43.5s37 -39.666 48 -63.999s16.5 -50.166 16.5 -77.499
c0 -32 -8.33301 -62 -25 -90s-40 -47.667 -70 -59c16.667 -5.33301 31.834 -13.5 45.501 -24.5s25.5 -23.833 35.5 -38.5s17.667 -30.834 23 -48.501s8 -35.834 8 -54.501c0 -28.667 -5.83301 -55.834 -17.5 -81.501s-28.667 -48.334 -51 -68.001
s-49.666 -35.334 -81.999 -47.001s-69.5 -17.5 -111.5 -17.5zM308.998 419.006c28.667 0 51 8.66699 67 26s24 37.666 24 60.999s-8 43.666 -24 60.999s-38.333 26 -67 26c-30 0 -53 -8.66699 -69 -26s-24 -37.666 -24 -60.999s8 -43.666 24 -60.999s39 -26 69 -26z
M308.998 107.006c16.667 0 31.5 2.66797 44.5 8.00098s24 12.5 33 21.5s16 19.167 21 30.5s7.5 23.333 7.5 36s-2.33301 24.834 -7 36.501s-11.5 22 -20.5 31s-20.167 16.167 -33.5 21.5s-28.333 8 -45 8c-34.667 0 -61.167 -9.66699 -79.5 -29s-27.5 -42 -27.5 -68
c0 -12.667 2.5 -24.834 7.5 -36.501s12 -21.834 21 -30.501s20.167 -15.667 33.5 -21s28.333 -8 45 -8z" />
    <glyph glyph-name="nine" unicode="9" horiz-adv-x="600" 
d="M142 0l140 208.999c-38.667 2 -73.334 9.83301 -104.001 23.5s-56.667 31.667 -78 54s-37.666 48.333 -48.999 78s-17 61.5 -17 95.5c0 34.667 6 67.334 18 98.001s29.5 57.5 52.5 80.5s51.167 41.333 84.5 55s71 20.5 113 20.5c41.333 0 78.5 -6.83301 111.5 -20.5
s61 -32 84 -55s40.667 -49.833 53 -80.5s18.5 -63.334 18.5 -98.001c0 -27.333 -3.83301 -53.166 -11.5 -77.499s-18.167 -46.833 -31.5 -67.5l-202 -315h-182zM302 578.999c-17.333 0 -32.833 -3.16602 -46.5 -9.49902s-25.334 -14.833 -35.001 -25.5
s-17.167 -23.334 -22.5 -38.001s-8 -30 -8 -46c0 -16.667 2.66699 -32.167 8 -46.5s12.833 -26.833 22.5 -37.5s21.334 -19.167 35.001 -25.5s29.167 -9.5 46.5 -9.5c34 0 60.833 11.5 80.5 34.5s29.5 51.167 29.5 84.5c0 32.667 -9.83301 60.667 -29.5 84
s-46.5 35 -80.5 35z" />
    <glyph glyph-name="colon" unicode=":" horiz-adv-x="303" 
d="M50 412c0 14 2.66699 27 8 39s12.5 22.5 21.5 31.5s19.667 16.167 32 21.5s25.5 8 39.5 8s27.167 -2.66699 39.5 -8s23 -12.5 32 -21.5s16.167 -19.5 21.5 -31.5s8 -25 8 -39s-2.66699 -27 -8 -39s-12.5 -22.5 -21.5 -31.5s-19.667 -16.167 -32 -21.5s-25.5 -8 -39.5 -8
s-27.167 2.66699 -39.5 8s-23 12.5 -32 21.5s-16.167 19.5 -21.5 31.5s-8 25 -8 39zM50 91c0 14 2.66699 27 8 39s12.5 22.5 21.5 31.5s19.667 16.167 32 21.5s25.5 8 39.5 8s27.333 -2.66699 40 -8s23.5 -12.5 32.5 -21.5s16.167 -19.5 21.5 -31.5s8 -25 8 -39
s-2.66699 -27 -8 -39s-12.5 -22.5 -21.5 -31.5s-19.833 -16.167 -32.5 -21.5s-26 -8 -40 -8s-27.167 2.66699 -39.5 8s-23 12.5 -32 21.5s-16.167 19.5 -21.5 31.5s-8 25 -8 39z" />
    <glyph glyph-name="semicolon" unicode=";" horiz-adv-x="309" 
d="M50 412c0 14 2.66699 27 8 39s12.5 22.5 21.5 31.5s19.667 16.167 32 21.5s25.5 8 39.5 8s27.167 -2.66699 39.5 -8s23 -12.5 32 -21.5s16.167 -19.5 21.5 -31.5s8 -25 8 -39s-2.66699 -27 -8 -39s-12.5 -22.5 -21.5 -31.5s-19.667 -16.167 -32 -21.5s-25.5 -8 -39.5 -8
s-27.167 2.66699 -39.5 8s-23 12.5 -32 21.5s-16.167 19.5 -21.5 31.5s-8 25 -8 39zM50 90c0 14 2.50098 27.168 7.50098 39.501s12 23 21 32s19.5 16.167 31.5 21.5s25 8 39 8c34 0 61.5 -11.833 82.5 -35.5s31.5 -54.5 31.5 -92.5s-4.66699 -70.167 -14 -96.5
s-23 -47.833 -41 -64.5s-39.833 -28.667 -65.5 -36s-54.834 -11 -87.501 -11v62c21.333 0 39.333 2.5 54 7.5s27 11.167 37 18.5c9.33301 8 16.333 16.833 21 26.5s7.66699 19.5 9 29.5c-1.33301 -1.33301 -4.66602 -3 -9.99902 -5s-11 -3 -17 -3
c-30.667 0 -54.834 9.66699 -72.501 29s-26.5 42.666 -26.5 69.999z" />
    <glyph glyph-name="less" unicode="&#x3c;" 
d="M41 224v120l525 177v-138l-324 -99l324 -99v-139z" />
    <glyph glyph-name="equal" unicode="=" 
d="M93 313v122h427v-122h-427zM93 132v122h427v-122h-427z" />
    <glyph glyph-name="greater" unicode="&#x3e;" 
d="M48 46v139l323 99l-323 99v138l524 -177v-120z" />
    <glyph glyph-name="question" unicode="?" horiz-adv-x="542" 
d="M176 218c0 21.333 1.33398 40.6709 4.00098 58.0039s7.16699 33.333 13.5 48s15.166 28.334 26.499 41.001s26 25 44 37l29 21c10 7.33301 19.167 15.666 27.5 24.999s15.166 19.666 20.499 30.999s8 24 8 38c0 26 -8 45.167 -24 57.5s-36 18.5 -60 18.5
c-23.333 0 -43.5 -7.83301 -60.5 -23.5s-25.5 -41.834 -25.5 -78.501h-160c0 32 5.33301 61.667 16 89s26.5 51 47.5 71s46.833 35.667 77.5 47s65.667 17 105 17c32 0 62.667 -4.16699 92 -12.5s55 -20.833 77 -37.5s39.667 -37.334 53 -62.001s20 -53.334 20 -86.001
c0 -25.333 -3.83301 -47.5 -11.5 -66.5s-17.167 -35.5 -28.5 -49.5s-23.166 -25.833 -35.499 -35.5l-31.5 -25.5c-12.667 -10 -23 -19 -31 -27s-14.5 -16.333 -19.5 -25s-8.5 -18.5 -10.5 -29.5s-3 -24.5 -3 -40.5h-160zM152.001 87.0049c0 14 2.66699 27.167 8 39.5
s12.666 23.166 21.999 32.499s20.333 16.666 33 21.999s26.334 8 41.001 8s28.334 -2.66699 41.001 -8s23.667 -12.666 33 -21.999s16.666 -20.166 21.999 -32.499s8 -25.5 8 -39.5s-2.66699 -27.167 -8 -39.5s-12.666 -23.333 -21.999 -33s-20.333 -17.167 -33 -22.5
s-26.334 -8 -41.001 -8s-28.334 2.66699 -41.001 8s-23.667 12.833 -33 22.5s-16.666 20.667 -21.999 33s-8 25.5 -8 39.5z" />
    <glyph glyph-name="at" unicode="@" horiz-adv-x="871" 
d="M470 -194c-74 0 -139.005 11.668 -195.005 35.001s-102.833 54.333 -140.5 93s-66.167 83.167 -85.5 133.5s-29 102.5 -29 156.5c0 64.667 11.667 122.834 35 174.501s54.833 95.667 94.5 132s85.667 64.166 138 83.499s107.5 29 165.5 29c60 0 115.5 -8.33301 166.5 -25
s94.833 -40.667 131.5 -72s65.334 -69.5 86.001 -114.5s31 -95.833 31 -152.5c0 -53.333 -4.83301 -98.666 -14.5 -135.999s-23.167 -67.666 -40.5 -90.999s-38.166 -40.333 -62.499 -51s-51.166 -16 -80.499 -16c-38.667 0 -70.5 9.83301 -95.5 29.5
s-42.5 44.167 -52.5 73.5c-4.66699 -8.66699 -11.167 -17 -19.5 -25s-17.833 -15 -28.5 -21s-22.167 -10.833 -34.5 -14.5s-24.833 -5.5 -37.5 -5.5c-28.667 0 -54.834 5.16699 -78.501 15.5s-44.167 24.666 -61.5 42.999s-30.833 39.833 -40.5 64.5s-14.5 51 -14.5 79
c0 28.667 5 55.334 15 80.001s23.667 46.167 41 64.5s37.833 32.666 61.5 42.999s49.5 15.5 77.5 15.5c12.667 0 25.167 -1.66699 37.5 -5s23.833 -8 34.5 -14s20.167 -13 28.5 -21s14.833 -16.333 19.5 -25v56h116v-236c0 -34 4.16699 -58.333 12.5 -73s21.5 -22 39.5 -22
c8.66699 0 16.834 3 24.501 9s14.334 16.333 20.001 31s10.167 34.5 13.5 59.5s5 56.833 5 95.5c0 40 -7.33301 75.833 -22 107.5s-35.167 58.5 -61.5 80.5s-58 39 -95 51s-77.5 18 -121.5 18s-85.167 -7 -123.5 -21s-72 -34.5 -101 -61.5s-51.833 -60 -68.5 -99
s-25 -83.5 -25 -133.5c0 -40 6.83301 -78.833 20.5 -116.5s34.334 -71.334 62.001 -101.001s62.5 -53.334 104.5 -71.001s91.333 -26.5 148 -26.5c26 0 57.167 3.16699 93.5 9.5s72.166 18.833 107.499 37.5l43 -89c-21.333 -12 -43 -22 -65 -30s-43.667 -14.167 -65 -18.5
s-41.666 -7.5 -60.999 -9.5s-37 -3 -53 -3zM423.995 121.001c14.667 0 28.166 2.66699 40.499 8s22.833 12.833 31.5 22.5s15.334 20.667 20.001 33s7 25.5 7 39.5c0 28.667 -9 53.167 -27 73.5s-42 30.5 -72 30.5c-28.667 0 -51.667 -10.167 -69 -30.5
s-26 -44.833 -26 -73.5c0 -28 8.66699 -52.167 26 -72.5s40.333 -30.5 69 -30.5z" />
    <glyph glyph-name="A" unicode="A" horiz-adv-x="660" 
d="M329 500l-86 -288h170zM480 0l-27 85h-249l-27 -85h-173l250 700h149l253 -700h-176z" />
    <glyph glyph-name="B" unicode="B" horiz-adv-x="633" 
d="M63 700l290 -0.00195312c48 0 86.833 -6.5 116.5 -19.5s52.667 -29 69 -48s27.333 -39.5 33 -61.5s8.5 -42 8.5 -60c0 -22 -3.66699 -41.833 -11 -59.5s-17 -33.167 -29 -46.5s-25.167 -24.166 -39.5 -32.499s-28.5 -14.166 -42.5 -17.499c11.333 0 24.333 -3.5 39 -10.5
s28.667 -17 42 -30s24.5 -29.5 33.5 -49.5s13.5 -43 13.5 -69c0 -18 -3 -38.333 -9 -61s-17.333 -44 -34 -64s-40 -36.833 -70 -50.5s-69 -20.5 -117 -20.5h-293v700zM321 414.998c20 0 36.1689 2.66895 48.502 8.00195s22.166 12.166 29.499 20.499s12.333 17.5 15 27.5
s4 19.333 4 28c0 8 -1.16699 16.667 -3.5 26s-7 18.166 -14 26.499s-16.833 15.333 -29.5 21s-29.334 8.5 -50.001 8.5h-97v-166h97zM224.002 296l0.000976562 -171.999h101c20 0 36.167 2.66699 48.5 8s22.166 12.166 29.499 20.499s12.333 17.5 15 27.5s4 20 4 30
c0 8 -1.33301 17 -4 27s-7.5 19.333 -14.5 28s-16.833 16 -29.5 22s-28.667 9 -48 9h-102z" />
    <glyph glyph-name="C" unicode="C" horiz-adv-x="788" 
d="M757 251c-6.66699 -37.333 -19.502 -72.334 -38.502 -105.001s-43.5 -61.167 -73.5 -85.5s-65 -43.5 -105 -57.5s-84 -21 -132 -21c-59.333 0 -112.166 10 -158.499 30s-85.666 46.833 -117.999 80.5s-57 72.834 -74 117.501s-25.5 91.667 -25.5 141
c0 48 8.33301 94 25 138s40.834 83 72.501 117s70.167 61.167 115.5 81.5s96.666 30.5 153.999 30.5c54 0 102.167 -7.66699 144.5 -23s78.333 -36 108 -62s53.167 -56.667 70.5 -92s28.666 -73 33.999 -113h-169c-4 20.667 -10.833 39.667 -20.5 57s-22 32.5 -37 45.5
s-32.667 23.167 -53 30.5s-42.833 11 -67.5 11c-34 0 -64.167 -6.16699 -90.5 -18.5s-48.5 -28.666 -66.5 -48.999s-31.667 -43.833 -41 -70.5s-14 -54.334 -14 -83.001c0 -30.667 4.83301 -59.5 14.5 -86.5s24 -50.667 43 -71s42 -36.333 69 -48s58.167 -17.5 93.5 -17.5
c20 0 39 3.16699 57 9.5s34.5 15 49.5 26s27.833 24 38.5 39s18.334 31.167 23.001 48.5h172z" />
    <glyph glyph-name="D" unicode="D" horiz-adv-x="720" 
d="M324 700c58 0 109.5 -9.83105 154.5 -29.498s83 -45.834 114 -78.501s54.667 -70 71 -112s24.5 -85.333 24.5 -130s-8 -88 -24 -130s-39.5 -79.333 -70.5 -112s-69.167 -58.834 -114.5 -78.501s-97 -29.5 -155 -29.5h-257v700h257zM229 560.002v-420.002h87
c32.667 0 61.834 5.83301 87.501 17.5s47.334 27.334 65.001 47.001s31.167 42 40.5 67s14 51.167 14 78.5c0 26.667 -4.66699 52.667 -14 78s-22.833 47.833 -40.5 67.5s-39.334 35.334 -65.001 47.001s-54.834 17.5 -87.501 17.5h-87z" />
    <glyph glyph-name="E" unicode="E" horiz-adv-x="555" 
d="M229 570v-159h265v-127h-265v-154h265v-130h-427v700h427v-130h-265z" />
    <glyph glyph-name="F" unicode="F" horiz-adv-x="550" 
d="M229 564v-189h265v-133h-265v-242h-162v700h427v-136h-265z" />
    <glyph glyph-name="G" unicode="G" horiz-adv-x="835" 
d="M455 370l362.998 -0.000976562v-121h-72c-7.33301 -40 -20 -76.333 -38 -109s-41.667 -60.667 -71 -84s-63.833 -41.5 -103.5 -54.5s-84.5 -19.5 -134.5 -19.5c-58.667 0 -110.834 10 -156.501 30s-84 46.833 -115 80.5s-54.667 72.667 -71 117
s-24.5 91.166 -24.5 140.499c0 48 8.33301 94.167 25 138.5s40.834 83.5 72.501 117.5s70.167 61.167 115.5 81.5s96.666 30.5 153.999 30.5c46 0 88.167 -6.5 126.5 -19.5s71.5 -30.667 99.5 -53s50.333 -48.333 67 -78s26.667 -61.167 30 -94.5h-173
c-2.66699 14 -8 27.333 -16 40s-18.5 23.834 -31.5 33.501s-28.167 17.334 -45.5 23.001s-36.666 8.5 -57.999 8.5c-33.333 0 -62.333 -6.33301 -87 -19s-45.5 -29.667 -62.5 -51s-29.667 -45.833 -38 -73.5s-12.5 -56.167 -12.5 -85.5c0 -31.333 4.33301 -60.833 13 -88.5
s21.834 -52 39.501 -73s40 -37.667 67 -50s58.5 -18.5 94.5 -18.5c24.667 0 46.667 3.5 66 10.5s36 16.5 50 28.5s25.333 25.833 34 41.5s14.334 32.167 17.001 49.5h-124v121z" />
    <glyph glyph-name="H" unicode="H" horiz-adv-x="699" 
d="M471 278h-242v-278h-162v700h162v-283h242v283h161v-700h-161v278z" />
    <glyph glyph-name="I" unicode="I" horiz-adv-x="298" 
d="M67 700h164v-700h-164v700z" />
    <glyph glyph-name="J" unicode="J" horiz-adv-x="583" 
d="M523 241c0 -83.333 -22.499 -147.164 -67.499 -191.497s-107.833 -66.5 -188.5 -66.5c-42 0 -79 6.66699 -111 20s-58.667 31.666 -80 54.999s-37.333 50.666 -48 81.999s-16 65.333 -16 102h162c0 -34.667 7.66699 -63.334 23 -86.001s38.666 -34 69.999 -34
s55 10.5 71 31.5s24 50.167 24 87.5v459h161v-459z" />
    <glyph glyph-name="K" unicode="K" horiz-adv-x="659" 
d="M229 296v-296h-162v700h162v-297l226 297h195l-277 -350l277 -350h-195z" />
    <glyph glyph-name="L" unicode="L" horiz-adv-x="453" 
d="M428 140v-140h-361v700h162v-560h199z" />
    <glyph glyph-name="M" unicode="M" horiz-adv-x="877" 
d="M810 0h-158v434l-151 -434h-120l-156 434v-434h-158v700h187l187 -487l185 487h184v-700z" />
    <glyph glyph-name="N" unicode="N" horiz-adv-x="717" 
d="M489 244v456h161v-700h-169l-252 450v-450h-162v700h169z" />
    <glyph glyph-name="O" unicode="O" horiz-adv-x="805" 
d="M403 -18c-58 0 -110 10.167 -156 30.5s-85 47.5 -117 81.5s-56.333 73.167 -73 117.5s-25 90.5 -25 138.5s8.33301 94.167 25 138.5s41 83.5 73 117.5s71 61.167 117 81.5s98 30.5 156 30.5s109.833 -10.167 155.5 -30.5s84.5 -47.5 116.5 -81.5
s56.333 -73.167 73 -117.5s25 -90.5 25 -138.5s-8.33301 -94.167 -25 -138.5s-41 -83.5 -73 -117.5s-70.833 -61.167 -116.5 -81.5s-97.5 -30.5 -155.5 -30.5zM403 128c32 0 60.667 6.16699 86 18.5s46.833 28.833 64.5 49.5s31.167 44.334 40.5 71.001s14 54.334 14 83.001
s-4.66699 56.334 -14 83.001s-22.833 50.334 -40.5 71.001s-39.167 37.167 -64.5 49.5s-54 18.5 -86 18.5s-60.667 -6.16699 -86 -18.5s-46.833 -28.833 -64.5 -49.5s-31.167 -44.334 -40.5 -71.001s-14 -54.334 -14 -83.001s4.66699 -56.334 14 -83.001
s22.833 -50.334 40.5 -71.001s39.167 -37.167 64.5 -49.5s54 -18.5 86 -18.5z" />
    <glyph glyph-name="P" unicode="P" horiz-adv-x="635" 
d="M67 700h293c38.667 0 73.667 -6.83301 105 -20.5s58.166 -32 80.499 -55s39.5 -49.833 51.5 -80.5s18 -63 18 -97s-6 -66.333 -18 -97s-29.167 -57.5 -51.5 -80.5s-49.166 -41.333 -80.499 -55s-66.333 -20.5 -105 -20.5h-131v-194h-162v700zM340 326
c16.667 0 32 3.33301 46 10s25.833 15.5 35.5 26.5s17.167 23.833 22.5 38.5s8 30 8 46s-2.66699 31.333 -8 46s-12.833 27.5 -22.5 38.5s-21.5 19.833 -35.5 26.5s-29.333 10 -46 10h-111v-242h111z" />
    <glyph glyph-name="Q" unicode="Q" horiz-adv-x="805" 
d="M773 350c0 -35.333 -4.66797 -69.5 -14.001 -102.5s-22.666 -64 -39.999 -93s-38.666 -55 -63.999 -78s-54.333 -41.5 -87 -55.5l60 -81l-142 -72l-84 114c-58 0 -110 10.167 -156 30.5s-84.833 47.5 -116.5 81.5s-55.834 73.167 -72.501 117.5s-25 90.5 -25 138.5
s8.33301 94.167 25 138.5s41 83.5 73 117.5s71 61.167 117 81.5s98 30.5 156 30.5s109.833 -10.167 155.5 -30.5s84.5 -47.5 116.5 -81.5s56.333 -73.167 73 -117.5s25 -90.5 25 -138.5zM402.999 128c32 0 60.667 6.16699 86 18.5s46.833 28.833 64.5 49.5
s31.167 44.334 40.5 71.001s14 54.334 14 83.001s-4.66699 56.334 -14 83.001s-22.833 50.334 -40.5 71.001s-39.167 37.167 -64.5 49.5s-54 18.5 -86 18.5s-60.667 -6.16699 -86 -18.5s-46.833 -28.833 -64.5 -49.5s-31.167 -44.334 -40.5 -71.001s-14 -54.334 -14 -83.001
s4.66699 -56.334 14 -83.001s22.833 -50.334 40.5 -71.001s39.167 -37.167 64.5 -49.5s54 -18.5 86 -18.5z" />
    <glyph glyph-name="R" unicode="R" horiz-adv-x="654" 
d="M340 326c16.667 0 32 3.33301 46 10s25.833 15.5 35.5 26.5s17.167 23.833 22.5 38.5s8 30 8 46s-2.66699 31.333 -8 46s-12.833 27.5 -22.5 38.5s-21.5 19.833 -35.5 26.5s-29.333 10 -46 10h-111v-242h111zM67 700l294.001 -0.000976562
c38.667 0 73.667 -6.83301 105 -20.5s58.166 -32 80.499 -55s39.5 -49.833 51.5 -80.5s18 -63 18 -97c0 -49.333 -12.167 -94.166 -36.5 -134.499s-58.5 -70.833 -102.5 -91.5l140 -221h-188l-124 194h-76v-194h-162v700z" />
    <glyph glyph-name="S" unicode="S" horiz-adv-x="606" 
d="M200 232c0 -38 10.333 -67.666 31 -88.999s47.667 -32 81 -32c26 0 47.833 7.5 65.5 22.5s26.5 34.833 26.5 59.5c0 14 -2.83301 25.833 -8.5 35.5s-13.334 18.167 -23.001 25.5s-21.167 13.833 -34.5 19.5l-43 17.5c-32 12 -62.5 24 -91.5 36s-54.167 26.5 -75.5 43.5
s-38.333 37.5 -51 61.5s-19 53.667 -19 89c0 32 6.83301 60.333 20.5 85s31.834 45.334 54.501 62.001s48.834 29.167 78.501 37.5s60.5 12.5 92.5 12.5c41.333 0 77.666 -6 108.999 -18s57.333 -28.333 78 -49s36.167 -44.334 46.5 -71.001s15.5 -55 15.5 -85h-162
c0 31.333 -7.5 56 -22.5 74s-36.5 27 -64.5 27c-23.333 0 -43.333 -6 -60 -18s-25 -30 -25 -54c0 -23.333 9.16699 -41.833 27.5 -55.5s42.5 -25.834 72.5 -36.501c28.667 -10 57.667 -20.833 87 -32.5s55.666 -26 78.999 -43s42.5 -37.667 57.5 -62
s22.5 -53.833 22.5 -88.5c0 -36 -6.5 -68 -19.5 -96s-31.167 -51.5 -54.5 -70.5s-51 -33.333 -83 -43s-67.333 -14.5 -106 -14.5c-37.333 0 -72.166 5.5 -104.499 16.5s-60.333 27.167 -84 48.5s-42.167 47.5 -55.5 78.5s-20 66.5 -20 106.5h162z" />
    <glyph glyph-name="T" unicode="T" horiz-adv-x="509" 
d="M173 560h-158v140h479v-140h-159v-560h-162v560z" />
    <glyph glyph-name="U" unicode="U" horiz-adv-x="657" 
d="M56 700h162.001v-460c0 -16 2.66699 -31.167 8 -45.5s12.833 -26.833 22.5 -37.5s21.167 -19.167 34.5 -25.5s28.333 -9.5 45 -9.5s31.834 3.16699 45.501 9.5s25.334 14.833 35.001 25.5s17.167 23.167 22.5 37.5s8 29.5 8 45.5v460h162v-461
c0 -36 -6.33301 -69.667 -19 -101s-30.834 -58.5 -54.501 -81.5s-52.334 -41.167 -86.001 -54.5s-71.5 -20 -113.5 -20s-79.667 6.66699 -113 20s-61.833 31.5 -85.5 54.5s-41.834 50.167 -54.501 81.5s-19 65 -19 101v461z" />
    <glyph glyph-name="V" unicode="V" horiz-adv-x="644" 
d="M395 0h-149l-250 700h173l152 -494l151 494h176z" />
    <glyph glyph-name="W" unicode="W" horiz-adv-x="1035" 
d="M518 440l-139 -440h-133l-247 700h171l143 -459l142 459h125l143 -459l142 459h171l-247 -700h-132z" />
    <glyph glyph-name="X" unicode="X" horiz-adv-x="609" 
d="M426 700h179l-208 -350l208 -350h-179l-122 225l-122 -225h-178l208 350l-208 350h178l122 -226z" />
    <glyph glyph-name="Y" unicode="Y" horiz-adv-x="647" 
d="M302 0h-179l129 263l-248 437h189l149 -275l128 275h179z" />
    <glyph glyph-name="Z" unicode="Z" horiz-adv-x="632" 
d="M45 700h572l-343 -564h332v-136h-589l342 564h-314v136z" />
    <glyph glyph-name="bracketleft" unicode="[" horiz-adv-x="385" 
d="M67 -223v998h258v-133h-105v-733h105v-132h-258z" />
    <glyph glyph-name="backslash" unicode="\" horiz-adv-x="491" 
d="M483 -19l-124 -53l-351 816l124 53z" />
    <glyph glyph-name="bracketright" unicode="]" horiz-adv-x="385" 
d="M60 -223v132h105v732h-105v134h258v-998h-258z" />
    <glyph glyph-name="asciicircum" unicode="^" horiz-adv-x="636" 
d="M445 300l-127 271l-130 -271h-146l232 450h87l233 -450h-149z" />
    <glyph glyph-name="underscore" unicode="_" horiz-adv-x="583" 
d="M22 -132v92h540v-92h-540z" />
    <glyph glyph-name="grave" unicode="`" horiz-adv-x="513" 
d="M83 631l48 106l276 -128l-48 -106z" />
    <glyph glyph-name="a" unicode="a" horiz-adv-x="635" 
d="M302 118c17.333 0 33 3.33301 47 10s26 15.5 36 26.5s17.833 24 23.5 39s8.5 30.833 8.5 47.5s-2.83301 32.334 -8.5 47.001s-13.5 27.667 -23.5 39s-22 20.333 -36 27s-29.667 10 -47 10s-33 -3.33301 -47 -10s-26 -15.667 -36 -27s-17.833 -24.333 -23.5 -39
s-8.5 -30.334 -8.5 -47.001s2.83301 -32.5 8.5 -47.5s13.5 -28 23.5 -39s22 -19.833 36 -26.5s29.667 -10 47 -10zM570 482v-482.001h-153v68c-6 -11.333 -14 -21.833 -24 -31.5s-21.5 -18 -34.5 -25s-27.167 -12.667 -42.5 -17s-30.666 -6.5 -45.999 -6.5
c-34.667 0 -66.5 6.5 -95.5 19.5s-53.833 30.667 -74.5 53s-36.667 49 -48 80s-17 64.5 -17 100.5s5.66699 69.5 17 100.5s27.333 57.667 48 80s45.5 40 74.5 53s60.833 19.5 95.5 19.5c15.333 0 30.666 -2.16699 45.999 -6.5s29.5 -10.166 42.5 -17.499s24.5 -16 34.5 -26
s18 -20.333 24 -31v69h153z" />
    <glyph glyph-name="b" unicode="b" horiz-adv-x="637" 
d="M218 0l-153 0.000976562v700h153v-287c6 10.667 14 21 24 31s21.667 18.667 35 26s27.5 13.166 42.5 17.499s30.5 6.5 46.5 6.5c34.667 0 66.5 -6.5 95.5 -19.5s53.833 -30.667 74.5 -53s36.667 -49 48 -80s17 -64.5 17 -100.5s-5.66699 -69.5 -17 -100.5
s-27.333 -57.667 -48 -80s-45.5 -40 -74.5 -53s-60.833 -19.5 -95.5 -19.5c-16 0 -31.5 2.16699 -46.5 6.5s-29.167 10 -42.5 17s-25 15.333 -35 25s-18 20.167 -24 31.5v-68zM334 118.001c16.667 0 32 3.33301 46 10s26 15.5 36 26.5s17.833 24 23.5 39
s8.5 30.833 8.5 47.5s-2.83301 32.334 -8.5 47.001s-13.5 27.667 -23.5 39s-22 20.333 -36 27s-29.333 10 -46 10c-17.333 0 -33.166 -3.33301 -47.499 -10s-26.5 -15.667 -36.5 -27s-17.833 -24.333 -23.5 -39s-8.5 -30.334 -8.5 -47.001s2.83301 -32.5 8.5 -47.5
s13.5 -28 23.5 -39s22.167 -19.833 36.5 -26.5s30.166 -10 47.499 -10z" />
    <glyph glyph-name="c" unicode="c" horiz-adv-x="575" 
d="M388 293c-3.33301 21.333 -12.166 38.667 -26.499 52s-37.166 20 -68.499 20c-18 0 -33.833 -3.33301 -47.5 -10s-24.834 -15.667 -33.501 -27s-15.167 -24.5 -19.5 -39.5s-6.5 -30.833 -6.5 -47.5s2.16699 -32.5 6.5 -47.5s11 -28.167 20 -39.5s20.667 -20.333 35 -27
s31.5 -10 51.5 -10c26.667 0 46.667 5.5 60 16.5s23.333 26.833 30 47.5h153c-4 -27.333 -12 -52.833 -24 -76.5s-28.333 -44.167 -49 -61.5s-45.834 -31 -75.501 -41s-63.5 -15 -101.5 -15c-42 0 -79.167 7 -111.5 21s-59.5 32.667 -81.5 56s-38.5 50.333 -49.5 81
s-16.5 62.667 -16.5 96s5.5 65.333 16.5 96s27.5 57.667 49.5 81s49.167 42 81.5 56s69.5 21 111.5 21c40.667 0 76 -5.66699 106 -17s55.167 -26.333 75.5 -45s36 -40.167 47 -64.5s17.833 -49.5 20.5 -75.5h-153z" />
    <glyph glyph-name="d" unicode="d" horiz-adv-x="635" 
d="M302 118c17.333 0 33 3.33301 47 10s26 15.5 36 26.5s17.833 24 23.5 39s8.5 30.833 8.5 47.5s-2.83301 32.334 -8.5 47.001s-13.5 27.667 -23.5 39s-22 20.333 -36 27s-29.667 10 -47 10s-33 -3.33301 -47 -10s-26 -15.667 -36 -27s-17.833 -24.333 -23.5 -39
s-8.5 -30.334 -8.5 -47.001s2.83301 -32.5 8.5 -47.5s13.5 -28 23.5 -39s22 -19.833 36 -26.5s29.667 -10 47 -10zM417 68c-6 -11.333 -14 -21.834 -24 -31.501s-21.5 -18 -34.5 -25s-27.167 -12.667 -42.5 -17s-30.666 -6.5 -45.999 -6.5c-34.667 0 -66.5 6.5 -95.5 19.5
s-53.833 30.667 -74.5 53s-36.667 49 -48 80s-17 64.5 -17 100.5s5.66699 69.5 17 100.5s27.333 57.667 48 80s45.5 40 74.5 53s60.833 19.5 95.5 19.5c15.333 0 30.666 -2.16699 45.999 -6.5s29.5 -10.166 42.5 -17.499s24.5 -16 34.5 -26s18 -20.333 24 -31v287h153v-700
h-153v68z" />
    <glyph glyph-name="e" unicode="e" horiz-adv-x="577" 
d="M186 204c0.666992 -14.667 2.83008 -28.499 6.49707 -41.499s9.66699 -24.333 18 -34s19.166 -17.334 32.499 -23.001s30 -8.5 50 -8.5c26.667 0 46.834 5.33301 60.501 16s23.167 23.667 28.5 39h150c-3.33301 -22.667 -11.166 -44 -23.499 -64
s-28.666 -37.5 -48.999 -52.5s-44.333 -26.833 -72 -35.5s-58.834 -13 -93.501 -13c-42 0 -79.167 6.16699 -111.5 18.5s-59.5 29.833 -81.5 52.5s-38.667 49.5 -50 80.5s-17 65.167 -17 102.5c0 35.333 5.5 68.333 16.5 99s27.333 57.5 49 80.5s48.334 41.167 80.001 54.5
s68.5 20 110.5 20c38 0 72.167 -6 102.5 -18s56.333 -28 78 -48s38.334 -43.333 50.001 -70s17.5 -54.667 17.5 -84c0 -10 -0.166992 -20.667 -0.5 -32s-1.83301 -24.333 -4.5 -39h-347zM288.996 393.001c-30 0 -54.668 -8.66699 -74.001 -26s-29 -42.333 -29 -75h202
c0 31.333 -9.16699 56 -27.5 74s-42.166 27 -71.499 27z" />
    <glyph glyph-name="f" unicode="f" horiz-adv-x="380" 
d="M368 588c-8 2 -15.499 3.49902 -22.499 4.49902s-15.167 1.5 -24.5 1.5c-8.66699 0 -17 -0.5 -25 -1.5s-15 -3.66699 -21 -8s-10.833 -10.5 -14.5 -18.5s-5.5 -19 -5.5 -33v-51h113v-114h-112v-368h-153v368h-87v114h87v42c0 44 5.83301 78.333 17.5 103
s26.5 43.334 44.5 56.001s37.667 20.5 59 23.5s41.666 4.5 60.999 4.5c18 0 34 -1.33301 48 -4s25.667 -5.66699 35 -9v-110z" />
    <glyph glyph-name="g" unicode="g" horiz-adv-x="633" 
d="M302 364c-17.333 0 -33 -3.33301 -47 -10s-26 -15.667 -36 -27s-17.667 -24.333 -23 -39s-8 -30.334 -8 -47.001s2.66699 -32.5 8 -47.5s13 -28 23 -39s22 -19.833 36 -26.5s29.667 -10 47 -10s33.166 3.33301 47.499 10s26.5 15.5 36.5 26.5s17.833 24 23.5 39
s8.5 30.833 8.5 47.5s-2.83301 32.334 -8.5 47.001s-13.5 27.667 -23.5 39s-22.167 20.333 -36.5 27s-30.166 10 -47.499 10zM571 3c0 -44 -6.33496 -80.502 -19.002 -109.502s-31.667 -53.167 -57 -72.5c-22.667 -17.333 -49.667 -30.333 -81 -39s-69.333 -13 -114 -13
c-45.333 0 -83.166 5 -113.499 15s-55.5 23.667 -75.5 41c-21.333 18 -38 38.833 -50 62.5s-18.667 48.834 -20 75.501h153c2 -20.667 11.833 -39.334 29.5 -56.001s43.167 -25 76.5 -25c36 0 64.667 8.66699 86 26s32 45 32 83v81c-13.333 -22 -33.333 -40 -60 -54
s-55.667 -21 -87 -21c-34.667 0 -66.5 6 -95.5 18s-53.833 28.833 -74.5 50.5s-36.834 47.334 -48.501 77.001s-17.5 62.5 -17.5 98.5s5.5 69.5 16.5 100.5s26.833 57.667 47.5 80s45.334 40 74.001 53s60.667 19.5 96 19.5c30.667 0 59.834 -7.16699 87.501 -21.5
s48.167 -34.166 61.5 -59.499v69h153v-479z" />
    <glyph glyph-name="h" unicode="h" horiz-adv-x="597" 
d="M65 700l148.002 0.000976562v-288c13.333 25.333 33.333 45.333 60 60s58.667 22 96 22c31.333 0 57.666 -4.83301 78.999 -14.5s38.666 -23.167 51.999 -40.5c15.333 -18.667 25.666 -40.334 30.999 -65.001s8 -54.334 8 -89.001v-285h-148v247
c0 34.667 -6.16699 62.834 -18.5 84.501s-34.5 32.5 -66.5 32.5c-31.333 0 -54.666 -11 -69.999 -33s-23 -51.667 -23 -89v-242h-148v700z" />
    <glyph glyph-name="i" unicode="i" horiz-adv-x="283" 
d="M43 642c0 27.333 9.33301 50.333 28 69s42 28 70 28c14 0 27 -2.5 39 -7.5s22.5 -11.833 31.5 -20.5s16 -19 21 -31s7.5 -24.667 7.5 -38s-2.5 -25.833 -7.5 -37.5s-12 -22 -21 -31s-19.5 -16 -31.5 -21s-25 -7.5 -39 -7.5s-26.833 2.5 -38.5 7.5s-22 12 -31 21
s-16 19.333 -21 31s-7.5 24.167 -7.5 37.5zM65 482h153v-482h-153v482z" />
    <glyph glyph-name="j" unicode="j" horiz-adv-x="283" 
d="M43 642c0 27.333 9.33301 50.333 28 69s42 28 70 28c14 0 27 -2.5 39 -7.5s22.5 -11.833 31.5 -20.5s16 -19 21 -31s7.5 -24.667 7.5 -38s-2.5 -25.833 -7.5 -37.5s-12 -22 -21 -31s-19.5 -16 -31.5 -21s-25 -7.5 -39 -7.5s-26.833 2.5 -38.5 7.5s-22 12 -31 21
s-16 19.333 -21 31s-7.5 24.167 -7.5 37.5zM218 -75c0 -31.333 -3.66895 -57.1689 -11.002 -77.502s-17.166 -36.166 -29.499 -47.499s-26.666 -19.166 -42.999 -23.499s-33.833 -6.5 -52.5 -6.5c-18 0 -36.167 1.16699 -54.5 3.5s-32.166 5.16602 -41.499 8.49902v117
c9.33301 -1.33301 16.666 -2.16602 21.999 -2.49902s11 -0.5 17 -0.5c26.667 0 40 16.333 40 49v537h153v-557z" />
    <glyph glyph-name="k" unicode="k" horiz-adv-x="554" 
d="M361 241l187 -241h-182l-148 202v-202h-153v700h153v-422l149 204h182z" />
    <glyph glyph-name="l" unicode="l" horiz-adv-x="283" 
d="M65 700h153v-700h-153v700z" />
    <glyph glyph-name="m" unicode="m" horiz-adv-x="878" 
d="M671 0l-0.00195312 260.002c0 32.667 -5.83301 58.167 -17.5 76.5s-30.5 27.5 -56.5 27.5c-11.333 0 -22 -2 -32 -6s-18.667 -10.667 -26 -20s-13 -21.833 -17 -37.5s-6 -35.167 -6 -58.5v-242h-148v261c0 32.667 -5.66699 58 -17 76s-29.666 27 -54.999 27
c-12 0 -23 -2 -33 -6s-18.667 -10.833 -26 -20.5s-13.166 -22.5 -17.499 -38.5s-6.5 -36 -6.5 -60v-239h-148v482h148v-70c10.667 22.667 28 42 52 58s53 24 87 24c42 0 74.333 -8.33301 97 -25s39 -37.334 49 -62.001c12.667 25.333 32 46.166 58 62.499s57 24.5 93 24.5
c34.667 0 63 -5.5 85 -16.5s39.333 -25.667 52 -44s21.167 -39.333 25.5 -63s6.5 -48.167 6.5 -73.5v-297h-147z" />
    <glyph glyph-name="n" unicode="n" horiz-adv-x="607" 
d="M65 482l152.999 -0.000976562v-70c13.333 26 33.5 46.167 60.5 60.5s59.5 21.5 97.5 21.5c31.333 0 58.333 -4.83301 81 -14.5s40.667 -23.167 54 -40.5c15.333 -18.667 25.5 -40.167 30.5 -64.5s7.5 -53.833 7.5 -88.5v-286h-153v247
c0 34.667 -6.16699 62.834 -18.5 84.501s-34.5 32.5 -66.5 32.5c-31.333 0 -54.666 -11 -69.999 -33s-23 -51.667 -23 -89v-242h-153v482z" />
    <glyph glyph-name="o" unicode="o" horiz-adv-x="599" 
d="M299 -13c-41.333 0 -78.5 6.83301 -111.5 20.5s-61 32 -84 55s-40.667 49.833 -53 80.5s-18.5 63.334 -18.5 98.001s6.16699 67.334 18.5 98.001s30 57.5 53 80.5s51 41.333 84 55s70.167 20.5 111.5 20.5c42 0 79.5 -6.83301 112.5 -20.5s61 -32 84 -55
s40.667 -49.833 53 -80.5s18.5 -63.334 18.5 -98.001s-6.16699 -67.334 -18.5 -98.001s-30 -57.5 -53 -80.5s-51 -41.333 -84 -55s-70.5 -20.5 -112.5 -20.5zM299 118c17.333 0 33.166 3.16699 47.499 9.5s26.5 15.166 36.5 26.499s17.833 24.333 23.5 39s8.5 30.667 8.5 48
c0 16.667 -2.83301 32.5 -8.5 47.5s-13.5 28 -23.5 39s-22.167 19.833 -36.5 26.5s-30.166 10 -47.499 10s-33 -3.33301 -47 -10s-26 -15.5 -36 -26.5s-17.667 -24 -23 -39s-8 -30.833 -8 -47.5c0 -17.333 2.66699 -33.333 8 -48s13 -27.667 23 -39s22 -20.166 36 -26.499
s29.667 -9.5 47 -9.5z" />
    <glyph glyph-name="p" unicode="p" horiz-adv-x="637" 
d="M334 364c-17.333 0 -33.166 -3.33301 -47.499 -10s-26.5 -15.5 -36.5 -26.5s-17.833 -24 -23.5 -39s-8.5 -30.833 -8.5 -47.5s2.83301 -32.5 8.5 -47.5s13.5 -28 23.5 -39s22.167 -19.833 36.5 -26.5s30.166 -10 47.499 -10c16.667 0 32 3.33301 46 10s26 15.5 36 26.5
s17.833 24 23.5 39s8.5 30.833 8.5 47.5s-2.83301 32.5 -8.5 47.5s-13.5 28 -23.5 39s-22 19.833 -36 26.5s-29.333 10 -46 10zM218 413c6 10.667 14 21.002 24 31.002s21.667 18.667 35 26s27.5 13.166 42.5 17.499s30.5 6.5 46.5 6.5c34.667 0 66.5 -6.5 95.5 -19.5
s53.833 -30.667 74.5 -53s36.667 -49 48 -80s17 -64.5 17 -100.5s-5.66699 -69.5 -17 -100.5s-27.333 -57.667 -48 -80s-45.5 -40 -74.5 -53s-60.833 -19.5 -95.5 -19.5c-16 0 -31.5 2.16699 -46.5 6.5s-29.167 10.166 -42.5 17.499s-25 15.833 -35 25.5
s-18 20.167 -24 31.5v-287h-153v700h153v-69z" />
    <glyph glyph-name="q" unicode="q" horiz-adv-x="637" 
d="M419 482l152 -0.00195312v-700h-152v287c-6 -11.333 -14.167 -21.833 -24.5 -31.5s-22 -18.167 -35 -25.5s-27.167 -13.166 -42.5 -17.499s-30.666 -6.5 -45.999 -6.5c-34.667 0 -66.5 6.5 -95.5 19.5s-53.833 30.667 -74.5 53s-36.667 49 -48 80s-17 64.5 -17 100.5
s5.66699 69.5 17 100.5s27.333 57.667 48 80s45.5 40 74.5 53s60.833 19.5 95.5 19.5c15.333 0 30.666 -2.16699 45.999 -6.5s29.5 -10.166 42.5 -17.499s24.667 -16 35 -26s18.5 -20.333 24.5 -31v69zM303 363.998c-17.333 0 -33 -3.33301 -47 -10s-26 -15.5 -36 -26.5
s-17.667 -24 -23 -39s-8 -30.833 -8 -47.5s2.66699 -32.5 8 -47.5s13 -28 23 -39s22 -19.833 36 -26.5s29.667 -10 47 -10s33.166 3.33301 47.499 10s26.5 15.5 36.5 26.5s17.833 24 23.5 39s8.5 30.833 8.5 47.5s-2.83301 32.5 -8.5 47.5s-13.5 28 -23.5 39
s-22.167 19.833 -36.5 26.5s-30.166 10 -47.499 10z" />
    <glyph glyph-name="r" unicode="r" horiz-adv-x="417" 
d="M411 343c-10.667 2.66699 -19.666 4.50098 -26.999 5.50098s-16.333 1.5 -27 1.5c-42 0 -75.667 -12.333 -101 -37s-38 -66.334 -38 -125.001v-188h-153v482h153v-78c11.333 22.667 30.166 42.667 56.499 60s56.5 26 90.5 26c18 0 33.333 -2.66699 46 -8v-139z" />
    <glyph glyph-name="s" unicode="s" horiz-adv-x="510" 
d="M318 284c21.333 -6 41.333 -12.4971 60 -19.4971s35 -15.667 49 -26s25.167 -23.166 33.5 -38.499s12.5 -34.666 12.5 -57.999c0 -28.667 -5.66699 -52.834 -17 -72.501s-27 -35.667 -47 -48s-43.167 -21.166 -69.5 -26.499s-54.5 -8 -84.5 -8
c-68.667 0 -122.834 15 -162.501 45s-59.5 73 -59.5 129h150c0 -25.333 7.16699 -43.5 21.5 -54.5s32.833 -16.5 55.5 -16.5c18.667 0 33.834 3.5 45.501 10.5s17.5 18.5 17.5 34.5c0 9.33301 -2.5 16.833 -7.5 22.5s-12.667 11 -23 16s-23.666 10 -39.999 15l-58.5 18.5
c-20 6 -39 12.5 -57 19.5s-33.833 15.5 -47.5 25.5s-24.5 22.667 -32.5 38s-12 34.666 -12 57.999c0 50 19.167 87 57.5 111s90.166 36 155.499 36c34.667 0 65.167 -4.16699 91.5 -12.5s48 -19.833 65 -34.5s29.833 -32 38.5 -52s13 -41.333 13 -64h-151
c0 20 -5.16699 35.5 -15.5 46.5s-26.166 16.5 -47.499 16.5c-15.333 0 -28.666 -3.5 -39.999 -10.5s-17 -17.833 -17 -32.5c0 -8.66699 2.66699 -15.834 8 -21.501s13.166 -10.834 23.499 -15.501s23.166 -9.33398 38.499 -14.001s33 -10.334 53 -17.001z" />
    <glyph glyph-name="t" unicode="t" horiz-adv-x="383" 
d="M366 0c-11.333 -2 -25.5 -3.83105 -42.5 -5.49805s-36.833 -2.5 -59.5 -2.5c-18 0 -37 1.33301 -57 4s-38.5 9.5 -55.5 20.5s-31 28 -42 51s-16.5 54.5 -16.5 94.5v206h-76v114h76v143h152v-143h110v-114h-110v-172c0 -18 1.66699 -32.333 5 -43s8 -18.834 14 -24.501
s13 -9.5 21 -11.5s16.667 -3 26 -3s19 0.166992 29 0.5s18.667 1.16602 26 2.49902v-117z" />
    <glyph glyph-name="u" unicode="u" horiz-adv-x="607" 
d="M542 482v-482h-153v69c-13.333 -25.333 -33.5 -45.166 -60.5 -59.499s-59.5 -21.5 -97.5 -21.5c-31.333 0 -58.333 4.83301 -81 14.5s-40.667 23.167 -54 40.5c-15.333 18.667 -25.333 40.167 -30 64.5s-7 53.833 -7 88.5v286h152v-247
c0 -34.667 6.16699 -62.834 18.5 -84.501s34.5 -32.5 66.5 -32.5s55.5 11 70.5 33s22.5 51.667 22.5 89v242h153z" />
    <glyph glyph-name="v" unicode="v" horiz-adv-x="551" 
d="M158 482l117 -303l118 303h160l-218 -482h-122l-215 482h160z" />
    <glyph glyph-name="w" unicode="w" horiz-adv-x="803" 
d="M402 307l-99 -307h-124l-180 482h158l89 -287l85 287h141l85 -287l89 287h158l-180 -482h-124z" />
    <glyph glyph-name="x" unicode="x" horiz-adv-x="514" 
d="M513 0h-177l-79 140l-79 -140h-177l166 243l-163 239h177l76 -136l76 136h177l-162 -239z" />
    <glyph glyph-name="y" unicode="y" horiz-adv-x="615" 
d="M303 -231c-39.333 0 -73.502 4 -102.502 12s-54.167 20.667 -75.5 38c-19.333 16 -35.166 35.833 -47.499 59.5s-18.5 51.834 -18.5 84.501h153c1.33301 -27.333 10.833 -48.166 28.5 -62.499s39.167 -21.5 64.5 -21.5c29.333 0 52.333 7.16699 69 21.5
s25 40.166 25 77.499v99c-13.333 -26 -33.166 -46 -59.499 -60s-57.833 -21 -94.5 -21c-32 0 -59.833 5.33301 -83.5 16s-42.167 24.667 -55.5 42c-15.333 18.667 -25.333 39.5 -30 62.5s-7 51.833 -7 86.5v279h152v-247c0 -34.667 6.16699 -62.834 18.5 -84.501
s34.5 -32.5 66.5 -32.5s55.5 11 70.5 33s22.5 51.667 22.5 89v242h153v-494c0 -38 -6 -71 -18 -99s-28.333 -50.667 -49 -68c-21.333 -18 -46.5 -31.167 -75.5 -39.5s-64.5 -12.5 -106.5 -12.5z" />
    <glyph glyph-name="z" unicode="z" horiz-adv-x="480" 
d="M467 482l-212 -352h205v-130h-442l213 352h-200v130h436z" />
    <glyph glyph-name="braceleft" unicode="{" horiz-adv-x="477" 
d="M410 775v-124.001h-42c-13.333 0 -24.333 -2.33301 -33 -7s-15.667 -10.834 -21 -18.501s-9 -16.334 -11 -26.001s-3 -19.5 -3 -29.5v-188c0 -21.333 -3.83301 -39.166 -11.5 -53.499s-16.667 -25.833 -27 -34.5s-21.166 -15 -32.499 -19s-20.666 -6.33301 -27.999 -7
c7.33301 -1.33301 16.666 -3.66602 27.999 -6.99902s22.166 -9.5 32.499 -18.5s19.333 -21 27 -36s11.5 -34.5 11.5 -58.5v-167c0 -9.33301 1 -18.833 3 -28.5s5.66699 -18.334 11 -26.001s12.333 -14 21 -19s19.667 -7.5 33 -7.5h42v-123h-101
c-22.667 0 -43.834 3.33301 -63.501 10s-36.834 16.834 -51.501 30.501s-26.167 30.334 -34.5 50.001s-12.5 42.5 -12.5 68.5v179c0 16 -2.83301 29.333 -8.5 40s-12.667 19.334 -21 26.001s-17.666 11.5 -27.999 14.5s-20.166 4.5 -29.499 4.5v135
c9.33301 0 19.166 1.33301 29.499 4s19.666 7.16699 27.999 13.5s15.333 14.666 21 24.999s8.5 22.833 8.5 37.5v200c0 26 4.16699 49 12.5 69s19.833 36.667 34.5 50s31.834 23.5 51.501 30.5s40.834 10.5 63.501 10.5h101z" />
    <glyph glyph-name="bar" unicode="|" horiz-adv-x="287" 
d="M81 -223v998h127v-998h-127z" />
    <glyph glyph-name="braceright" unicode="}" horiz-adv-x="477" 
d="M168 775c22.667 0 43.834 -3.49902 63.501 -10.499s36.834 -17.167 51.501 -30.5s26.167 -30 34.5 -50s12.5 -43 12.5 -69v-200c0 -14.667 2.66699 -27.167 8 -37.5s12.333 -18.666 21 -24.999s18.167 -10.833 28.5 -13.5s20.166 -4 29.499 -4v-135
c-9.33301 0 -19.166 -1.5 -29.499 -4.5s-19.833 -7.83301 -28.5 -14.5s-15.667 -15.334 -21 -26.001s-8 -24 -8 -40v-179c0 -26 -4.16699 -48.833 -12.5 -68.5s-19.833 -36.334 -34.5 -50.001s-31.834 -23.834 -51.501 -30.501s-40.834 -10 -63.501 -10h-101v123h41
c13.333 0 24.5 2.5 33.5 7.5s16 11.333 21 19s8.5 16.334 10.5 26.001s3 19.167 3 28.5v167c0 24 3.66699 43.5 11 58.5s16.333 27 27 36s21.667 15.167 33 18.5s20.666 5.66602 27.999 6.99902c-7.33301 0.666992 -16.666 3 -27.999 7s-22.333 10.333 -33 19
s-19.667 20.167 -27 34.5s-11 32.166 -11 53.499v188c0 10 -1 19.833 -3 29.5s-5.5 18.334 -10.5 26.001s-12 13.834 -21 18.501s-20.167 7 -33.5 7h-41v124h101z" />
    <glyph glyph-name="asciitilde" unicode="~" horiz-adv-x="562" 
d="M35 313c18.667 22 39.001 37.334 61.001 46.001s42.333 13 61 13c20 0 41 -3.16699 63 -9.5s44.333 -13.833 67 -22.5l64 -24c21.333 -8 39.666 -12 54.999 -12c24.667 0 47.167 5.83301 67.5 17.5s37.833 24.167 52.5 37.5v-120c-18 -22 -38 -37.333 -60 -46
s-42.667 -13 -62 -13c-21.333 0 -41.5 3.16699 -60.5 9.5s-38.167 14.166 -57.5 23.499s-40 17.5 -62 24.5s-46 10.5 -72 10.5c-22.667 0 -44 -5.83301 -64 -17.5s-37.667 -24.167 -53 -37.5v120z" />
    <glyph glyph-name="nonbreakingspace" unicode="&#xa0;" horiz-adv-x="250" 
 />
    <glyph glyph-name="exclamdown" unicode="&#xa1;" horiz-adv-x="338" 
d="M68 394c0 14 2.66699 27 8 39s12.5 22.667 21.5 32s19.833 16.666 32.5 21.999s26 8 40 8s27.333 -2.66699 40 -8s23.5 -12.666 32.5 -21.999s16.167 -20 21.5 -32s8 -25 8 -39s-2.66699 -27 -8 -39s-12.5 -22.667 -21.5 -32s-19.833 -16.666 -32.5 -21.999
s-26 -8 -40 -8s-27.333 2.66699 -40 8s-23.5 12.666 -32.5 21.999s-16.167 20 -21.5 32s-8 25 -8 39zM88 237h164v-455h-164v455z" />
    <glyph glyph-name="cent" unicode="&#xa2;" horiz-adv-x="606" 
d="M400 370c-3.33301 21.333 -12.1699 38.666 -26.5029 51.999s-37.166 20 -68.499 20c-18 0 -33.833 -3.33301 -47.5 -10s-24.834 -15.667 -33.501 -27s-15.167 -24.5 -19.5 -39.5s-6.5 -30.833 -6.5 -47.5s2.16699 -32.5 6.5 -47.5s11 -28.167 20 -39.5
s20.667 -20.333 35 -27s31.5 -10 51.5 -10c26.667 0 46.667 5.66699 60 17s23.333 27 30 47h153c-3.33301 -24.667 -10.166 -47.667 -20.499 -69s-24 -40.5 -41 -57.5s-37.5 -31 -61.5 -42s-51.333 -18.5 -82 -22.5v-109h-89v109c-35.333 4.66699 -66.333 14.667 -93 30
s-49 34.333 -67 57s-31.667 48 -41 76s-14 57.333 -14 88c0 30 4.66699 59.167 14 87.5s23 53.833 41 76.5s40.333 41.667 67 57s57.667 25.333 93 30v110h89v-110c32.667 -4 61.334 -12.167 86.001 -24.5s45.334 -27.5 62.001 -45.5s29.667 -38.167 39 -60.5
s15 -45.166 17 -68.499h-153z" />
    <glyph glyph-name="sterling" unicode="&#xa3;" horiz-adv-x="628" 
d="M266 500v-17.998c0 -8.66699 0.166992 -18.334 0.5 -29.001s0.5 -21.5 0.5 -32.5v-27.5h145v-88h-145l-2 -51.5c-0.666992 -17.667 -2 -33.167 -4 -46.5c-1.33301 -18 -3.5 -33.667 -6.5 -47s-7.16699 -23 -12.5 -29h315v-131h-496v110c20 20 32 50.667 36 92
c2.66699 14 4.5 30.333 5.5 49s1.83301 36.667 2.5 54h-70v88h70v26c0 10.667 -0.166992 21.334 -0.5 32.001s-0.5 20.5 -0.5 29.5v19.5c0 30.667 6.33301 59.167 19 85.5s30.167 49.166 52.5 68.499s48.666 34.333 78.999 45s63.5 16 99.5 16
c36.667 0 70.334 -5.83301 101.001 -17.5s57 -27.834 79 -48.501s39.167 -45.334 51.5 -74.001s18.5 -59.667 18.5 -93h-162c0 28 -7.16699 51 -21.5 69s-37.5 27 -69.5 27c-25.333 0 -45.833 -6.66699 -61.5 -20s-23.5 -32.666 -23.5 -57.999z" />
    <glyph glyph-name="currency" unicode="&#xa4;" horiz-adv-x="757" 
d="M502 154c-40.667 -25.333 -88.334 -37.999 -143.001 -37.999c-53.333 0 -100.666 13 -141.999 39l-74 -74l-70 70l73 72c-14.667 21.333 -26 44.333 -34 69s-12 50.667 -12 78s4 53.333 12 78s19 47.667 33 69l-71 72l69 70l73 -74c20 13.333 42 23.5 66 30.5
s49.667 10.5 77 10.5s52.833 -3.5 76.5 -10.5s45.5 -17.167 65.5 -30.5l74 74l70 -70l-73 -73c15.333 -20.667 27 -43.334 35 -68.001s12 -50.667 12 -78c0 -56.667 -15.333 -106 -46 -148l71 -71l-69 -70zM359 247.001c17.333 0 33.166 3.33301 47.499 10
s26.5 15.5 36.5 26.5s17.833 24 23.5 39s8.5 30.833 8.5 47.5s-2.83301 32.5 -8.5 47.5s-13.5 28.167 -23.5 39.5s-22.167 20.166 -36.5 26.499s-30.166 9.5 -47.499 9.5s-33 -3.16699 -47 -9.5s-26 -15.166 -36 -26.499s-17.667 -24.5 -23 -39.5s-8 -30.833 -8 -47.5
s2.66699 -32.5 8 -47.5s13 -28 23 -39s22 -19.833 36 -26.5s29.667 -10 47 -10z" />
    <glyph glyph-name="yen" unicode="&#xa5;" horiz-adv-x="630" 
d="M165 700l151 -275l149 275h188l-237 -394h116v-88h-138v-57h138v-88h-138v-73h-154v73h-136v88h136v57h-136v88h110l-237 394h188z" />
    <glyph glyph-name="brokenbar" unicode="&#xa6;" horiz-adv-x="287" 
d="M80 341v434h128v-434h-128zM208 217v-440h-128v440h128z" />
    <glyph glyph-name="section" unicode="&#xa7;" horiz-adv-x="575" 
d="M412 258c0 16 -3.50098 28.998 -10.501 38.998s-17.167 19 -30.5 27c-13.333 7.33301 -29.166 14.166 -47.499 20.499l-61.5 20.5c-12 -0.666992 -23.833 -3 -35.5 -7s-21.834 -9.5 -30.501 -16.5s-15.667 -15.667 -21 -26s-8 -22.166 -8 -35.499
c0 -16.667 4.33301 -30.667 13 -42s20.334 -21.333 35.001 -30c14.667 -8 30.667 -15 48 -21s34.666 -11.667 51.999 -17c12.667 0.666992 24.834 3.33398 36.501 8.00098s22 10.834 31 18.501s16.167 16.667 21.5 27s8 21.833 8 34.5zM268.999 59.998
c-28 9.33301 -55.667 19.5 -83 30.5s-52 24.167 -74 39.5s-39.833 33.666 -53.5 54.999s-20.5 47 -20.5 77c0 38.667 9 70.834 27 96.501s46 45.167 84 58.5c-25.333 16.667 -44.666 36.667 -57.999 60s-20 51.333 -20 84c0 28.667 6.16699 54.167 18.5 76.5s29 41 50 56
s45.333 26.5 73 34.5s56.5 12 86.5 12c35.333 0 67 -5.16699 95 -15.5s51.833 -24.666 71.5 -42.999s34.667 -39.833 45 -64.5s15.5 -51.334 15.5 -80.001h-137c0 30 -8.33301 53.833 -25 71.5s-38.667 26.5 -66 26.5c-24.667 0 -45.834 -6 -63.501 -18
s-26.5 -29.667 -26.5 -53s9.33301 -41.333 28 -54s41.667 -23.667 69 -33s55 -19.333 83 -30s53.5 -23.5 76.5 -38.5s41.667 -33.333 56 -55s21.5 -48.167 21.5 -79.5c0 -20 -3 -38.667 -9 -56s-14.333 -32.833 -25 -46.5s-22.834 -25 -36.501 -34
s-27.834 -15.167 -42.501 -18.5c25.333 -16.667 45 -36.834 59 -60.501s21 -51.5 21 -83.5c0 -28.667 -6 -54.5 -18 -77.5s-28.333 -42.5 -49 -58.5s-45.167 -28.333 -73.5 -37s-58.833 -13 -91.5 -13c-33.333 0 -64.166 5 -92.499 15s-53 24.167 -74 42.5
s-37.333 40.5 -49 66.5s-17.5 55 -17.5 87h139c0 -31.333 9 -56.166 27 -74.499s41.333 -27.5 70 -27.5c25.333 0 46.833 6.33301 64.5 19s26.5 30.667 26.5 54s-9.66699 41.5 -29 54.5s-43.666 24.5 -72.999 34.5z" />
    <glyph glyph-name="dieresis" unicode="&#xa8;" horiz-adv-x="582" 
d="M81 616c0 12.667 2.33301 24.667 7 36s11.167 21.166 19.5 29.499s18 14.833 29 19.5s22.833 7 35.5 7s24.667 -2.33301 36 -7s21.333 -11.167 30 -19.5s15.334 -18.166 20.001 -29.499s7 -23.333 7 -36c0 -12 -2.33301 -23.5 -7 -34.5s-11.334 -20.667 -20.001 -29
s-18.667 -14.833 -30 -19.5s-23.333 -7 -36 -7s-24.5 2.33301 -35.5 7s-20.667 11.167 -29 19.5s-14.833 18 -19.5 29s-7 22.5 -7 34.5zM321 616c0 12.667 2.33398 24.667 7.00098 36s11.167 21.166 19.5 29.499s18 14.833 29 19.5s23.167 7 36.5 7
c12.667 0 24.667 -2.33301 36 -7s21.166 -11.167 29.499 -19.5s14.833 -18.166 19.5 -29.499s7 -23.333 7 -36c0 -24.667 -8.83301 -45.834 -26.5 -63.501s-39.5 -26.5 -65.5 -26.5s-47.833 8.83301 -65.5 26.5s-26.5 38.834 -26.5 63.501z" />
    <glyph glyph-name="copyright" unicode="&#xa9;" horiz-adv-x="808" 
d="M404 -18c-58 0 -110 10.167 -156 30.5s-85 47.5 -117 81.5s-56.333 73.167 -73 117.5s-25 90.5 -25 138.5s8.33301 94.167 25 138.5s41 83.5 73 117.5s71 61.167 117 81.5s98 30.5 156 30.5s110 -10.167 156 -30.5s85 -47.5 117 -81.5s56.333 -73.167 73 -117.5
s25 -90.5 25 -138.5s-8.33301 -94.167 -25 -138.5s-41 -83.5 -73 -117.5s-71 -61.167 -117 -81.5s-98 -30.5 -156 -30.5zM404 65c42.667 0 80.834 7.83301 114.501 23.5s62.167 36.834 85.5 63.501s41.166 57 53.499 91s18.5 69.667 18.5 107
c0 36.667 -6.16699 72.167 -18.5 106.5s-30.166 64.833 -53.499 91.5s-51.833 47.834 -85.5 63.501s-71.834 23.5 -114.501 23.5s-80.834 -7.83301 -114.501 -23.5s-62.167 -36.834 -85.5 -63.501s-41.166 -57.167 -53.499 -91.5s-18.5 -69.833 -18.5 -106.5
c0 -37.333 6.16699 -73 18.5 -107s30.166 -64.333 53.499 -91s51.833 -47.834 85.5 -63.501s71.834 -23.5 114.501 -23.5zM597 295c-4 -20 -11.166 -38.666 -21.499 -55.999s-23.5 -32.5 -39.5 -45.5s-34.667 -23.167 -56 -30.5s-44.666 -11 -69.999 -11
c-32 0 -60.5 5.33301 -85.5 16s-46.333 25.167 -64 43.5s-31 39.5 -40 63.5s-13.5 49.333 -13.5 76c0 26 4.5 50.833 13.5 74.5s22 44.5 39 62.5s37.667 32.5 62 43.5s52.166 16.5 83.499 16.5c29.333 0 55.166 -4 77.499 -12s41.5 -19 57.5 -33s28.667 -30.5 38 -49.5
s15.333 -39.5 18 -61.5h-94c-5.33301 21.333 -15.833 39.166 -31.5 53.499s-37.5 21.5 -65.5 21.5c-16.667 0 -31.5 -3.16699 -44.5 -9.5s-24 -15 -33 -26s-15.833 -23.5 -20.5 -37.5s-7 -28.333 -7 -43c0 -32 9.66699 -59.5 29 -82.5s46.333 -34.5 81 -34.5
c23.333 0 43 5.83301 59 17.5s26.667 26.167 32 43.5h96z" />
    <glyph glyph-name="ordfeminine" unicode="&#xaa;" horiz-adv-x="635" 
d="M302 118c17.333 0 33 3.33301 47 10s26 15.5 36 26.5s17.833 24 23.5 39s8.5 30.833 8.5 47.5s-2.83301 32.334 -8.5 47.001s-13.5 27.667 -23.5 39s-22 20.333 -36 27s-29.667 10 -47 10s-33 -3.33301 -47 -10s-26 -15.667 -36 -27s-17.833 -24.333 -23.5 -39
s-8.5 -30.334 -8.5 -47.001s2.83301 -32.5 8.5 -47.5s13.5 -28 23.5 -39s22 -19.833 36 -26.5s29.667 -10 47 -10zM570 482v-482.001h-153v68c-6 -11.333 -14 -21.833 -24 -31.5s-21.5 -18 -34.5 -25s-27.167 -12.667 -42.5 -17s-30.666 -6.5 -45.999 -6.5
c-34.667 0 -66.5 6.5 -95.5 19.5s-53.833 30.667 -74.5 53s-36.667 49 -48 80s-17 64.5 -17 100.5s5.66699 69.5 17 100.5s27.333 57.667 48 80s45.5 40 74.5 53s60.833 19.5 95.5 19.5c15.333 0 30.666 -2.16699 45.999 -6.5s29.5 -10.166 42.5 -17.499s24.5 -16 34.5 -26
s18 -20.333 24 -31v69h153z" />
    <glyph glyph-name="guillemotleft" unicode="&#xab;" horiz-adv-x="512" 
d="M250 78l-213 173v80l213 173v-133l-103 -80l103 -80v-133zM470 78l-213 173v80l213 173v-133l-103 -80l103 -80v-133z" />
    <glyph glyph-name="logicalnot" unicode="&#xac;" 
d="M390 313h-297v122h427v-301h-130v179z" />
    <glyph glyph-name="softhyphen" unicode="&#xad;" horiz-adv-x="294" 
d="M264 236h-234v97h234v-97z" />
    <glyph glyph-name="registered" unicode="&#xae;" horiz-adv-x="808" 
d="M404 -18c-58 0 -110 10.167 -156 30.5s-85 47.5 -117 81.5s-56.333 73.167 -73 117.5s-25 90.5 -25 138.5s8.33301 94.167 25 138.5s41 83.5 73 117.5s71 61.167 117 81.5s98 30.5 156 30.5s110 -10.167 156 -30.5s85 -47.5 117 -81.5s56.333 -73.167 73 -117.5
s25 -90.5 25 -138.5s-8.33301 -94.167 -25 -138.5s-41 -83.5 -73 -117.5s-71 -61.167 -117 -81.5s-98 -30.5 -156 -30.5zM404 65c42.667 0 80.834 7.83301 114.501 23.5s62.167 36.834 85.5 63.501s41.166 57 53.499 91s18.5 69.667 18.5 107
c0 36.667 -6.16699 72.167 -18.5 106.5s-30.166 64.833 -53.499 91.5s-51.833 47.834 -85.5 63.501s-71.834 23.5 -114.501 23.5s-80.834 -7.83301 -114.501 -23.5s-62.167 -36.834 -85.5 -63.501s-41.166 -57.167 -53.499 -91.5s-18.5 -69.833 -18.5 -106.5
c0 -37.333 6.16699 -73 18.5 -107s30.166 -64.333 53.499 -91s51.833 -47.834 85.5 -63.501s71.834 -23.5 114.501 -23.5zM421 351c18 0 32.167 6.16797 42.5 18.501s15.5 27.166 15.5 44.499s-5.16699 32.5 -15.5 45.5s-24.5 19.5 -42.5 19.5h-65v-128h65zM260 164.001
l0.000976562 391.999h177c21.333 0 40.833 -3.83301 58.5 -11.5s32.667 -18 45 -31s21.833 -28 28.5 -45s10 -35.167 10 -54.5c0 -28 -6.83301 -53.167 -20.5 -75.5s-32.834 -39.166 -57.501 -50.499l78 -124h-109l-70 109h-44v-109h-96z" />
    <glyph glyph-name="macron" unicode="&#xaf;" horiz-adv-x="519" 
d="M443 705h-368v115h368v-115z" />
    <glyph glyph-name="degree" unicode="&#xb0;" horiz-adv-x="344" 
d="M324 574c0 -21.333 -4 -41.166 -12 -59.499s-18.833 -34.333 -32.5 -48s-29.667 -24.5 -48 -32.5s-38.166 -12 -59.499 -12s-41.166 4 -59.499 12s-34.333 18.833 -48 32.5s-24.5 29.667 -32.5 48s-12 38.166 -12 59.499s4 41.166 12 59.499s18.833 34.333 32.5 48
s29.667 24.5 48 32.5s38.166 12 59.499 12s41.166 -4 59.499 -12s34.333 -18.833 48 -32.5s24.5 -29.667 32.5 -48s12 -38.166 12 -59.499zM230 574c0 15.333 -5.83301 29 -17.5 41s-25.167 18 -40.5 18s-28.833 -6 -40.5 -18s-17.5 -25.667 -17.5 -41
c0 -16 5.83301 -29.667 17.5 -41s25.167 -17 40.5 -17s28.833 5.66699 40.5 17s17.5 25 17.5 41z" />
    <glyph glyph-name="plusminus" unicode="&#xb1;" 
d="M217 219v153h-149v122h149v153h130v-153h149v-122h-149v-153h-130zM68 0v122h428v-122h-428z" />
    <glyph glyph-name="twosuperior" unicode="&#xb2;" horiz-adv-x="397" 
d="M54 315c0 32 2.50195 58.8301 7.50195 80.4971s11.833 40 20.5 55s19.167 27.667 31.5 38s26.166 20.166 41.499 29.499c27.333 15.333 48.166 28.333 62.499 39s21.5 24.334 21.5 41.001c0 13.333 -3.5 22.833 -10.5 28.5s-15.5 8.5 -25.5 8.5
c-12 0 -21.667 -3.83301 -29 -11.5s-11 -20.834 -11 -39.501h-107c0 16 2.83301 31.5 8.5 46.5s14.334 28.333 26.001 40s26.834 21 45.501 28s41 10.5 67 10.5c18 0 35.5 -2.16699 52.5 -6.5s32 -11.166 45 -20.499s23.5 -21.5 31.5 -36.5s12 -32.833 12 -53.5
c0 -15.333 -2.83301 -29.166 -8.5 -41.499s-13.167 -23.666 -22.5 -33.999s-19.833 -19.666 -31.5 -27.999s-23.5 -15.833 -35.5 -22.5c-12.667 -7.33301 -23.334 -13.833 -32.001 -19.5s-15.834 -11 -21.501 -16s-9.66699 -10 -12 -15s-3.5 -10.833 -3.5 -17.5h164v-83
h-287v0z" />
    <glyph glyph-name="threesuperior" unicode="&#xb3;" horiz-adv-x="404" 
d="M154 445c0 -38.667 15.665 -58 46.998 -58c14 0 24.5 4.66699 31.5 14s10.5 19.666 10.5 30.999c0 14.667 -3.66699 25.834 -11 33.501s-19.666 11.5 -36.999 11.5h-41v79h41c17.333 0 29.166 3.5 35.499 10.5s9.5 16.833 9.5 29.5c0 13.333 -3.33301 23.166 -10 29.499
s-15.667 9.5 -27 9.5c-16 0 -26.667 -4.66699 -32 -14s-8 -21.666 -8 -36.999h-107c0 15.333 2.33301 30.5 7 45.5s12.667 28.333 24 40s26.333 21.167 45 28.5s42.334 11 71.001 11c18.667 0 36.667 -2 54 -6s32.5 -10.333 45.5 -19s23.5 -20 31.5 -34s12 -30.667 12 -50
c0 -21.333 -6.16699 -39.833 -18.5 -55.5s-26.166 -25.834 -41.499 -30.501c17.333 -5.33301 32.333 -16.166 45 -32.499s19 -36.5 19 -60.5c0 -19.333 -4 -36.166 -12 -50.499s-18.833 -26.333 -32.5 -36s-29.167 -16.834 -46.5 -21.501s-35.333 -7 -54 -7
c-28 0 -52 3.5 -72 10.5s-36.333 16.833 -49 29.5s-22 27.5 -28 44.5s-9 35.167 -9 54.5h107z" />
    <glyph glyph-name="acute" unicode="&#xb4;" horiz-adv-x="513" 
d="M105 503l-48 106l276 128l48 -106z" />
    <glyph glyph-name="uni00B5" unicode="&#xb5;" 
d="M65 482l152.001 -0.000976562v-249c0.666992 -34 7.16699 -61.667 19.5 -83s34.166 -32 65.499 -32c32 0 55.5 11 70.5 33s22.5 51.667 22.5 89v242h153v-482h-153v69c-26 -47.333 -71.667 -73.666 -137 -78.999c-15.333 0 -29 2 -41 6v-214h-152v700z" />
    <glyph glyph-name="paragraph" unicode="&#xb6;" horiz-adv-x="679" 
d="M238 298c-31.333 0 -60.667 4.66504 -88 13.998s-51 22.833 -71 40.5s-35.833 39.334 -47.5 65.001s-17.5 54.834 -17.5 87.501c0 40.667 8 74.5 24 101.5s36.167 48.667 60.5 65s51 28 80 35s56.167 10.5 81.5 10.5h363v-107h-56v-776h-120v776h-88v-776h-121v464z" />
    <glyph glyph-name="periodcentered" unicode="&#xb7;" horiz-adv-x="296" 
d="M47 312c0 14 2.5 27 7.5 39s12 22.5 21 31.5s19.667 16.167 32 21.5s25.5 8 39.5 8c29.333 0 53.666 -9.66699 72.999 -29s29 -43 29 -71s-9.66699 -51.667 -29 -71s-43.666 -29 -72.999 -29c-14 0 -27.167 2.66699 -39.5 8s-23 12.5 -32 21.5s-16 19.5 -21 31.5
s-7.5 25 -7.5 39z" />
    <glyph glyph-name="cedilla" unicode="&#xb8;" horiz-adv-x="473" 
d="M144 12h78v-67c8.66699 10 22.667 15 42 15c10.667 0 21.167 -2.16699 31.5 -6.5s19.166 -10.5 26.499 -18.5s13.333 -17.5 18 -28.5s7 -22.833 7 -35.5s-2.33301 -25 -7 -37s-11.5 -22.833 -20.5 -32.5s-20.333 -17.334 -34 -23.001s-29.5 -8.5 -47.5 -8.5
c-9.33301 0 -20 1.5 -32 4.5s-23.333 8 -34 15s-20 16.5 -28 28.5s-13 27 -15 45h74c2 -9.33301 6 -16.666 12 -21.999s13.667 -8 23 -8c10 0 18.167 3.5 24.5 10.5s9.5 16.167 9.5 27.5c0 10 -3.16699 18.167 -9.5 24.5s-14.166 9.5 -23.499 9.5
c-14 0 -24 -5.33301 -30 -16h-65v123z" />
    <glyph glyph-name="onesuperior" unicode="&#xb9;" horiz-adv-x="298" 
d="M46 630c19.333 0 35.167 1.5 47.5 4.5s22 7.5 29 13.5s11.833 13.333 14.5 22s4 18.667 4 30h92v-385h-108v243h-79v72z" />
    <glyph glyph-name="ordmasculine" unicode="&#xba;" horiz-adv-x="599" 
d="M299 -13c-41.333 0 -78.5 6.83301 -111.5 20.5s-61 32 -84 55s-40.667 49.833 -53 80.5s-18.5 63.334 -18.5 98.001s6.16699 67.334 18.5 98.001s30 57.5 53 80.5s51 41.333 84 55s70.167 20.5 111.5 20.5c42 0 79.5 -6.83301 112.5 -20.5s61 -32 84 -55
s40.667 -49.833 53 -80.5s18.5 -63.334 18.5 -98.001s-6.16699 -67.334 -18.5 -98.001s-30 -57.5 -53 -80.5s-51 -41.333 -84 -55s-70.5 -20.5 -112.5 -20.5zM299 118c17.333 0 33.166 3.16699 47.499 9.5s26.5 15.166 36.5 26.499s17.833 24.333 23.5 39s8.5 30.667 8.5 48
c0 16.667 -2.83301 32.5 -8.5 47.5s-13.5 28 -23.5 39s-22.167 19.833 -36.5 26.5s-30.166 10 -47.499 10s-33 -3.33301 -47 -10s-26 -15.5 -36 -26.5s-17.667 -24 -23 -39s-8 -30.833 -8 -47.5c0 -17.333 2.66699 -33.333 8 -48s13 -27.667 23 -39s22 -20.166 36 -26.499
s29.667 -9.5 47 -9.5z" />
    <glyph glyph-name="guillemotright" unicode="&#xbb;" horiz-adv-x="512" 
d="M262 211l102 80l-102 80v133l213 -173v-80l-213 -173v133zM42 211l102 80l-102 80v133l213 -173v-80l-213 -173v133z" />
    <glyph glyph-name="onequarter" unicode="&#xbc;" horiz-adv-x="955" 
d="M560 754l106 -53l-400 -754l-105 53zM56 630c19.333 0 35.333 1.5 48 4.5s22.5 7.5 29.5 13.5s11.833 13.333 14.5 22s4 18.667 4 30h92v-385h-109v243h-79v72zM733 100h-163v285h107v-197h56v100h107v-100h42v-88h-42v-100h-107v100z" />
    <glyph glyph-name="onehalf" unicode="&#xbd;" horiz-adv-x="955" 
d="M566 754l105 -53l-399 -754l-106 53zM62 630c19.333 0 35.333 1.5 48 4.5s22.5 7.5 29.5 13.5s11.833 13.333 14.5 22s4 18.667 4 30h91v-385h-108v243h-79v72zM573 0c0 32 2.50195 58.8301 7.50195 80.4971s11.833 40 20.5 55s19.167 27.667 31.5 38
s26.166 20.166 41.499 29.499c27.333 15.333 48.166 28.333 62.499 39s21.5 24.334 21.5 41.001c0 13.333 -3.5 22.833 -10.5 28.5s-15.5 8.5 -25.5 8.5c-12 0 -21.833 -3.83301 -29.5 -11.5s-11.5 -20.834 -11.5 -39.501h-107c0 16 2.83301 31.5 8.5 46.5
s14.5 28.333 26.5 40s27.167 21 45.5 28s40.5 10.5 66.5 10.5c18 0 35.5 -2.16699 52.5 -6.5s32 -11.166 45 -20.499s23.5 -21.5 31.5 -36.5s12 -32.833 12 -53.5c0 -15.333 -2.83301 -29.166 -8.5 -41.499s-13.167 -23.666 -22.5 -33.999s-19.833 -19.666 -31.5 -27.999
s-23.5 -15.833 -35.5 -22.5c-12.667 -7.33301 -23.334 -13.833 -32.001 -19.5s-15.667 -11 -21 -16s-9.16602 -10 -11.499 -15s-3.5 -10.833 -3.5 -17.5h164v-83h-287z" />
    <glyph glyph-name="threequarters" unicode="&#xbe;" horiz-adv-x="955" 
d="M573 754l105 -53l-399 -754l-106 53zM140 445c0 -38.667 15.665 -58 46.998 -58c14 0 24.333 4.66699 31 14s10 19.666 10 30.999c0 14.667 -3.5 25.834 -10.5 33.501s-19.167 11.5 -36.5 11.5h-41v79h40c18 0 30.167 3.5 36.5 10.5s9.5 16.833 9.5 29.5
c0 13.333 -3.33301 23.166 -10 29.499s-15.667 9.5 -27 9.5c-16 0 -26.667 -4.66699 -32 -14s-8 -21.666 -8 -36.999h-107c0 15.333 2.33301 30.5 7 45.5s12.5 28.333 23.5 40s26 21.167 45 28.5s42.5 11 70.5 11c18.667 0 36.667 -2 54 -6s32.5 -10.333 45.5 -19
s23.5 -20 31.5 -34s12 -30.667 12 -50c0 -21.333 -6.16699 -39.833 -18.5 -55.5s-26.166 -25.834 -41.499 -30.501c17.333 -5.33301 32.333 -16.166 45 -32.499s19 -36.5 19 -60.5c0 -19.333 -4 -36.166 -12 -50.499s-18.667 -26.333 -32 -36
s-28.666 -16.834 -45.999 -21.501s-35.333 -7 -54 -7c-28 0 -52 3.5 -72 10.5s-36.333 16.833 -49 29.5s-22 27.5 -28 44.5s-9 35.167 -9 54.5h107zM737.998 100h-163v285h107v-197h56v100h107v-100h42v-88h-42v-100h-107v100z" />
    <glyph glyph-name="questiondown" unicode="&#xbf;" horiz-adv-x="542" 
d="M390 398c0 -14 -2.66699 -27.167 -8 -39.5s-12.666 -23.333 -21.999 -33s-20.333 -17.167 -33 -22.5s-26.334 -8 -41.001 -8s-28.334 2.66699 -41.001 8s-23.667 12.833 -33 22.5s-16.666 20.667 -21.999 33s-8 25.5 -8 39.5s2.66699 27.167 8 39.5
s12.666 23.333 21.999 33s20.333 17.167 33 22.5s26.334 8 41.001 8s28.334 -2.66699 41.001 -8s23.667 -12.833 33 -22.5s16.666 -20.667 21.999 -33s8 -25.5 8 -39.5zM366 266c0 -21.333 -1.33301 -40.6719 -4 -58.0049s-7.33398 -33.333 -14.001 -48
s-15.5 -28.167 -26.5 -40.5s-25.5 -24.5 -43.5 -36.5l-29 -21.5c-10 -7.66699 -19.167 -16.167 -27.5 -25.5s-15.166 -19.666 -20.499 -30.999s-8 -24 -8 -38c0 -25.333 8 -44.166 24 -56.499s36 -18.5 60 -18.5c23.333 0 43.5 7.83301 60.5 23.5s25.5 41.5 25.5 77.5h160
c0 -32 -5.33301 -61.5 -16 -88.5s-26.5 -50.5 -47.5 -70.5s-46.833 -35.667 -77.5 -47s-65.667 -17 -105 -17c-32 0 -62.667 4.16699 -92 12.5s-55 20.833 -77 37.5s-39.667 37.334 -53 62.001s-20 53.334 -20 86.001c0 25.333 3.83301 47.333 11.5 66s17.167 35 28.5 49
s23 26 35 36l32 26c12.667 10 23 19 31 27s14.5 16.333 19.5 25s8.5 18.334 10.5 29.001s3 24 3 40h160z" />
    <glyph glyph-name="Agrave" unicode="&#xc0;" horiz-adv-x="660" 
d="M181 865l48 106l276 -128l-48 -106zM243 212h170l-84 288zM656 0h-176l-27 85h-249l-27 -85h-173l250 700h149z" />
    <glyph glyph-name="Aacute" unicode="&#xc1;" horiz-adv-x="660" 
d="M217 727l-49 106l276 128l49 -106zM243 212h170l-84 288zM656 0h-176l-27 85h-249l-27 -85h-173l250 700h149z" />
    <glyph glyph-name="Acircumflex" unicode="&#xc2;" horiz-adv-x="660" 
d="M329 993l197 -164l-76 -84l-120 107l-120 -106l-76 83zM243 212h170l-84 288zM656 0h-176l-27 85h-249l-27 -85h-173l250 700h149z" />
    <glyph glyph-name="Atilde" unicode="&#xc3;" horiz-adv-x="660" 
d="M400 884c16.667 0 30.1689 4.5 40.502 13.5s20.166 19.833 29.499 32.5l80 -70c-18.667 -30 -40.667 -51.333 -66 -64s-51 -19 -77 -19c-18.667 0 -35.167 2.5 -49.5 7.5s-27.333 10.333 -39 16l-33 16c-10.333 5 -20.5 7.5 -30.5 7.5
c-16.667 0 -29.834 -4.33301 -39.501 -13s-19.167 -19.667 -28.5 -33l-78 77c18.667 27.333 40.167 46.833 64.5 58.5s49.5 17.5 75.5 17.5c18.667 0 35 -2.5 49 -7.5s26.833 -10.333 38.5 -16l32.5 -16c10 -5 20.333 -7.5 31 -7.5zM243.002 212h170l-84 288zM656.002 0
h-176l-27 85h-249l-27 -85h-173l250 700h149z" />
    <glyph glyph-name="Adieresis" unicode="&#xc4;" horiz-adv-x="660" 
d="M114 852c0 12.667 2.5 24.834 7.5 36.501s11.667 21.667 20 30s18.166 15 29.499 20s23.666 7.5 36.999 7.5s25.833 -2.5 37.5 -7.5s21.834 -11.667 30.501 -20s15.5 -18.333 20.5 -30s7.5 -23.834 7.5 -36.501s-2.5 -24.667 -7.5 -36s-11.833 -21.166 -20.5 -29.499
s-18.834 -15 -30.501 -20s-24.167 -7.5 -37.5 -7.5s-25.666 2.5 -36.999 7.5s-21.166 11.667 -29.499 20s-15 18.166 -20 29.499s-7.5 23.333 -7.5 36zM355 852c0 26 9 48.168 27 66.501s40.333 27.5 67 27.5c13.333 0 25.833 -2.5 37.5 -7.5s21.667 -11.667 30 -20
s15 -18.333 20 -30s7.5 -23.834 7.5 -36.501s-2.5 -24.667 -7.5 -36s-11.667 -21.166 -20 -29.499s-18.333 -15 -30 -20s-24.167 -7.5 -37.5 -7.5s-25.666 2.5 -36.999 7.5s-21.333 11.667 -30 20s-15.334 18.166 -20.001 29.499s-7 23.333 -7 36zM243 212.001h170l-84 288z
M656 0.000976562h-176l-27 85h-249l-27 -85h-173l250 700h149z" />
    <glyph glyph-name="Aring" unicode="&#xc5;" horiz-adv-x="660" 
d="M330 1002c18.667 0 36.167 -3.66797 52.5 -11.001s30.5 -17.166 42.5 -29.499s21.5 -26.666 28.5 -42.999s10.5 -33.5 10.5 -51.5s-3.5 -35.167 -10.5 -51.5s-16.5 -30.666 -28.5 -42.999s-26.167 -22 -42.5 -29s-33.833 -10.5 -52.5 -10.5s-36.167 3.5 -52.5 10.5
s-30.5 16.667 -42.5 29s-21.5 26.666 -28.5 42.999s-10.5 33.5 -10.5 51.5c0 18.667 3.5 36.167 10.5 52.5s16.5 30.666 28.5 42.999s26.167 22 42.5 29s33.833 10.5 52.5 10.5zM330 919.999c-14.667 0 -26.832 -5.16699 -36.499 -15.5s-14.5 -22.833 -14.5 -37.5
c0 -13.333 5 -25 15 -35s22 -15 36 -15s26 5 36 15s15 22 15 36s-4.83301 26.167 -14.5 36.5s-21.834 15.5 -36.501 15.5zM243.002 211.999h170l-84 288zM656.002 -0.000976562h-176l-27 85h-249l-27 -85h-173l250 700h149z" />
    <glyph glyph-name="AE" unicode="&#xc6;" horiz-adv-x="919" 
d="M427 213v342l-156 -342h156zM589 570v-159h265v-127h-265v-154h265v-130h-427v86h-212l-38 -86h-176l336 700h517v-130h-265z" />
    <glyph glyph-name="Ccedilla" unicode="&#xc7;" horiz-adv-x="788" 
d="M587 428c-4 20.667 -10.833 39.666 -20.5 56.999s-22 32.5 -37 45.5s-32.667 23.167 -53 30.5s-42.833 11 -67.5 11c-34 0 -64.167 -6.16699 -90.5 -18.5s-48.5 -28.666 -66.5 -48.999s-31.667 -43.833 -41 -70.5s-14 -54.334 -14 -83.001
c0 -30.667 4.83301 -59.5 14.5 -86.5s24 -50.667 43 -71s42 -36.333 69 -48s58.167 -17.5 93.5 -17.5c20 0 39 3.16699 57 9.5s34.5 15 49.5 26s27.833 24 38.5 39s18.334 31.167 23.001 48.5h172c-6.66699 -35.333 -18.834 -68.5 -36.501 -99.5s-40.167 -58.5 -67.5 -82.5
s-59 -43.5 -95 -58.5s-76 -23.833 -120 -26.5v-40c8.66699 10 23.667 15 45 15c22.667 0 41.667 -8 57 -24s23 -36.333 23 -61c0 -12.667 -2.33301 -24.834 -7 -36.501s-11.5 -22 -20.5 -31s-20.333 -16.333 -34 -22s-29.5 -8.5 -47.5 -8.5c-9.33301 0 -20 1.33301 -32 4
s-23.333 7.33398 -34 14.001s-20 15.834 -28 27.501s-13 26.167 -15 43.5h74c4 -17.333 15.667 -26 35 -26c10 0 18.167 3.33301 24.5 10s9.5 15 9.5 25c0 9.33301 -3.16699 17.333 -9.5 24s-14.166 10 -23.499 10c-13.333 0 -23.333 -5.66699 -30 -17h-65v94
c-52 5.33301 -98.333 18.833 -139 40.5s-75 49 -103 82s-49.333 70.333 -64 112s-22 85.5 -22 131.5c0 48 8.33301 94 25 138s40.834 83 72.501 117s70.167 61.167 115.5 81.5s96.666 30.5 153.999 30.5c54 0 102.167 -7.66699 144.5 -23s78.333 -36 108 -62
s53.167 -56.667 70.5 -92s28.666 -73 33.999 -113h-169z" />
    <glyph glyph-name="Egrave" unicode="&#xc8;" horiz-adv-x="555" 
d="M131 856l48 106l276 -128l-48 -106zM229 570v-159h265v-127h-265v-154h265v-130h-427v700h427v-130h-265z" />
    <glyph glyph-name="Eacute" unicode="&#xc9;" horiz-adv-x="555" 
d="M166 740l-48 106l276 128l48 -106zM229 570v-159h265v-127h-265v-154h265v-130h-427v700h427v-130h-265z" />
    <glyph glyph-name="Ecircumflex" unicode="&#xca;" horiz-adv-x="555" 
d="M283 993l197 -164l-76 -84l-120 107l-119 -106l-77 83zM229 570v-159h265v-127h-265v-154h265v-130h-427v700h427v-130h-265z" />
    <glyph glyph-name="Edieresis" unicode="&#xcb;" horiz-adv-x="555" 
d="M76 852c0 12.667 2.5 24.834 7.5 36.501s11.667 21.667 20 30s18.166 15 29.499 20s23.666 7.5 36.999 7.5s25.833 -2.5 37.5 -7.5s21.834 -11.667 30.501 -20s15.5 -18.333 20.5 -30s7.5 -23.834 7.5 -36.501s-2.5 -24.667 -7.5 -36s-11.833 -21.166 -20.5 -29.499
s-18.834 -15 -30.501 -20s-24.167 -7.5 -37.5 -7.5s-25.666 2.5 -36.999 7.5s-21.166 11.667 -29.499 20s-15 18.166 -20 29.499s-7.5 23.333 -7.5 36zM317 852c0 26 9 48.168 27 66.501s40.333 27.5 67 27.5c13.333 0 25.833 -2.5 37.5 -7.5s21.667 -11.667 30 -20
s15 -18.333 20 -30s7.5 -23.834 7.5 -36.501s-2.5 -24.667 -7.5 -36s-11.667 -21.166 -20 -29.499s-18.333 -15 -30 -20s-24.167 -7.5 -37.5 -7.5s-25.666 2.5 -36.999 7.5s-21.333 11.667 -30 20s-15.334 18.166 -20.001 29.499s-7 23.333 -7 36zM229 570.001v-159h265
v-127h-265v-154h265v-130h-427v700h427v-130h-265z" />
    <glyph glyph-name="Igrave" unicode="&#xcc;" horiz-adv-x="298" 
d="M-13 855l48 106l276 -128l-48 -106zM67 700h164v-700h-164v700z" />
    <glyph glyph-name="Iacute" unicode="&#xcd;" horiz-adv-x="298" 
d="M35 727l-48 106l276 128l48 -106zM67 700h164v-700h-164v700z" />
    <glyph glyph-name="Icircumflex" unicode="&#xce;" horiz-adv-x="298" 
d="M149 993l197 -164l-76 -84l-120 107l-119 -106l-77 83zM67 700h164v-700h-164v700z" />
    <glyph glyph-name="Idieresis" unicode="&#xcf;" horiz-adv-x="298" 
d="M-60 852c0 12.667 2.5 24.834 7.5 36.501s11.667 21.667 20 30s18.166 15 29.499 20s23.666 7.5 36.999 7.5s25.833 -2.5 37.5 -7.5s21.834 -11.667 30.501 -20s15.5 -18.333 20.5 -30s7.5 -23.834 7.5 -36.501s-2.5 -24.667 -7.5 -36s-11.833 -21.166 -20.5 -29.499
s-18.834 -15 -30.501 -20s-24.167 -7.5 -37.5 -7.5s-25.666 2.5 -36.999 7.5s-21.166 11.667 -29.499 20s-15 18.166 -20 29.499s-7.5 23.333 -7.5 36zM181 852c0 26 9 48.168 27 66.501s40.333 27.5 67 27.5c13.333 0 25.833 -2.5 37.5 -7.5s21.667 -11.667 30 -20
s15 -18.333 20 -30s7.5 -23.834 7.5 -36.501s-2.5 -24.667 -7.5 -36s-11.667 -21.166 -20 -29.499s-18.333 -15 -30 -20s-24.167 -7.5 -37.5 -7.5s-25.666 2.5 -36.999 7.5s-21.333 11.667 -30 20s-15.334 18.166 -20.001 29.499s-7 23.333 -7 36zM67 700.001h164v-700h-164
v700z" />
    <glyph glyph-name="Eth" unicode="&#xd0;" horiz-adv-x="720" 
d="M324 700c57.333 0 108.667 -9.83105 154 -29.498s83.5 -45.834 114.5 -78.501s54.667 -70 71 -112s24.5 -85.333 24.5 -130s-8.16699 -88 -24.5 -130s-40 -79.333 -71 -112s-69 -58.834 -114 -78.501s-96.5 -29.5 -154.5 -29.5h-257v306h-102v89h102v305h257z
M333.001 306.002l-104 -0.00195312v-166h87c32.667 0 61.834 5.83301 87.501 17.5s47.334 27.334 65.001 47.001s31.167 42 40.5 67s14 51.167 14 78.5c0 26.667 -4.66699 52.667 -14 78s-22.833 47.833 -40.5 67.5s-39.334 35.334 -65.001 47.001
s-54.834 17.5 -87.501 17.5h-87v-165h104v-89z" />
    <glyph glyph-name="Ntilde" unicode="&#xd1;" horiz-adv-x="717" 
d="M420 884c16.667 0 30.1689 4.5 40.502 13.5s20.166 19.833 29.499 32.5l80 -70c-18.667 -30 -40.667 -51.333 -66 -64s-51 -19 -77 -19c-18.667 0 -35.167 2.5 -49.5 7.5s-27.333 10.333 -39 16l-33 16c-10.333 5 -20.5 7.5 -30.5 7.5
c-16.667 0 -29.834 -4.33301 -39.501 -13s-19.167 -19.667 -28.5 -33l-78 77c18.667 27.333 40.167 46.833 64.5 58.5s49.5 17.5 75.5 17.5c18.667 0 35 -2.5 49 -7.5s26.833 -10.333 38.5 -16l32.5 -16c10 -5 20.333 -7.5 31 -7.5zM489.002 244v456h161v-700h-169l-252 450
v-450h-162v700h169z" />
    <glyph glyph-name="Ograve" unicode="&#xd2;" horiz-adv-x="805" 
d="M228 868l48 106l276 -128l-48 -106zM403 -18c-58 0 -110 10.167 -156 30.5s-85 47.5 -117 81.5s-56.333 73.167 -73 117.5s-25 90.5 -25 138.5s8.33301 94.167 25 138.5s41 83.5 73 117.5s71 61.167 117 81.5s98 30.5 156 30.5s109.833 -10.167 155.5 -30.5
s84.5 -47.5 116.5 -81.5s56.333 -73.167 73 -117.5s25 -90.5 25 -138.5s-8.33301 -94.167 -25 -138.5s-41 -83.5 -73 -117.5s-70.833 -61.167 -116.5 -81.5s-97.5 -30.5 -155.5 -30.5zM403 128c32 0 60.667 6.16699 86 18.5s46.833 28.833 64.5 49.5
s31.167 44.334 40.5 71.001s14 54.334 14 83.001s-4.66699 56.334 -14 83.001s-22.833 50.334 -40.5 71.001s-39.167 37.167 -64.5 49.5s-54 18.5 -86 18.5s-60.667 -6.16699 -86 -18.5s-46.833 -28.833 -64.5 -49.5s-31.167 -44.334 -40.5 -71.001s-14 -54.334 -14 -83.001
s4.66699 -56.334 14 -83.001s22.833 -50.334 40.5 -71.001s39.167 -37.167 64.5 -49.5s54 -18.5 86 -18.5z" />
    <glyph glyph-name="Oacute" unicode="&#xd3;" horiz-adv-x="805" 
d="M298 740l-48 106l276 128l48 -106zM403 -18c-58 0 -110 10.167 -156 30.5s-85 47.5 -117 81.5s-56.333 73.167 -73 117.5s-25 90.5 -25 138.5s8.33301 94.167 25 138.5s41 83.5 73 117.5s71 61.167 117 81.5s98 30.5 156 30.5s109.833 -10.167 155.5 -30.5
s84.5 -47.5 116.5 -81.5s56.333 -73.167 73 -117.5s25 -90.5 25 -138.5s-8.33301 -94.167 -25 -138.5s-41 -83.5 -73 -117.5s-70.833 -61.167 -116.5 -81.5s-97.5 -30.5 -155.5 -30.5zM403 128c32 0 60.667 6.16699 86 18.5s46.833 28.833 64.5 49.5
s31.167 44.334 40.5 71.001s14 54.334 14 83.001s-4.66699 56.334 -14 83.001s-22.833 50.334 -40.5 71.001s-39.167 37.167 -64.5 49.5s-54 18.5 -86 18.5s-60.667 -6.16699 -86 -18.5s-46.833 -28.833 -64.5 -49.5s-31.167 -44.334 -40.5 -71.001s-14 -54.334 -14 -83.001
s4.66699 -56.334 14 -83.001s22.833 -50.334 40.5 -71.001s39.167 -37.167 64.5 -49.5s54 -18.5 86 -18.5z" />
    <glyph glyph-name="Ocircumflex" unicode="&#xd4;" horiz-adv-x="805" 
d="M403 993l197 -164l-76 -84l-120 107l-120 -106l-76 83zM403 -18c-58 0 -110 10.167 -156 30.5s-85 47.5 -117 81.5s-56.333 73.167 -73 117.5s-25 90.5 -25 138.5s8.33301 94.167 25 138.5s41 83.5 73 117.5s71 61.167 117 81.5s98 30.5 156 30.5
s109.833 -10.167 155.5 -30.5s84.5 -47.5 116.5 -81.5s56.333 -73.167 73 -117.5s25 -90.5 25 -138.5s-8.33301 -94.167 -25 -138.5s-41 -83.5 -73 -117.5s-70.833 -61.167 -116.5 -81.5s-97.5 -30.5 -155.5 -30.5zM403 128c32 0 60.667 6.16699 86 18.5
s46.833 28.833 64.5 49.5s31.167 44.334 40.5 71.001s14 54.334 14 83.001s-4.66699 56.334 -14 83.001s-22.833 50.334 -40.5 71.001s-39.167 37.167 -64.5 49.5s-54 18.5 -86 18.5s-60.667 -6.16699 -86 -18.5s-46.833 -28.833 -64.5 -49.5s-31.167 -44.334 -40.5 -71.001
s-14 -54.334 -14 -83.001s4.66699 -56.334 14 -83.001s22.833 -50.334 40.5 -71.001s39.167 -37.167 64.5 -49.5s54 -18.5 86 -18.5z" />
    <glyph glyph-name="Otilde" unicode="&#xd5;" horiz-adv-x="805" 
d="M476 884c16.667 0 30.1689 4.5 40.502 13.5s20.166 19.833 29.499 32.5l80 -70c-18.667 -30 -40.667 -51.333 -66 -64s-51 -19 -77 -19c-18.667 0 -35.167 2.5 -49.5 7.5s-27.333 10.333 -39 16l-33 16c-10.333 5 -20.5 7.5 -30.5 7.5
c-16.667 0 -29.834 -4.33301 -39.501 -13s-19.167 -19.667 -28.5 -33l-78 77c18.667 27.333 40.167 46.833 64.5 58.5s49.5 17.5 75.5 17.5c18.667 0 35 -2.5 49 -7.5s26.833 -10.333 38.5 -16l32.5 -16c10 -5 20.333 -7.5 31 -7.5zM403.002 -18
c-58 0 -110 10.167 -156 30.5s-85 47.5 -117 81.5s-56.333 73.167 -73 117.5s-25 90.5 -25 138.5s8.33301 94.167 25 138.5s41 83.5 73 117.5s71 61.167 117 81.5s98 30.5 156 30.5s109.833 -10.167 155.5 -30.5s84.5 -47.5 116.5 -81.5s56.333 -73.167 73 -117.5
s25 -90.5 25 -138.5s-8.33301 -94.167 -25 -138.5s-41 -83.5 -73 -117.5s-70.833 -61.167 -116.5 -81.5s-97.5 -30.5 -155.5 -30.5zM403.002 128c32 0 60.667 6.16699 86 18.5s46.833 28.833 64.5 49.5s31.167 44.334 40.5 71.001s14 54.334 14 83.001
s-4.66699 56.334 -14 83.001s-22.833 50.334 -40.5 71.001s-39.167 37.167 -64.5 49.5s-54 18.5 -86 18.5s-60.667 -6.16699 -86 -18.5s-46.833 -28.833 -64.5 -49.5s-31.167 -44.334 -40.5 -71.001s-14 -54.334 -14 -83.001s4.66699 -56.334 14 -83.001
s22.833 -50.334 40.5 -71.001s39.167 -37.167 64.5 -49.5s54 -18.5 86 -18.5z" />
    <glyph glyph-name="Odieresis" unicode="&#xd6;" horiz-adv-x="805" 
d="M427 854c0 26 9 48.168 27 66.501s40.333 27.5 67 27.5c13.333 0 25.833 -2.5 37.5 -7.5s21.667 -11.667 30 -20s15 -18.333 20 -30s7.5 -23.834 7.5 -36.501s-2.5 -24.667 -7.5 -36s-11.667 -21.166 -20 -29.499s-18.333 -15 -30 -20s-24.167 -7.5 -37.5 -7.5
s-25.666 2.5 -36.999 7.5s-21.333 11.667 -30 20s-15.334 18.166 -20.001 29.499s-7 23.333 -7 36zM186 854.001c0 12.667 2.5 24.834 7.5 36.501s11.667 21.667 20 30s18.166 15 29.499 20s23.666 7.5 36.999 7.5s25.833 -2.5 37.5 -7.5s21.667 -11.667 30 -20
s15 -18.333 20 -30s7.5 -23.834 7.5 -36.501s-2.5 -24.667 -7.5 -36s-11.667 -21.166 -20 -29.499s-18.333 -15 -30 -20s-24.167 -7.5 -37.5 -7.5s-25.666 2.5 -36.999 7.5s-21.166 11.667 -29.499 20s-15 18.166 -20 29.499s-7.5 23.333 -7.5 36zM403 -17.999
c-58 0 -110 10.167 -156 30.5s-85 47.5 -117 81.5s-56.333 73.167 -73 117.5s-25 90.5 -25 138.5s8.33301 94.167 25 138.5s41 83.5 73 117.5s71 61.167 117 81.5s98 30.5 156 30.5s109.833 -10.167 155.5 -30.5s84.5 -47.5 116.5 -81.5s56.333 -73.167 73 -117.5
s25 -90.5 25 -138.5s-8.33301 -94.167 -25 -138.5s-41 -83.5 -73 -117.5s-70.833 -61.167 -116.5 -81.5s-97.5 -30.5 -155.5 -30.5zM198 350.001c0 -28.667 4.66699 -56.334 14 -83.001s22.833 -50.334 40.5 -71.001s39.167 -37.167 64.5 -49.5s54 -18.5 86 -18.5
s60.667 6.16699 86 18.5s46.833 28.833 64.5 49.5s31.167 44.334 40.5 71.001s14 54.334 14 83.001s-4.66699 56.334 -14 83.001s-22.833 50.334 -40.5 71.001s-39.167 37.167 -64.5 49.5s-54 18.5 -86 18.5s-60.667 -6.16699 -86 -18.5s-46.833 -28.833 -64.5 -49.5
s-31.167 -44.334 -40.5 -71.001s-14 -54.334 -14 -83.001z" />
    <glyph glyph-name="multiply" unicode="&#xd7;" 
d="M411 482l92 -92l-108 -108l106 -105l-87 -86l-105 104l-108 -107l-92 92l108 107l-105 105l86 87l105 -105z" />
    <glyph glyph-name="Oslash" unicode="&#xd8;" horiz-adv-x="805" 
d="M198 350c0 -34 6.5 -66.3311 19.5 -96.998s31.833 -56.667 56.5 -78l169 391c-12 4 -25.333 6 -40 6c-32 0 -60.667 -6.16699 -86 -18.5s-46.833 -28.833 -64.5 -49.5s-31.167 -44.334 -40.5 -71.001s-14 -54.334 -14 -83.001zM608 350.002
c0 36 -7.33203 69.8301 -21.999 101.497s-35.334 57.834 -62.001 78.501l-171 -396c7.33301 -2 15.5 -3.5 24.5 -4.5s17.5 -1.5 25.5 -1.5c32 0 60.667 6.16699 86 18.5s46.833 28.833 64.5 49.5s31.167 44.334 40.5 71.001s14 54.334 14 83.001zM403.001 -18.001
c-40 0 -77 5 -111 15l-39 -90l-81 36l38 88c-28.667 16 -54 35.5 -76 58.5s-40.5 48.333 -55.5 76s-26.5 57.167 -34.5 88.5s-12 63.333 -12 96c0 48 8.33301 94.167 25 138.5s41 83.5 73 117.5s71 61.167 117 81.5s98 30.5 156 30.5c18 0 35.5 -1.16699 52.5 -3.5
s33.167 -5.5 48.5 -9.5l37 84l81 -37l-34 -79c29.333 -16 55.5 -35.667 78.5 -59s42.333 -49 58 -77s27.667 -57.833 36 -89.5s12.5 -64.167 12.5 -97.5c0 -48 -8.33301 -94.167 -25 -138.5s-41 -83.5 -73 -117.5s-70.833 -61.167 -116.5 -81.5s-97.5 -30.5 -155.5 -30.5z
" />
    <glyph glyph-name="Ugrave" unicode="&#xd9;" horiz-adv-x="657" 
d="M176 868l48 106l276 -128l-48 -106zM56 700h162.001v-460c0 -16 2.66699 -31.167 8 -45.5s12.833 -26.833 22.5 -37.5s21.167 -19.167 34.5 -25.5s28.333 -9.5 45 -9.5s31.834 3.16699 45.501 9.5s25.334 14.833 35.001 25.5s17.167 23.167 22.5 37.5s8 29.5 8 45.5v460
h162v-461c0 -36 -6.33301 -69.667 -19 -101s-30.834 -58.5 -54.501 -81.5s-52.334 -41.167 -86.001 -54.5s-71.5 -20 -113.5 -20s-79.667 6.66699 -113 20s-61.833 31.5 -85.5 54.5s-41.834 50.167 -54.501 81.5s-19 65 -19 101v461z" />
    <glyph glyph-name="Uacute" unicode="&#xda;" horiz-adv-x="657" 
d="M198 740l-48 106l276 128l48 -106zM56 700h162.001v-460c0 -16 2.66699 -31.167 8 -45.5s12.833 -26.833 22.5 -37.5s21.167 -19.167 34.5 -25.5s28.333 -9.5 45 -9.5s31.834 3.16699 45.501 9.5s25.334 14.833 35.001 25.5s17.167 23.167 22.5 37.5s8 29.5 8 45.5v460
h162v-461c0 -36 -6.33301 -69.667 -19 -101s-30.834 -58.5 -54.501 -81.5s-52.334 -41.167 -86.001 -54.5s-71.5 -20 -113.5 -20s-79.667 6.66699 -113 20s-61.833 31.5 -85.5 54.5s-41.834 50.167 -54.501 81.5s-19 65 -19 101v461z" />
    <glyph glyph-name="Ucircumflex" unicode="&#xdb;" horiz-adv-x="657" 
d="M325 993l196 -164l-76 -84l-120 107l-119 -106l-77 83zM56 700h162.001v-460c0 -16 2.66699 -31.167 8 -45.5s12.833 -26.833 22.5 -37.5s21.167 -19.167 34.5 -25.5s28.333 -9.5 45 -9.5s31.834 3.16699 45.501 9.5s25.334 14.833 35.001 25.5s17.167 23.167 22.5 37.5
s8 29.5 8 45.5v460h162v-461c0 -36 -6.33301 -69.667 -19 -101s-30.834 -58.5 -54.501 -81.5s-52.334 -41.167 -86.001 -54.5s-71.5 -20 -113.5 -20s-79.667 6.66699 -113 20s-61.833 31.5 -85.5 54.5s-41.834 50.167 -54.501 81.5s-19 65 -19 101v461z" />
    <glyph glyph-name="Udieresis" unicode="&#xdc;" horiz-adv-x="657" 
d="M111 852c0 12.667 2.5 24.834 7.5 36.501s11.667 21.667 20 30s18.166 15 29.499 20s23.666 7.5 36.999 7.5s25.833 -2.5 37.5 -7.5s21.667 -11.667 30 -20s15 -18.333 20 -30s7.5 -23.834 7.5 -36.501s-2.5 -24.667 -7.5 -36s-11.667 -21.166 -20 -29.499
s-18.333 -15 -30 -20s-24.167 -7.5 -37.5 -7.5s-25.666 2.5 -36.999 7.5s-21.166 11.667 -29.499 20s-15 18.166 -20 29.499s-7.5 23.333 -7.5 36zM352 852c0 26 9 48.168 27 66.501s40.333 27.5 67 27.5c13.333 0 25.833 -2.5 37.5 -7.5s21.667 -11.667 30 -20
s15 -18.333 20 -30s7.5 -23.834 7.5 -36.501s-2.5 -24.667 -7.5 -36s-11.667 -21.166 -20 -29.499s-18.333 -15 -30 -20s-24.167 -7.5 -37.5 -7.5s-25.666 2.5 -36.999 7.5s-21.333 11.667 -30 20s-15.334 18.166 -20.001 29.499s-7 23.333 -7 36zM56 700.001h162.001v-460
c0 -16 2.66699 -31.167 8 -45.5s12.833 -26.833 22.5 -37.5s21.167 -19.167 34.5 -25.5s28.333 -9.5 45 -9.5s31.834 3.16699 45.501 9.5s25.334 14.833 35.001 25.5s17.167 23.167 22.5 37.5s8 29.5 8 45.5v460h162v-461c0 -36 -6.33301 -69.667 -19 -101
s-30.834 -58.5 -54.501 -81.5s-52.334 -41.167 -86.001 -54.5s-71.5 -20 -113.5 -20s-79.667 6.66699 -113 20s-61.833 31.5 -85.5 54.5s-41.834 50.167 -54.501 81.5s-19 65 -19 101v461z" />
    <glyph glyph-name="Yacute" unicode="&#xdd;" horiz-adv-x="641" 
d="M246 738l-48 105l276 128l48 -105zM302 0h-179l129 263l-248 437h189l149 -275l128 275h179z" />
    <glyph glyph-name="Thorn" unicode="&#xde;" horiz-adv-x="539" 
d="M64 700h148v-115h44c42 0 79.167 -6.66699 111.5 -20s59.5 -31 81.5 -53s38.667 -47.5 50 -76.5s17 -59.167 17 -90.5s-5.66699 -61.5 -17 -90.5s-28 -54.5 -50 -76.5s-49.167 -39.667 -81.5 -53s-69.5 -20 -111.5 -20h-44v-105h-148v700zM212 458v-226h44
c18 0 33.833 3.16699 47.5 9.5s25.167 14.666 34.5 24.999s16.5 22.333 21.5 36s7.5 27.834 7.5 42.501s-2.5 28.834 -7.5 42.501s-12.167 25.667 -21.5 36s-20.833 18.666 -34.5 24.999s-29.5 9.5 -47.5 9.5h-44z" />
    <glyph glyph-name="germandbls" unicode="&#xdf;" horiz-adv-x="593" 
d="M241 119c10 -2.66699 21.167 -4.66309 33.5 -5.99609s21.5 -2 27.5 -2c12.667 0 24.834 2.16699 36.501 6.5s22 10.5 31 18.5s16.167 18.167 21.5 30.5s8 26.5 8 42.5c0 10.667 -2 21.667 -6 33s-10 21.666 -18 30.999s-18.333 17 -31 23s-27.667 9 -45 9h-29v122h27
c33.333 0 57 8.66699 71 26s21 38 21 62c0 26 -8.83301 46.167 -26.5 60.5s-38.5 21.5 -62.5 21.5c-28 0 -49.667 -9.66699 -65 -29s-23 -45 -23 -77v-491h-158v491c0 30 4.83301 58.5 14.5 85.5s24.5 50.667 44.5 71s45.5 36.666 76.5 48.999s68.167 18.5 111.5 18.5
c32 0 62.667 -4 92 -12s55.166 -20.167 77.499 -36.5s40.333 -36.833 54 -61.5s20.5 -53.334 20.5 -86.001c0 -41.333 -10.667 -74.833 -32 -100.5s-47 -43.834 -77 -54.501c16 -6 31.167 -14.167 45.5 -24.5s27 -22.666 38 -36.999s19.833 -30.5 26.5 -48.5
s10 -37.333 10 -58c0 -34.667 -6 -65 -18 -91s-28 -47.833 -48 -65.5s-43.5 -30.834 -70.5 -39.501s-55.5 -13 -85.5 -13c-22 0 -40.5 1.33301 -55.5 4s-27.5 5.66699 -37.5 9v119z" />
    <glyph glyph-name="agrave" unicode="&#xe0;" horiz-adv-x="635" 
d="M120 637l48 106l276 -128l-48 -106zM302 118c17.333 0 33 3.33301 47 10s26 15.5 36 26.5s17.833 24 23.5 39s8.5 30.833 8.5 47.5s-2.83301 32.334 -8.5 47.001s-13.5 27.667 -23.5 39s-22 20.333 -36 27s-29.667 10 -47 10s-33 -3.33301 -47 -10s-26 -15.667 -36 -27
s-17.833 -24.333 -23.5 -39s-8.5 -30.334 -8.5 -47.001s2.83301 -32.5 8.5 -47.5s13.5 -28 23.5 -39s22 -19.833 36 -26.5s29.667 -10 47 -10zM570 482v-482.001h-153v68c-6 -11.333 -14 -21.833 -24 -31.5s-21.5 -18 -34.5 -25s-27.167 -12.667 -42.5 -17
s-30.666 -6.5 -45.999 -6.5c-34.667 0 -66.5 6.5 -95.5 19.5s-53.833 30.667 -74.5 53s-36.667 49 -48 80s-17 64.5 -17 100.5s5.66699 69.5 17 100.5s27.333 57.667 48 80s45.5 40 74.5 53s60.833 19.5 95.5 19.5c15.333 0 30.666 -2.16699 45.999 -6.5
s29.5 -10.166 42.5 -17.499s24.5 -16 34.5 -26s18 -20.333 24 -31v69h153z" />
    <glyph glyph-name="aacute" unicode="&#xe1;" horiz-adv-x="635" 
d="M172 509l-49 106l276 128l49 -106zM302 118c17.333 0 33 3.33301 47 10s26 15.5 36 26.5s17.833 24 23.5 39s8.5 30.833 8.5 47.5s-2.83301 32.334 -8.5 47.001s-13.5 27.667 -23.5 39s-22 20.333 -36 27s-29.667 10 -47 10s-33 -3.33301 -47 -10s-26 -15.667 -36 -27
s-17.833 -24.333 -23.5 -39s-8.5 -30.334 -8.5 -47.001s2.83301 -32.5 8.5 -47.5s13.5 -28 23.5 -39s22 -19.833 36 -26.5s29.667 -10 47 -10zM570 482v-482.001h-153v68c-6 -11.333 -14 -21.833 -24 -31.5s-21.5 -18 -34.5 -25s-27.167 -12.667 -42.5 -17
s-30.666 -6.5 -45.999 -6.5c-34.667 0 -66.5 6.5 -95.5 19.5s-53.833 30.667 -74.5 53s-36.667 49 -48 80s-17 64.5 -17 100.5s5.66699 69.5 17 100.5s27.333 57.667 48 80s45.5 40 74.5 53s60.833 19.5 95.5 19.5c15.333 0 30.666 -2.16699 45.999 -6.5
s29.5 -10.166 42.5 -17.499s24.5 -16 34.5 -26s18 -20.333 24 -31v69h153z" />
    <glyph glyph-name="acircumflex" unicode="&#xe2;" horiz-adv-x="635" 
d="M313 781l197 -164l-76 -84l-120 107l-119 -106l-77 83zM302 118c17.333 0 33 3.33301 47 10s26 15.5 36 26.5s17.833 24 23.5 39s8.5 30.833 8.5 47.5s-2.83301 32.334 -8.5 47.001s-13.5 27.667 -23.5 39s-22 20.333 -36 27s-29.667 10 -47 10s-33 -3.33301 -47 -10
s-26 -15.667 -36 -27s-17.833 -24.333 -23.5 -39s-8.5 -30.334 -8.5 -47.001s2.83301 -32.5 8.5 -47.5s13.5 -28 23.5 -39s22 -19.833 36 -26.5s29.667 -10 47 -10zM570 482v-482.001h-153v68c-6 -11.333 -14 -21.833 -24 -31.5s-21.5 -18 -34.5 -25
s-27.167 -12.667 -42.5 -17s-30.666 -6.5 -45.999 -6.5c-34.667 0 -66.5 6.5 -95.5 19.5s-53.833 30.667 -74.5 53s-36.667 49 -48 80s-17 64.5 -17 100.5s5.66699 69.5 17 100.5s27.333 57.667 48 80s45.5 40 74.5 53s60.833 19.5 95.5 19.5
c15.333 0 30.666 -2.16699 45.999 -6.5s29.5 -10.166 42.5 -17.499s24.5 -16 34.5 -26s18 -20.333 24 -31v69h153z" />
    <glyph glyph-name="atilde" unicode="&#xe3;" horiz-adv-x="635" 
d="M397 680c16.667 0 30.167 4.33301 40.5 13s19.833 19.667 28.5 33l81 -71c-18.667 -29.333 -40.667 -50.5 -66 -63.5s-51 -19.5 -77 -19.5c-18.667 0 -35.167 2.5 -49.5 7.5s-27.333 10.333 -39 16l-33 16c-10.333 5 -20.5 7.5 -30.5 7.5c-16.667 0 -30 -4.33301 -40 -13
s-19.667 -19.667 -29 -33l-78 77c19.333 27.333 41 46.833 65 58.5s49.333 17.5 76 17.5c18.667 0 35 -2.33301 49 -7s26.833 -10 38.5 -16s22.5 -11.333 32.5 -16s20.333 -7 31 -7zM302 118c17.333 0 33 3.33301 47 10s26 15.5 36 26.5s17.833 24 23.5 39
s8.5 30.833 8.5 47.5s-2.83301 32.334 -8.5 47.001s-13.5 27.667 -23.5 39s-22 20.333 -36 27s-29.667 10 -47 10s-33 -3.33301 -47 -10s-26 -15.667 -36 -27s-17.833 -24.333 -23.5 -39s-8.5 -30.334 -8.5 -47.001s2.83301 -32.5 8.5 -47.5s13.5 -28 23.5 -39
s22 -19.833 36 -26.5s29.667 -10 47 -10zM570 482v-482.001h-153v68c-6 -11.333 -14 -21.833 -24 -31.5s-21.5 -18 -34.5 -25s-27.167 -12.667 -42.5 -17s-30.666 -6.5 -45.999 -6.5c-34.667 0 -66.5 6.5 -95.5 19.5s-53.833 30.667 -74.5 53s-36.667 49 -48 80
s-17 64.5 -17 100.5s5.66699 69.5 17 100.5s27.333 57.667 48 80s45.5 40 74.5 53s60.833 19.5 95.5 19.5c15.333 0 30.666 -2.16699 45.999 -6.5s29.5 -10.166 42.5 -17.499s24.5 -16 34.5 -26s18 -20.333 24 -31v69h153z" />
    <glyph glyph-name="adieresis" unicode="&#xe4;" horiz-adv-x="635" 
d="M179 537c-13.333 0 -25.666 2.5 -36.999 7.5s-21.166 11.667 -29.499 20s-15 18.166 -20 29.499s-7.5 23.333 -7.5 36s2.5 24.834 7.5 36.501s11.667 21.667 20 30s18.166 15 29.499 20s23.666 7.5 36.999 7.5s25.833 -2.5 37.5 -7.5s21.667 -11.667 30 -20
s15 -18.333 20 -30s7.5 -23.834 7.5 -36.501s-2.5 -24.667 -7.5 -36s-11.667 -21.166 -20 -29.499s-18.333 -15 -30 -20s-24.167 -7.5 -37.5 -7.5zM420 537c-13.333 0 -25.666 2.50098 -36.999 7.50098s-21.333 11.667 -30 20s-15.334 18.166 -20.001 29.499
s-7 23.333 -7 36c0 26 9 48.167 27 66.5s40.333 27.5 67 27.5c13.333 0 25.833 -2.5 37.5 -7.5s21.667 -11.667 30 -20s15 -18.333 20 -30s7.5 -23.834 7.5 -36.501s-2.5 -24.667 -7.5 -36s-11.667 -21.166 -20 -29.499s-18.333 -15 -30 -20s-24.167 -7.5 -37.5 -7.5z
M302 118.001c17.333 0 33 3.33301 47 10s26 15.5 36 26.5s17.833 24 23.5 39s8.5 30.833 8.5 47.5s-2.83301 32.334 -8.5 47.001s-13.5 27.667 -23.5 39s-22 20.333 -36 27s-29.667 10 -47 10s-33 -3.33301 -47 -10s-26 -15.667 -36 -27s-17.833 -24.333 -23.5 -39
s-8.5 -30.334 -8.5 -47.001s2.83301 -32.5 8.5 -47.5s13.5 -28 23.5 -39s22 -19.833 36 -26.5s29.667 -10 47 -10zM417 0.000976562v67.999c-6 -11.333 -14 -21.833 -24 -31.5s-21.5 -18 -34.5 -25s-27.167 -12.667 -42.5 -17s-30.666 -6.5 -45.999 -6.5
c-34.667 0 -66.5 6.5 -95.5 19.5s-53.833 30.667 -74.5 53s-36.667 49 -48 80s-17 64.5 -17 100.5s5.66699 69.5 17 100.5s27.333 57.667 48 80s45.5 40 74.5 53s60.833 19.5 95.5 19.5c15.333 0 30.666 -2.16699 45.999 -6.5s29.5 -10.166 42.5 -17.499s24.5 -16 34.5 -26
s18 -20.333 24 -31v69h153v-482h-153z" />
    <glyph glyph-name="aring" unicode="&#xe5;" horiz-adv-x="635" 
d="M307 528c-19.333 0 -37.333 3.66797 -54 11.001s-31.167 17.333 -43.5 30s-22.166 27.334 -29.499 44.001s-11 34.334 -11 53.001c0 19.333 3.66699 37.333 11 54s17.166 31.334 29.499 44.001s26.833 22.5 43.5 29.5s34.667 10.5 54 10.5s37.333 -3.66699 54 -11
s31.334 -17.333 44.001 -30s22.5 -27.334 29.5 -44.001s10.5 -34.334 10.5 -53.001s-3.5 -36.334 -10.5 -53.001s-16.833 -31.334 -29.5 -44.001s-27.334 -22.667 -44.001 -30s-34.667 -11 -54 -11zM307 726.001c-16.667 0 -30.5 -5.83301 -41.5 -17.5
s-16.5 -25.834 -16.5 -42.501c0 -15.333 5.66699 -28.666 17 -39.999s25 -17 41 -17s29.667 5.66699 41 17s17 25.333 17 42c0 15.333 -5.33301 28.833 -16 40.5s-24.667 17.5 -42 17.5zM302 118.001c17.333 0 33 3.33301 47 10s26 15.5 36 26.5s17.833 24 23.5 39
s8.5 30.833 8.5 47.5s-2.83301 32.334 -8.5 47.001s-13.5 27.667 -23.5 39s-22 20.333 -36 27s-29.667 10 -47 10s-33 -3.33301 -47 -10s-26 -15.667 -36 -27s-17.833 -24.333 -23.5 -39s-8.5 -30.334 -8.5 -47.001s2.83301 -32.5 8.5 -47.5s13.5 -28 23.5 -39
s22 -19.833 36 -26.5s29.667 -10 47 -10zM570 482.001v-482.001h-153v68c-6 -11.333 -14 -21.833 -24 -31.5s-21.5 -18 -34.5 -25s-27.167 -12.667 -42.5 -17s-30.666 -6.5 -45.999 -6.5c-34.667 0 -66.5 6.5 -95.5 19.5s-53.833 30.667 -74.5 53s-36.667 49 -48 80
s-17 64.5 -17 100.5s5.66699 69.5 17 100.5s27.333 57.667 48 80s45.5 40 74.5 53s60.833 19.5 95.5 19.5c15.333 0 30.666 -2.16699 45.999 -6.5s29.5 -10.166 42.5 -17.499s24.5 -16 34.5 -26s18 -20.333 24 -31v69h153z" />
    <glyph glyph-name="ae" unicode="&#xe6;" horiz-adv-x="961" 
d="M555 482l-0.00292969 -12c16.667 7.33301 34.834 13.333 54.501 18s41.167 7 64.5 7c38 0 72.167 -6 102.5 -18s56.333 -28 78 -48s38.334 -43.333 50.001 -70s17.5 -54.667 17.5 -84c0 -10 -0.166992 -20.667 -0.5 -32s-1.83301 -24.333 -4.5 -39h-346
c0 -14.667 2 -28.5 6 -41.5s10.167 -24.333 18.5 -34s19.166 -17.334 32.499 -23.001s29.666 -8.5 48.999 -8.5c26.667 0 46.834 5.33301 60.501 16s23.167 23.667 28.5 39h150c-4 -22.667 -12.167 -44 -24.5 -64s-28.666 -37.5 -48.999 -52.5s-44.333 -26.833 -72 -35.5
s-58.5 -13 -92.5 -13c-24 0 -46.167 2.33301 -66.5 7s-39.166 11 -56.499 19v-13h-138v68c-6 -11.333 -14 -21.833 -24 -31.5s-21.5 -18 -34.5 -25s-27.167 -12.667 -42.5 -17s-30.666 -6.5 -45.999 -6.5c-34.667 0 -66.5 6.5 -95.5 19.5s-53.833 30.667 -74.5 53
s-36.667 49 -48 80s-17 64.5 -17 100.5s5.66699 69.5 17 100.5s27.333 57.667 48 80s45.5 40 74.5 53s60.833 19.5 95.5 19.5c15.333 0 30.666 -2.16699 45.999 -6.5s29.5 -10.166 42.5 -17.499s24.5 -16 34.5 -26s18 -20.333 24 -31v69h138zM671.997 387
c-28 0 -51.5 -8.16699 -70.5 -24.5s-28.833 -39.833 -29.5 -70.5h199c0 28.667 -9 51.667 -27 69s-42 26 -72 26zM301.997 118c17.333 0 33 3.33496 47 10.002s26 15.5 36 26.5s17.833 24 23.5 39s8.5 30.833 8.5 47.5s-2.83301 32.5 -8.5 47.5s-13.5 28.167 -23.5 39.5
s-22.167 20.166 -36.5 26.499s-29.833 9.5 -46.5 9.5c-17.333 0 -33 -3.33301 -47 -10s-26 -15.667 -36 -27s-17.833 -24.333 -23.5 -39s-8.5 -30.334 -8.5 -47.001s2.83301 -32.5 8.5 -47.5s13.5 -28 23.5 -39s22 -19.833 36 -26.5s29.667 -10 47 -10z" />
    <glyph glyph-name="ccedilla" unicode="&#xe7;" horiz-adv-x="575" 
d="M237 -8c-33.333 6 -62.833 16.668 -88.5 32.001s-47 34.166 -64 56.499s-29.833 47.166 -38.5 74.499s-13 56 -13 86c0 33.333 5.5 65.333 16.5 96s27.5 57.667 49.5 81s49.167 42 81.5 56s69.5 21 111.5 21c40.667 0 76 -5.66699 106 -17s55.167 -26.333 75.5 -45
s36 -40.167 47 -64.5s17.833 -49.5 20.5 -75.5h-153c-3.33301 21.333 -12.166 38.666 -26.499 51.999s-37.166 20 -68.499 20c-18 0 -33.833 -3.33301 -47.5 -10s-24.834 -15.667 -33.501 -27s-15.167 -24.5 -19.5 -39.5s-6.5 -30.833 -6.5 -47.5s2.16699 -32.5 6.5 -47.5
s11 -28.167 20 -39.5s20.667 -20.333 35 -27s31.5 -10 51.5 -10c26.667 0 46.667 5.5 60 16.5s23.333 26.833 30 47.5h153c-4 -26 -11.5 -50.333 -22.5 -73s-26 -42.5 -45 -59.5s-41.667 -30.833 -68 -41.5s-56.833 -17 -91.5 -19v-42
c4.66699 4.66699 10.667 8.33398 18 11.001s16.666 4 27.999 4c22 0 40.667 -8 56 -24s23 -36.333 23 -61c0 -12.667 -2.33301 -24.834 -7 -36.501s-11.5 -22 -20.5 -31s-20.333 -16.333 -34 -22s-29.5 -8.5 -47.5 -8.5c-9.33301 0 -19.833 1.33301 -31.5 4
s-22.834 7.33398 -33.501 14.001s-20 15.834 -28 27.501s-13 26.167 -15 43.5h74c4 -17.333 15.333 -26 34 -26c10 0 18.333 3.33301 25 10s10 15 10 25c0 9.33301 -3.16699 17.333 -9.5 24s-14.166 10 -23.499 10c-14 0 -24.333 -5.66699 -31 -17h-65v99z" />
    <glyph glyph-name="egrave" unicode="&#xe8;" horiz-adv-x="577" 
d="M149 637l48 106l276 -128l-48 -106zM186 204c0.666992 -14.667 2.83008 -28.499 6.49707 -41.499s9.66699 -24.333 18 -34s19.166 -17.334 32.499 -23.001s30 -8.5 50 -8.5c26.667 0 46.834 5.33301 60.501 16s23.167 23.667 28.5 39h150
c-3.33301 -22.667 -11.166 -44 -23.499 -64s-28.666 -37.5 -48.999 -52.5s-44.333 -26.833 -72 -35.5s-58.834 -13 -93.501 -13c-42 0 -79.167 6.16699 -111.5 18.5s-59.5 29.833 -81.5 52.5s-38.667 49.5 -50 80.5s-17 65.167 -17 102.5c0 35.333 5.5 68.333 16.5 99
s27.333 57.5 49 80.5s48.334 41.167 80.001 54.5s68.5 20 110.5 20c38 0 72.167 -6 102.5 -18s56.333 -28 78 -48s38.334 -43.333 50.001 -70s17.5 -54.667 17.5 -84c0 -10 -0.166992 -20.667 -0.5 -32s-1.83301 -24.333 -4.5 -39h-347zM288.996 393.001
c-30 0 -54.668 -8.66699 -74.001 -26s-29 -42.333 -29 -75h202c0 31.333 -9.16699 56 -27.5 74s-42.166 27 -71.499 27z" />
    <glyph glyph-name="eacute" unicode="&#xe9;" horiz-adv-x="577" 
d="M168 509l-48 106l276 128l48 -106zM186 204c0.666992 -14.667 2.83008 -28.499 6.49707 -41.499s9.66699 -24.333 18 -34s19.166 -17.334 32.499 -23.001s30 -8.5 50 -8.5c26.667 0 46.834 5.33301 60.501 16s23.167 23.667 28.5 39h150
c-3.33301 -22.667 -11.166 -44 -23.499 -64s-28.666 -37.5 -48.999 -52.5s-44.333 -26.833 -72 -35.5s-58.834 -13 -93.501 -13c-42 0 -79.167 6.16699 -111.5 18.5s-59.5 29.833 -81.5 52.5s-38.667 49.5 -50 80.5s-17 65.167 -17 102.5c0 35.333 5.5 68.333 16.5 99
s27.333 57.5 49 80.5s48.334 41.167 80.001 54.5s68.5 20 110.5 20c38 0 72.167 -6 102.5 -18s56.333 -28 78 -48s38.334 -43.333 50.001 -70s17.5 -54.667 17.5 -84c0 -10 -0.166992 -20.667 -0.5 -32s-1.83301 -24.333 -4.5 -39h-347zM288.996 393.001
c-30 0 -54.668 -8.66699 -74.001 -26s-29 -42.333 -29 -75h202c0 31.333 -9.16699 56 -27.5 74s-42.166 27 -71.499 27z" />
    <glyph glyph-name="ecircumflex" unicode="&#xea;" horiz-adv-x="577" 
d="M292 781l197 -164l-76 -84l-120 107l-120 -106l-76 83zM186 204c0.666992 -14.667 2.83008 -28.499 6.49707 -41.499s9.66699 -24.333 18 -34s19.166 -17.334 32.499 -23.001s30 -8.5 50 -8.5c26.667 0 46.834 5.33301 60.501 16s23.167 23.667 28.5 39h150
c-3.33301 -22.667 -11.166 -44 -23.499 -64s-28.666 -37.5 -48.999 -52.5s-44.333 -26.833 -72 -35.5s-58.834 -13 -93.501 -13c-42 0 -79.167 6.16699 -111.5 18.5s-59.5 29.833 -81.5 52.5s-38.667 49.5 -50 80.5s-17 65.167 -17 102.5c0 35.333 5.5 68.333 16.5 99
s27.333 57.5 49 80.5s48.334 41.167 80.001 54.5s68.5 20 110.5 20c38 0 72.167 -6 102.5 -18s56.333 -28 78 -48s38.334 -43.333 50.001 -70s17.5 -54.667 17.5 -84c0 -10 -0.166992 -20.667 -0.5 -32s-1.83301 -24.333 -4.5 -39h-347zM288.996 393.001
c-30 0 -54.668 -8.66699 -74.001 -26s-29 -42.333 -29 -75h202c0 31.333 -9.16699 56 -27.5 74s-42.166 27 -71.499 27z" />
    <glyph glyph-name="edieresis" unicode="&#xeb;" horiz-adv-x="577" 
d="M73 630c0 26 9 48.168 27 66.501s40.333 27.5 67 27.5c13.333 0 25.833 -2.5 37.5 -7.5s21.667 -11.667 30 -20s15 -18.333 20 -30s7.5 -23.834 7.5 -36.501s-2.5 -24.667 -7.5 -36s-11.667 -21.166 -20 -29.499s-18.333 -15 -30 -20s-24.167 -7.5 -37.5 -7.5
s-25.666 2.5 -36.999 7.5s-21.333 11.667 -30 20s-15.334 18.166 -20.001 29.499s-7 23.333 -7 36zM313 630.001c0 12.667 2.5 24.834 7.5 36.501s11.667 21.667 20 30s18.166 15 29.499 20s23.666 7.5 36.999 7.5s25.833 -2.5 37.5 -7.5s21.667 -11.667 30 -20
s15 -18.333 20 -30s7.5 -23.834 7.5 -36.501s-2.5 -24.667 -7.5 -36s-11.667 -21.166 -20 -29.499s-18.333 -15 -30 -20s-24.167 -7.5 -37.5 -7.5s-25.666 2.5 -36.999 7.5s-21.166 11.667 -29.499 20s-15 18.166 -20 29.499s-7.5 23.333 -7.5 36zM186 204.001
c0.666992 -14.667 2.83008 -28.499 6.49707 -41.499s9.66699 -24.333 18 -34s19.166 -17.334 32.499 -23.001s30 -8.5 50 -8.5c26.667 0 46.834 5.33301 60.501 16s23.167 23.667 28.5 39h150c-3.33301 -22.667 -11.166 -44 -23.499 -64s-28.666 -37.5 -48.999 -52.5
s-44.333 -26.833 -72 -35.5s-58.834 -13 -93.501 -13c-42 0 -79.167 6.16699 -111.5 18.5s-59.5 29.833 -81.5 52.5s-38.667 49.5 -50 80.5s-17 65.167 -17 102.5c0 35.333 5.5 68.333 16.5 99s27.333 57.5 49 80.5s48.334 41.167 80.001 54.5s68.5 20 110.5 20
c38 0 72.167 -6 102.5 -18s56.333 -28 78 -48s38.334 -43.333 50.001 -70s17.5 -54.667 17.5 -84c0 -10 -0.166992 -20.667 -0.5 -32s-1.83301 -24.333 -4.5 -39h-347zM288.996 393.002c-30 0 -54.668 -8.66699 -74.001 -26s-29 -42.333 -29 -75h202
c0 31.333 -9.16699 56 -27.5 74s-42.166 27 -71.499 27z" />
    <glyph glyph-name="igrave" unicode="&#xec;" horiz-adv-x="283" 
d="M-20 650l48 106l276 -128l-48 -106zM65 482h153v-482h-153v482z" />
    <glyph glyph-name="iacute" unicode="&#xed;" horiz-adv-x="283" 
d="M28 522l-48 106l276 128l48 -106zM65 482h153v-482h-153v482z" />
    <glyph glyph-name="icircumflex" unicode="&#xee;" horiz-adv-x="283" 
d="M142 781l196 -164l-76 -84l-120 107l-119 -106l-77 83zM65 482h153v-482h-153v482z" />
    <glyph glyph-name="idieresis" unicode="&#xef;" horiz-adv-x="283" 
d="M-54 630c0 12.667 2.5 24.834 7.5 36.501s11.667 21.667 20 30s18.166 15 29.499 20s23.666 7.5 36.999 7.5s25.833 -2.5 37.5 -7.5s21.834 -11.667 30.501 -20s15.5 -18.333 20.5 -30s7.5 -23.834 7.5 -36.501s-2.5 -24.667 -7.5 -36s-11.833 -21.166 -20.5 -29.499
s-18.834 -15 -30.501 -20s-24.167 -7.5 -37.5 -7.5s-25.666 2.5 -36.999 7.5s-21.166 11.667 -29.499 20s-15 18.166 -20 29.499s-7.5 23.333 -7.5 36zM160 630c0 12.667 2.5 24.834 7.5 36.501s11.667 21.667 20 30s18.166 15 29.499 20s23.666 7.5 36.999 7.5
s25.833 -2.5 37.5 -7.5s21.667 -11.667 30 -20s15 -18.333 20 -30s7.5 -23.834 7.5 -36.501s-2.5 -24.667 -7.5 -36s-11.667 -21.166 -20 -29.499s-18.333 -15 -30 -20s-24.167 -7.5 -37.5 -7.5s-25.666 2.5 -36.999 7.5s-21.166 11.667 -29.499 20s-15 18.166 -20 29.499
s-7.5 23.333 -7.5 36zM65 482h153v-482h-153v482z" />
    <glyph glyph-name="eth" unicode="&#xf0;" horiz-adv-x="596" 
d="M297 -15c-41.333 0 -78.499 6.83398 -111.499 20.501s-61 32 -84 55s-40.667 49.833 -53 80.5s-18.5 63.334 -18.5 98.001c0 32.667 5.5 63.667 16.5 93s26.667 55.166 47 77.499s45.166 40.666 74.499 54.999s62.333 22.833 99 25.5h6l-33 51l-97 -47l-35 76l85 41
l-67 106h182l27 -45l83 40l35 -74l-72 -36l141 -218c13.333 -21.333 23.833 -44.166 31.5 -68.499s11.5 -49.833 11.5 -76.5c0 -34.667 -6.16699 -67.334 -18.5 -98.001s-30 -57.5 -53 -80.5s-51 -41.333 -84 -55s-70.5 -20.5 -112.5 -20.5zM297.001 116.001
c17.333 0 33.166 3.33301 47.499 10s26.5 15.5 36.5 26.5s17.833 24 23.5 39s8.5 30.833 8.5 47.5s-2.83301 32.5 -8.5 47.5s-13.5 28.167 -23.5 39.5s-22.167 20.166 -36.5 26.499s-30.166 9.5 -47.499 9.5s-33 -3.16699 -47 -9.5s-26 -15.166 -36 -26.499
s-17.667 -24.5 -23 -39.5s-8 -30.833 -8 -47.5s2.66699 -32.5 8 -47.5s13 -28 23 -39s22 -19.833 36 -26.5s29.667 -10 47 -10z" />
    <glyph glyph-name="ntilde" unicode="&#xf1;" horiz-adv-x="607" 
d="M381 680c16.667 0 30.167 4.33301 40.5 13s19.833 19.667 28.5 33l81 -71c-18.667 -29.333 -40.667 -50.5 -66 -63.5s-51 -19.5 -77 -19.5c-18.667 0 -35.167 2.5 -49.5 7.5s-27.333 10.333 -39 16l-33 16c-10.333 5 -20.5 7.5 -30.5 7.5c-16.667 0 -30 -4.33301 -40 -13
s-19.667 -19.667 -29 -33l-78 77c19.333 27.333 41 46.833 65 58.5s49.333 17.5 76 17.5c18.667 0 35 -2.33301 49 -7s26.833 -10 38.5 -16s22.5 -11.333 32.5 -16s20.333 -7 31 -7zM65 482l152.999 -0.000976562v-70c13.333 26 33.5 46.167 60.5 60.5s59.5 21.5 97.5 21.5
c31.333 0 58.333 -4.83301 81 -14.5s40.667 -23.167 54 -40.5c15.333 -18.667 25.5 -40.167 30.5 -64.5s7.5 -53.833 7.5 -88.5v-286h-153v247c0 34.667 -6.16699 62.834 -18.5 84.501s-34.5 32.5 -66.5 32.5c-31.333 0 -54.666 -11 -69.999 -33s-23 -51.667 -23 -89v-242
h-153v482z" />
    <glyph glyph-name="ograve" unicode="&#xf2;" horiz-adv-x="599" 
d="M147 637l48 106l276 -128l-48 -106zM299 -13c-41.333 0 -78.5 6.83301 -111.5 20.5s-61 32 -84 55s-40.667 49.833 -53 80.5s-18.5 63.334 -18.5 98.001s6.16699 67.334 18.5 98.001s30 57.5 53 80.5s51 41.333 84 55s70.167 20.5 111.5 20.5
c42 0 79.5 -6.83301 112.5 -20.5s61 -32 84 -55s40.667 -49.833 53 -80.5s18.5 -63.334 18.5 -98.001s-6.16699 -67.334 -18.5 -98.001s-30 -57.5 -53 -80.5s-51 -41.333 -84 -55s-70.5 -20.5 -112.5 -20.5zM299 118c17.333 0 33.166 3.16699 47.499 9.5
s26.5 15.166 36.5 26.499s17.833 24.333 23.5 39s8.5 30.667 8.5 48c0 16.667 -2.83301 32.5 -8.5 47.5s-13.5 28 -23.5 39s-22.167 19.833 -36.5 26.5s-30.166 10 -47.499 10s-33 -3.33301 -47 -10s-26 -15.5 -36 -26.5s-17.667 -24 -23 -39s-8 -30.833 -8 -47.5
c0 -17.333 2.66699 -33.333 8 -48s13 -27.667 23 -39s22 -20.166 36 -26.499s29.667 -9.5 47 -9.5z" />
    <glyph glyph-name="oacute" unicode="&#xf3;" horiz-adv-x="599" 
d="M163 509l-49 106l276 128l49 -106zM299 -13c-41.333 0 -78.5 6.83301 -111.5 20.5s-61 32 -84 55s-40.667 49.833 -53 80.5s-18.5 63.334 -18.5 98.001s6.16699 67.334 18.5 98.001s30 57.5 53 80.5s51 41.333 84 55s70.167 20.5 111.5 20.5
c42 0 79.5 -6.83301 112.5 -20.5s61 -32 84 -55s40.667 -49.833 53 -80.5s18.5 -63.334 18.5 -98.001s-6.16699 -67.334 -18.5 -98.001s-30 -57.5 -53 -80.5s-51 -41.333 -84 -55s-70.5 -20.5 -112.5 -20.5zM299 118c17.333 0 33.166 3.16699 47.499 9.5
s26.5 15.166 36.5 26.499s17.833 24.333 23.5 39s8.5 30.667 8.5 48c0 16.667 -2.83301 32.5 -8.5 47.5s-13.5 28 -23.5 39s-22.167 19.833 -36.5 26.5s-30.166 10 -47.499 10s-33 -3.33301 -47 -10s-26 -15.5 -36 -26.5s-17.667 -24 -23 -39s-8 -30.833 -8 -47.5
c0 -17.333 2.66699 -33.333 8 -48s13 -27.667 23 -39s22 -20.166 36 -26.499s29.667 -9.5 47 -9.5z" />
    <glyph glyph-name="ocircumflex" unicode="&#xf4;" horiz-adv-x="599" 
d="M298 781l197 -164l-76 -84l-120 107l-119 -106l-77 83zM299 -13c-41.333 0 -78.5 6.83301 -111.5 20.5s-61 32 -84 55s-40.667 49.833 -53 80.5s-18.5 63.334 -18.5 98.001s6.16699 67.334 18.5 98.001s30 57.5 53 80.5s51 41.333 84 55s70.167 20.5 111.5 20.5
c42 0 79.5 -6.83301 112.5 -20.5s61 -32 84 -55s40.667 -49.833 53 -80.5s18.5 -63.334 18.5 -98.001s-6.16699 -67.334 -18.5 -98.001s-30 -57.5 -53 -80.5s-51 -41.333 -84 -55s-70.5 -20.5 -112.5 -20.5zM299 118c17.333 0 33.166 3.16699 47.499 9.5
s26.5 15.166 36.5 26.499s17.833 24.333 23.5 39s8.5 30.667 8.5 48c0 16.667 -2.83301 32.5 -8.5 47.5s-13.5 28 -23.5 39s-22.167 19.833 -36.5 26.5s-30.166 10 -47.499 10s-33 -3.33301 -47 -10s-26 -15.5 -36 -26.5s-17.667 -24 -23 -39s-8 -30.833 -8 -47.5
c0 -17.333 2.66699 -33.333 8 -48s13 -27.667 23 -39s22 -20.166 36 -26.499s29.667 -9.5 47 -9.5z" />
    <glyph glyph-name="otilde" unicode="&#xf5;" horiz-adv-x="599" 
d="M370 680c16.667 0 30.168 4.33301 40.501 13s20.166 19.667 29.499 33l81 -71c-19.333 -29.333 -41.666 -50.5 -66.999 -63.5s-51 -19.5 -77 -19.5c-18.667 0 -35.167 2.5 -49.5 7.5s-27.333 10.333 -39 16l-33 16c-10.333 5 -20.5 7.5 -30.5 7.5
c-16.667 0 -29.834 -4.33301 -39.501 -13s-19.167 -19.667 -28.5 -33l-78 77c18.667 27.333 40.167 46.833 64.5 58.5s49.833 17.5 76.5 17.5c18.667 0 35 -2.33301 49 -7s26.833 -10 38.5 -16s22.5 -11.333 32.5 -16s20 -7 30 -7zM299.001 -13
c-41.333 0 -78.5 6.83301 -111.5 20.5s-61 32 -84 55s-40.667 49.833 -53 80.5s-18.5 63.334 -18.5 98.001s6.16699 67.334 18.5 98.001s30 57.5 53 80.5s51 41.333 84 55s70.167 20.5 111.5 20.5c42 0 79.5 -6.83301 112.5 -20.5s61 -32 84 -55s40.667 -49.833 53 -80.5
s18.5 -63.334 18.5 -98.001s-6.16699 -67.334 -18.5 -98.001s-30 -57.5 -53 -80.5s-51 -41.333 -84 -55s-70.5 -20.5 -112.5 -20.5zM299.001 118c17.333 0 33.166 3.16699 47.499 9.5s26.5 15.166 36.5 26.499s17.833 24.333 23.5 39s8.5 30.667 8.5 48
c0 16.667 -2.83301 32.5 -8.5 47.5s-13.5 28 -23.5 39s-22.167 19.833 -36.5 26.5s-30.166 10 -47.499 10s-33 -3.33301 -47 -10s-26 -15.5 -36 -26.5s-17.667 -24 -23 -39s-8 -30.833 -8 -47.5c0 -17.333 2.66699 -33.333 8 -48s13 -27.667 23 -39s22 -20.166 36 -26.499
s29.667 -9.5 47 -9.5z" />
    <glyph glyph-name="odieresis" unicode="&#xf6;" horiz-adv-x="599" 
d="M418 537c-13.333 0 -25.666 2.50098 -36.999 7.50098s-21.333 11.667 -30 20s-15.334 18.166 -20.001 29.499s-7 23.333 -7 36c0 26 9 48.167 27 66.5s40.333 27.5 67 27.5c13.333 0 25.833 -2.5 37.5 -7.5s21.667 -11.667 30 -20s15 -18.333 20 -30
s7.5 -23.834 7.5 -36.501s-2.5 -24.667 -7.5 -36s-11.667 -21.166 -20 -29.499s-18.333 -15 -30 -20s-24.167 -7.5 -37.5 -7.5zM177 537.001c-13.333 0 -25.666 2.5 -36.999 7.5s-21.166 11.667 -29.499 20s-15 18.166 -20 29.499s-7.5 23.333 -7.5 36
s2.5 24.834 7.5 36.501s11.667 21.667 20 30s18.166 15 29.499 20s23.666 7.5 36.999 7.5s25.833 -2.5 37.5 -7.5s21.667 -11.667 30 -20s15 -18.333 20 -30s7.5 -23.834 7.5 -36.501s-2.5 -24.667 -7.5 -36s-11.667 -21.166 -20 -29.499s-18.333 -15 -30 -20
s-24.167 -7.5 -37.5 -7.5zM567 241.001c0 -34.667 -6.16699 -67.334 -18.5 -98.001s-30 -57.5 -53 -80.5s-51 -41.333 -84 -55s-70.5 -20.5 -112.5 -20.5c-41.333 0 -78.5 6.83301 -111.5 20.5s-61 32 -84 55s-40.667 49.833 -53 80.5s-18.5 63.334 -18.5 98.001
s6.16699 67.334 18.5 98.001s30 57.5 53 80.5s51 41.333 84 55s70.167 20.5 111.5 20.5c42 0 79.5 -6.83301 112.5 -20.5s61 -32 84 -55s40.667 -49.833 53 -80.5s18.5 -63.334 18.5 -98.001zM185 241.001c0 -17.333 2.66699 -33.333 8 -48s13 -27.667 23 -39
s22 -20.166 36 -26.499s29.667 -9.5 47 -9.5s33.166 3.16699 47.499 9.5s26.5 15.166 36.5 26.499s17.833 24.333 23.5 39s8.5 30.667 8.5 48c0 16.667 -2.83301 32.5 -8.5 47.5s-13.5 28 -23.5 39s-22.167 19.833 -36.5 26.5s-30.166 10 -47.499 10s-33 -3.33301 -47 -10
s-26 -15.5 -36 -26.5s-17.667 -24 -23 -39s-8 -30.833 -8 -47.5z" />
    <glyph glyph-name="divide" unicode="&#xf7;" 
d="M212 437c0 12.667 2.5 24.834 7.5 36.501s11.667 21.667 20 30s18.166 15 29.499 20s23.666 7.5 36.999 7.5s25.833 -2.5 37.5 -7.5s21.667 -11.667 30 -20s15 -18.333 20 -30s7.5 -23.834 7.5 -36.501s-2.5 -24.667 -7.5 -36s-11.667 -21.166 -20 -29.499
s-18.333 -15 -30 -20s-24.167 -7.5 -37.5 -7.5s-25.666 2.5 -36.999 7.5s-21.166 11.667 -29.499 20s-15 18.166 -20 29.499s-7.5 23.333 -7.5 36zM93 190v122h427v-122h-427zM212 71c0 26 9.16504 48 27.498 66s40.5 27 66.5 27c26.667 0 49.167 -9 67.5 -27
s27.5 -40 27.5 -66c0 -12.667 -2.5 -24.667 -7.5 -36s-11.667 -21.166 -20 -29.499s-18.333 -15 -30 -20s-24.167 -7.5 -37.5 -7.5s-25.666 2.5 -36.999 7.5s-21.166 11.667 -29.499 20s-15 18.166 -20 29.499s-7.5 23.333 -7.5 36z" />
    <glyph glyph-name="oslash" unicode="&#xf8;" horiz-adv-x="599" 
d="M185 241c0 -18 3 -35 9 -51s14.667 -29.667 26 -41l93 213c-2.66699 0.666992 -5 1.16699 -7 1.5s-4.33301 0.5 -7 0.5c-17.333 0 -33 -3.33301 -47 -10s-26 -15.5 -36 -26.5s-17.667 -24 -23 -39s-8 -30.833 -8 -47.5zM299 118c17.333 0 33.168 3.16797 47.501 9.50098
s26.5 15.166 36.5 26.499s17.833 24.333 23.5 39s8.5 30.667 8.5 48c0 19.333 -3.5 37.333 -10.5 54s-17.167 30.667 -30.5 42l-95 -218c3.33301 -0.666992 6.66602 -1 9.99902 -1h10zM431.002 465.001c44 -21.333 77.668 -51.998 101.001 -91.998s35 -84 35 -132
c0 -34.667 -6.16699 -67.334 -18.5 -98.001s-30 -57.5 -53 -80.5s-51 -41.333 -84 -55s-70.5 -20.5 -112.5 -20.5c-26.667 0 -52 3 -76 9l-31 -74l-61 26l31 72c-42 21.333 -74.167 51.666 -96.5 90.999s-33.5 82.666 -33.5 129.999c0 34.667 6.16699 67.334 18.5 98.001
s30 57.5 53 80.5s51 41.333 84 55s70.167 20.5 111.5 20.5c12.667 0 24.667 -0.833008 36 -2.5s22.666 -3.5 33.999 -5.5l32 74l60 -26z" />
    <glyph glyph-name="ugrave" unicode="&#xf9;" horiz-adv-x="607" 
d="M146 637l48 106l276 -128l-48 -106zM542 0h-153v69c-13.333 -25.333 -33.5 -45.166 -60.5 -59.499s-59.5 -21.5 -97.5 -21.5c-31.333 0 -58.333 4.83301 -81 14.5s-40.667 23.167 -54 40.5c-15.333 18.667 -25.333 40.167 -30 64.5s-7 53.833 -7 88.5v286h152v-247
c0 -34.667 6.16699 -62.834 18.5 -84.501s34.5 -32.5 66.5 -32.5s55.5 11 70.5 33s22.5 51.667 22.5 89v242h153v-482z" />
    <glyph glyph-name="uacute" unicode="&#xfa;" horiz-adv-x="607" 
d="M190 509l-48 106l276 128l48 -106zM542 0h-153v69c-13.333 -25.333 -33.5 -45.166 -60.5 -59.499s-59.5 -21.5 -97.5 -21.5c-31.333 0 -58.333 4.83301 -81 14.5s-40.667 23.167 -54 40.5c-15.333 18.667 -25.333 40.167 -30 64.5s-7 53.833 -7 88.5v286h152v-247
c0 -34.667 6.16699 -62.834 18.5 -84.501s34.5 -32.5 66.5 -32.5s55.5 11 70.5 33s22.5 51.667 22.5 89v242h153v-482z" />
    <glyph glyph-name="ucircumflex" unicode="&#xfb;" horiz-adv-x="607" 
d="M305 781l197 -164l-76 -84l-120 107l-119 -106l-77 83zM542 0h-153v69c-13.333 -25.333 -33.5 -45.166 -60.5 -59.499s-59.5 -21.5 -97.5 -21.5c-31.333 0 -58.333 4.83301 -81 14.5s-40.667 23.167 -54 40.5c-15.333 18.667 -25.333 40.167 -30 64.5s-7 53.833 -7 88.5
v286h152v-247c0 -34.667 6.16699 -62.834 18.5 -84.501s34.5 -32.5 66.5 -32.5s55.5 11 70.5 33s22.5 51.667 22.5 89v242h153v-482z" />
    <glyph glyph-name="udieresis" unicode="&#xfc;" horiz-adv-x="607" 
d="M83 630c0 12.667 2.5 24.834 7.5 36.501s11.667 21.667 20 30s18.166 15 29.499 20s23.666 7.5 36.999 7.5s25.833 -2.5 37.5 -7.5s21.834 -11.667 30.501 -20s15.5 -18.333 20.5 -30s7.5 -23.834 7.5 -36.501s-2.5 -24.667 -7.5 -36s-11.833 -21.166 -20.5 -29.499
s-18.834 -15 -30.501 -20s-24.167 -7.5 -37.5 -7.5s-25.666 2.5 -36.999 7.5s-21.166 11.667 -29.499 20s-15 18.166 -20 29.499s-7.5 23.333 -7.5 36zM324 630c0 26 9 48.168 27 66.501s40.333 27.5 67 27.5c13.333 0 25.833 -2.5 37.5 -7.5s21.667 -11.667 30 -20
s15 -18.333 20 -30s7.5 -23.834 7.5 -36.501s-2.5 -24.667 -7.5 -36s-11.667 -21.166 -20 -29.499s-18.333 -15 -30 -20s-24.167 -7.5 -37.5 -7.5s-25.666 2.5 -36.999 7.5s-21.333 11.667 -30 20s-15.334 18.166 -20.001 29.499s-7 23.333 -7 36zM542 0.000976562h-153v69
c-13.333 -25.333 -33.5 -45.166 -60.5 -59.499s-59.5 -21.5 -97.5 -21.5c-31.333 0 -58.333 4.83301 -81 14.5s-40.667 23.167 -54 40.5c-15.333 18.667 -25.333 40.167 -30 64.5s-7 53.833 -7 88.5v286h152v-247c0 -34.667 6.16699 -62.834 18.5 -84.501
s34.5 -32.5 66.5 -32.5s55.5 11 70.5 33s22.5 51.667 22.5 89v242h153v-482z" />
    <glyph glyph-name="yacute" unicode="&#xfd;" horiz-adv-x="615" 
d="M194 509l-49 106l276 128l49 -106zM303 -231c-39.333 0 -73.502 4.00098 -102.502 12.001s-54.167 20.667 -75.5 38c-19.333 15.333 -35.166 35 -47.499 59s-18.5 52.333 -18.5 85h153c1.33301 -27.333 10.833 -48.166 28.5 -62.499s39.167 -21.5 64.5 -21.5
c29.333 0 52.333 7.16699 69 21.5s25 40.166 25 77.499v99c-13.333 -26 -33.166 -46 -59.499 -60s-57.833 -21 -94.5 -21c-32 0 -59.833 5.33301 -83.5 16s-42.167 24.667 -55.5 42c-15.333 18.667 -25.333 39.5 -30 62.5s-7 51.833 -7 86.5v279h152v-247
c0 -34.667 6.16699 -62.834 18.5 -84.501s34.5 -32.5 66.5 -32.5s55.5 11 70.5 33s22.5 51.667 22.5 89v242h153v-494c0 -38 -6 -71 -18 -99s-28 -50.667 -48 -68c-22 -18 -47.5 -31.167 -76.5 -39.5s-64.5 -12.5 -106.5 -12.5z" />
    <glyph glyph-name="thorn" unicode="&#xfe;" horiz-adv-x="632" 
d="M335 118c17.333 0 33 3.33301 47 10s26 15.5 36 26.5s17.833 24 23.5 39s8.5 30.833 8.5 47.5s-2.83301 32.334 -8.5 47.001s-13.5 27.667 -23.5 39s-22 20.333 -36 27s-29.667 10 -47 10s-33 -3.33301 -47 -10s-26 -15.667 -36 -27s-17.833 -24.333 -23.5 -39
s-8.5 -30.334 -8.5 -47.001s2.83301 -32.5 8.5 -47.5s13.5 -28 23.5 -39s22 -19.833 36 -26.5s29.667 -10 47 -10zM67 -218v918.001h153v-287c6 10.667 14 21 24 31s21.5 18.667 34.5 26s27.167 13.166 42.5 17.499s30.666 6.5 45.999 6.5c34.667 0 66.5 -6.5 95.5 -19.5
s53.833 -30.667 74.5 -53s36.667 -49 48 -80s17 -64.5 17 -100.5s-5.66699 -69.5 -17 -100.5s-27.333 -57.667 -48 -80s-45.5 -40 -74.5 -53s-60.833 -19.5 -95.5 -19.5c-15.333 0 -30.666 2.16699 -45.999 6.5s-29.5 10 -42.5 17s-24.5 15.333 -34.5 25
s-18 20.167 -24 31.5v-286h-153z" />
    <glyph glyph-name="ydieresis" unicode="&#xff;" horiz-adv-x="615" 
d="M101 630c0 12.667 2.33301 24.5 7 35.5s11.167 20.667 19.5 29s18 14.833 29 19.5s22.833 7 35.5 7c26.667 0 48.834 -8.83301 66.501 -26.5s26.5 -39.167 26.5 -64.5s-8.83301 -46.833 -26.5 -64.5s-39.834 -26.5 -66.501 -26.5c-12.667 0 -24.5 2.33301 -35.5 7
s-20.667 11.167 -29 19.5s-14.833 18 -19.5 29s-7 22.833 -7 35.5zM342 630c0 12.667 2.33301 24.5 7 35.5s11.167 20.667 19.5 29s18 14.833 29 19.5s22.833 7 35.5 7s24.667 -2.33301 36 -7s21.166 -11.167 29.499 -19.5s14.833 -18 19.5 -29s7 -22.833 7 -35.5
s-2.33301 -24.5 -7 -35.5s-11.167 -20.667 -19.5 -29s-18.166 -14.833 -29.499 -19.5s-23.333 -7 -36 -7s-24.5 2.33301 -35.5 7s-20.667 11.167 -29 19.5s-14.833 18 -19.5 29s-7 22.833 -7 35.5zM303 -231c-39.333 0 -73.502 4.00098 -102.502 12.001
s-54.167 20.667 -75.5 38c-19.333 15.333 -35.166 35 -47.499 59s-18.5 52.333 -18.5 85h153c1.33301 -27.333 10.833 -48.166 28.5 -62.499s39.167 -21.5 64.5 -21.5c29.333 0 52.333 7.16699 69 21.5s25 40.166 25 77.499v99c-13.333 -26 -33.166 -46 -59.499 -60
s-57.833 -21 -94.5 -21c-32 0 -59.833 5.33301 -83.5 16s-42.167 24.667 -55.5 42c-15.333 18.667 -25.333 39.5 -30 62.5s-7 51.833 -7 86.5v279h152v-247c0 -34.667 6.16699 -62.834 18.5 -84.501s34.5 -32.5 66.5 -32.5s55.5 11 70.5 33s22.5 51.667 22.5 89v242h153
v-494c0 -38 -6 -71 -18 -99s-28 -50.667 -48 -68c-22 -18 -47.5 -31.167 -76.5 -39.5s-64.5 -12.5 -106.5 -12.5z" />
    <glyph glyph-name="Amacron" unicode="&#x100;" horiz-adv-x="660" 
d="M512 794h-368v115h368v-115zM243 212h170l-84 288zM656 0h-176l-27 85h-249l-27 -85h-173l250 700h149z" />
    <glyph glyph-name="amacron" unicode="&#x101;" horiz-adv-x="635" 
d="M491 573h-368v114h368v-114zM302 118c17.333 0 33 3.33301 47 10s26 15.5 36 26.5s17.833 24 23.5 39s8.5 30.833 8.5 47.5s-2.83301 32.334 -8.5 47.001s-13.5 27.667 -23.5 39s-22 20.333 -36 27s-29.667 10 -47 10s-33 -3.33301 -47 -10s-26 -15.667 -36 -27
s-17.833 -24.333 -23.5 -39s-8.5 -30.334 -8.5 -47.001s2.83301 -32.5 8.5 -47.5s13.5 -28 23.5 -39s22 -19.833 36 -26.5s29.667 -10 47 -10zM570 482v-482.001h-153v68c-6 -11.333 -14 -21.833 -24 -31.5s-21.5 -18 -34.5 -25s-27.167 -12.667 -42.5 -17
s-30.666 -6.5 -45.999 -6.5c-34.667 0 -66.5 6.5 -95.5 19.5s-53.833 30.667 -74.5 53s-36.667 49 -48 80s-17 64.5 -17 100.5s5.66699 69.5 17 100.5s27.333 57.667 48 80s45.5 40 74.5 53s60.833 19.5 95.5 19.5c15.333 0 30.666 -2.16699 45.999 -6.5
s29.5 -10.166 42.5 -17.499s24.5 -16 34.5 -26s18 -20.333 24 -31v69h153z" />
    <glyph glyph-name="Abreve" unicode="&#x102;" horiz-adv-x="660" 
d="M329 868c25.333 0 45.499 6.83301 60.499 20.5s25.167 30.834 30.5 51.501h123c-4 -26 -12.333 -49.667 -25 -71s-28.5 -39.5 -47.5 -54.5s-40.667 -26.5 -65 -34.5s-49.833 -12 -76.5 -12c-27.333 0 -53.166 4 -77.499 12s-46 19.5 -65 34.5s-34.667 33.167 -47 54.5
s-20.5 45 -24.5 71h122c6 -20.667 16.5 -37.834 31.5 -51.501s35.167 -20.5 60.5 -20.5zM242.999 212h170l-84 288zM655.999 0h-176l-27 85h-249l-27 -85h-173l250 700h149z" />
    <glyph glyph-name="abreve" unicode="&#x103;" horiz-adv-x="635" 
d="M309 652c25.333 0 45.5 6.83301 60.5 20.5s25.5 30.834 31.5 51.501h122c-4 -26 -12.333 -49.667 -25 -71s-28.5 -39.5 -47.5 -54.5s-40.667 -26.5 -65 -34.5s-49.833 -12 -76.5 -12c-27.333 0 -53.166 4 -77.499 12s-45.833 19.5 -64.5 34.5
s-34.334 33.167 -47.001 54.5s-21 45 -25 71h123c5.33301 -20.667 15.5 -37.834 30.5 -51.501s35.167 -20.5 60.5 -20.5zM302 118c17.333 0 33 3.33301 47 10s26 15.5 36 26.5s17.833 24 23.5 39s8.5 30.833 8.5 47.5s-2.83301 32.334 -8.5 47.001s-13.5 27.667 -23.5 39
s-22 20.333 -36 27s-29.667 10 -47 10s-33 -3.33301 -47 -10s-26 -15.667 -36 -27s-17.833 -24.333 -23.5 -39s-8.5 -30.334 -8.5 -47.001s2.83301 -32.5 8.5 -47.5s13.5 -28 23.5 -39s22 -19.833 36 -26.5s29.667 -10 47 -10zM570 482v-482.001h-153v68
c-6 -11.333 -14 -21.833 -24 -31.5s-21.5 -18 -34.5 -25s-27.167 -12.667 -42.5 -17s-30.666 -6.5 -45.999 -6.5c-34.667 0 -66.5 6.5 -95.5 19.5s-53.833 30.667 -74.5 53s-36.667 49 -48 80s-17 64.5 -17 100.5s5.66699 69.5 17 100.5s27.333 57.667 48 80
s45.5 40 74.5 53s60.833 19.5 95.5 19.5c15.333 0 30.666 -2.16699 45.999 -6.5s29.5 -10.166 42.5 -17.499s24.5 -16 34.5 -26s18 -20.333 24 -31v69h153z" />
    <glyph glyph-name="Aogonek" unicode="&#x104;" horiz-adv-x="660" 
d="M618 -197c-13.333 -4.66699 -27.6699 -8.33301 -43.0029 -11s-32.666 -4 -51.999 -4c-43.333 0 -75.166 9.5 -95.499 28.5s-30.5 41.833 -30.5 68.5c0 21.333 7.16699 41.5 21.5 60.5s34.833 37.167 61.5 54.5l-27 85h-249l-27 -85h-173l250 700h149l253 -700h-82
l-20 -14.5c-6.66699 -5 -12.667 -10.5 -18 -16.5s-9.66602 -12.833 -12.999 -20.5s-5 -16.5 -5 -26.5c0 -14 4 -26.333 12 -37s19.333 -16 34 -16c8 0 17 1 27 3s19.667 5 29 9zM242.996 212.001h170l-84 288z" />
    <glyph glyph-name="aogonek" unicode="&#x105;" horiz-adv-x="635" 
d="M570 0l-55.0029 -0.000976562c-15.333 -9.33301 -29.666 -20.666 -42.999 -33.999s-20 -30.333 -20 -51c0 -12 3.83301 -22.667 11.5 -32s18.167 -14 31.5 -14c8 0 17 1 27 3s19.667 5 29 9l-2 -78c-13.333 -4.66699 -27.666 -8.33398 -42.999 -11.001
s-32.666 -4 -51.999 -4c-44 0 -76.5 9.5 -97.5 28.5s-31.5 41.833 -31.5 68.5c0 22 7.66699 42.333 23 61s38.333 37.667 69 57v65c-6 -11.333 -14 -21.833 -24 -31.5s-21.5 -18 -34.5 -25s-27.167 -12.667 -42.5 -17s-30.666 -6.5 -45.999 -6.5
c-34.667 0 -66.5 6.5 -95.5 19.5s-53.833 30.667 -74.5 53s-36.667 49 -48 80s-17 64.5 -17 100.5s5.66699 69.5 17 100.5s27.333 57.667 48 80s45.5 40 74.5 53s60.833 19.5 95.5 19.5c15.333 0 30.666 -2.16699 45.999 -6.5s29.5 -10.166 42.5 -17.499s24.5 -16 34.5 -26
s18 -20.333 24 -31v69h153v-482zM301.997 117.999c17.333 0 33 3.33301 47 10s26 15.5 36 26.5s17.833 24 23.5 39s8.5 30.833 8.5 47.5s-2.83301 32.334 -8.5 47.001s-13.5 27.667 -23.5 39s-22 20.333 -36 27s-29.667 10 -47 10s-33 -3.33301 -47 -10s-26 -15.667 -36 -27
s-17.833 -24.333 -23.5 -39s-8.5 -30.334 -8.5 -47.001s2.83301 -32.5 8.5 -47.5s13.5 -28 23.5 -39s22 -19.833 36 -26.5s29.667 -10 47 -10z" />
    <glyph glyph-name="Cacute" unicode="&#x106;" horiz-adv-x="788" 
d="M280 740l-48 105l276 128l48 -105zM757 251c-6.66699 -37.333 -19.502 -72.334 -38.502 -105.001s-43.5 -61.167 -73.5 -85.5s-65 -43.5 -105 -57.5s-84 -21 -132 -21c-59.333 0 -112.166 10 -158.499 30s-85.666 46.833 -117.999 80.5s-57 72.834 -74 117.501
s-25.5 91.667 -25.5 141c0 48 8.33301 94 25 138s40.834 83 72.501 117s70.167 61.167 115.5 81.5s96.666 30.5 153.999 30.5c54 0 102.167 -7.66699 144.5 -23s78.333 -36 108 -62s53.167 -56.667 70.5 -92s28.666 -73 33.999 -113h-169c-4 20.667 -10.833 39.667 -20.5 57
s-22 32.5 -37 45.5s-32.667 23.167 -53 30.5s-42.833 11 -67.5 11c-34 0 -64.167 -6.16699 -90.5 -18.5s-48.5 -28.666 -66.5 -48.999s-31.667 -43.833 -41 -70.5s-14 -54.334 -14 -83.001c0 -30.667 4.83301 -59.5 14.5 -86.5s24 -50.667 43 -71s42 -36.333 69 -48
s58.167 -17.5 93.5 -17.5c20 0 39 3.16699 57 9.5s34.5 15 49.5 26s27.833 24 38.5 39s18.334 31.167 23.001 48.5h172z" />
    <glyph glyph-name="cacute" unicode="&#x107;" horiz-adv-x="575" 
d="M173 509l-48 106l276 128l48 -106zM388 293c-3.33301 21.333 -12.166 38.667 -26.499 52s-37.166 20 -68.499 20c-18 0 -33.833 -3.33301 -47.5 -10s-24.834 -15.667 -33.501 -27s-15.167 -24.5 -19.5 -39.5s-6.5 -30.833 -6.5 -47.5s2.16699 -32.5 6.5 -47.5
s11 -28.167 20 -39.5s20.667 -20.333 35 -27s31.5 -10 51.5 -10c26.667 0 46.667 5.5 60 16.5s23.333 26.833 30 47.5h153c-4 -27.333 -12 -52.833 -24 -76.5s-28.333 -44.167 -49 -61.5s-45.834 -31 -75.501 -41s-63.5 -15 -101.5 -15c-42 0 -79.167 7 -111.5 21
s-59.5 32.667 -81.5 56s-38.5 50.333 -49.5 81s-16.5 62.667 -16.5 96s5.5 65.333 16.5 96s27.5 57.667 49.5 81s49.167 42 81.5 56s69.5 21 111.5 21c40.667 0 76 -5.66699 106 -17s55.167 -26.333 75.5 -45s36 -40.167 47 -64.5s17.833 -49.5 20.5 -75.5h-153z" />
    <glyph glyph-name="Ccircumflex" unicode="&#x108;" horiz-adv-x="788" 
d="M400 993l197 -164l-76 -84l-120 107l-119 -106l-77 83zM757 251c-6.66699 -37.333 -19.502 -72.334 -38.502 -105.001s-43.5 -61.167 -73.5 -85.5s-65 -43.5 -105 -57.5s-84 -21 -132 -21c-59.333 0 -112.166 10 -158.499 30s-85.666 46.833 -117.999 80.5
s-57 72.834 -74 117.501s-25.5 91.667 -25.5 141c0 48 8.33301 94 25 138s40.834 83 72.501 117s70.167 61.167 115.5 81.5s96.666 30.5 153.999 30.5c54 0 102.167 -7.66699 144.5 -23s78.333 -36 108 -62s53.167 -56.667 70.5 -92s28.666 -73 33.999 -113h-169
c-4 20.667 -10.833 39.667 -20.5 57s-22 32.5 -37 45.5s-32.667 23.167 -53 30.5s-42.833 11 -67.5 11c-34 0 -64.167 -6.16699 -90.5 -18.5s-48.5 -28.666 -66.5 -48.999s-31.667 -43.833 -41 -70.5s-14 -54.334 -14 -83.001c0 -30.667 4.83301 -59.5 14.5 -86.5
s24 -50.667 43 -71s42 -36.333 69 -48s58.167 -17.5 93.5 -17.5c20 0 39 3.16699 57 9.5s34.5 15 49.5 26s27.833 24 38.5 39s18.334 31.167 23.001 48.5h172z" />
    <glyph glyph-name="ccircumflex" unicode="&#x109;" horiz-adv-x="575" 
d="M298 781l197 -164l-76 -84l-120 107l-120 -106l-76 83zM388 293c-3.33301 21.333 -12.166 38.667 -26.499 52s-37.166 20 -68.499 20c-18 0 -33.833 -3.33301 -47.5 -10s-24.834 -15.667 -33.501 -27s-15.167 -24.5 -19.5 -39.5s-6.5 -30.833 -6.5 -47.5
s2.16699 -32.5 6.5 -47.5s11 -28.167 20 -39.5s20.667 -20.333 35 -27s31.5 -10 51.5 -10c26.667 0 46.667 5.5 60 16.5s23.333 26.833 30 47.5h153c-4 -27.333 -12 -52.833 -24 -76.5s-28.333 -44.167 -49 -61.5s-45.834 -31 -75.501 -41s-63.5 -15 -101.5 -15
c-42 0 -79.167 7 -111.5 21s-59.5 32.667 -81.5 56s-38.5 50.333 -49.5 81s-16.5 62.667 -16.5 96s5.5 65.333 16.5 96s27.5 57.667 49.5 81s49.167 42 81.5 56s69.5 21 111.5 21c40.667 0 76 -5.66699 106 -17s55.167 -26.333 75.5 -45s36 -40.167 47 -64.5
s17.833 -49.5 20.5 -75.5h-153z" />
    <glyph glyph-name="Cdotaccent" unicode="&#x10a;" horiz-adv-x="788" 
d="M305 860c0 12.667 2.33301 24.834 7 36.501s11.334 21.834 20.001 30.501s18.667 15.5 30 20.5s23.666 7.5 36.999 7.5s25.833 -2.5 37.5 -7.5s21.667 -11.833 30 -20.5s15 -18.834 20 -30.501s7.5 -23.834 7.5 -36.501s-2.5 -24.667 -7.5 -36
s-11.667 -21.166 -20 -29.499s-18.333 -15 -30 -20s-24.167 -7.5 -37.5 -7.5s-25.666 2.5 -36.999 7.5s-21.333 11.667 -30 20s-15.334 18.166 -20.001 29.499s-7 23.333 -7 36zM757 251c-6.66699 -37.333 -19.502 -72.334 -38.502 -105.001s-43.5 -61.167 -73.5 -85.5
s-65 -43.5 -105 -57.5s-84 -21 -132 -21c-59.333 0 -112.166 10 -158.499 30s-85.666 46.833 -117.999 80.5s-57 72.834 -74 117.501s-25.5 91.667 -25.5 141c0 48 8.33301 94 25 138s40.834 83 72.501 117s70.167 61.167 115.5 81.5s96.666 30.5 153.999 30.5
c54 0 102.167 -7.66699 144.5 -23s78.333 -36 108 -62s53.167 -56.667 70.5 -92s28.666 -73 33.999 -113h-169c-4 20.667 -10.833 39.667 -20.5 57s-22 32.5 -37 45.5s-32.667 23.167 -53 30.5s-42.833 11 -67.5 11c-34 0 -64.167 -6.16699 -90.5 -18.5
s-48.5 -28.666 -66.5 -48.999s-31.667 -43.833 -41 -70.5s-14 -54.334 -14 -83.001c0 -30.667 4.83301 -59.5 14.5 -86.5s24 -50.667 43 -71s42 -36.333 69 -48s58.167 -17.5 93.5 -17.5c20 0 39 3.16699 57 9.5s34.5 15 49.5 26s27.833 24 38.5 39
s18.334 31.167 23.001 48.5h172z" />
    <glyph glyph-name="cdotaccent" unicode="&#x10b;" horiz-adv-x="575" 
d="M197 629c0 12.667 2.5 24.834 7.5 36.501s11.667 21.667 20 30s18.166 15 29.499 20s23.666 7.5 36.999 7.5s25.833 -2.5 37.5 -7.5s21.834 -11.667 30.501 -20s15.5 -18.333 20.5 -30s7.5 -23.834 7.5 -36.501s-2.5 -24.667 -7.5 -36s-11.833 -21.166 -20.5 -29.499
s-18.834 -15 -30.501 -20s-24.167 -7.5 -37.5 -7.5s-25.666 2.5 -36.999 7.5s-21.166 11.667 -29.499 20s-15 18.166 -20 29.499s-7.5 23.333 -7.5 36zM388 293c-3.33301 21.333 -12.166 38.667 -26.499 52s-37.166 20 -68.499 20c-18 0 -33.833 -3.33301 -47.5 -10
s-24.834 -15.667 -33.501 -27s-15.167 -24.5 -19.5 -39.5s-6.5 -30.833 -6.5 -47.5s2.16699 -32.5 6.5 -47.5s11 -28.167 20 -39.5s20.667 -20.333 35 -27s31.5 -10 51.5 -10c26.667 0 46.667 5.5 60 16.5s23.333 26.833 30 47.5h153c-4 -27.333 -12 -52.833 -24 -76.5
s-28.333 -44.167 -49 -61.5s-45.834 -31 -75.501 -41s-63.5 -15 -101.5 -15c-42 0 -79.167 7 -111.5 21s-59.5 32.667 -81.5 56s-38.5 50.333 -49.5 81s-16.5 62.667 -16.5 96s5.5 65.333 16.5 96s27.5 57.667 49.5 81s49.167 42 81.5 56s69.5 21 111.5 21
c40.667 0 76 -5.66699 106 -17s55.167 -26.333 75.5 -45s36 -40.167 47 -64.5s17.833 -49.5 20.5 -75.5h-153z" />
    <glyph glyph-name="Ccaron" unicode="&#x10c;" horiz-adv-x="788" 
d="M197 907l77 83l119 -108l120 108l76 -83l-196 -165zM757 251c-6.66699 -37.333 -19.502 -72.334 -38.502 -105.001s-43.5 -61.167 -73.5 -85.5s-65 -43.5 -105 -57.5s-84 -21 -132 -21c-59.333 0 -112.166 10 -158.499 30s-85.666 46.833 -117.999 80.5
s-57 72.834 -74 117.501s-25.5 91.667 -25.5 141c0 48 8.33301 94 25 138s40.834 83 72.501 117s70.167 61.167 115.5 81.5s96.666 30.5 153.999 30.5c54 0 102.167 -7.66699 144.5 -23s78.333 -36 108 -62s53.167 -56.667 70.5 -92s28.666 -73 33.999 -113h-169
c-4 20.667 -10.833 39.667 -20.5 57s-22 32.5 -37 45.5s-32.667 23.167 -53 30.5s-42.833 11 -67.5 11c-34 0 -64.167 -6.16699 -90.5 -18.5s-48.5 -28.666 -66.5 -48.999s-31.667 -43.833 -41 -70.5s-14 -54.334 -14 -83.001c0 -30.667 4.83301 -59.5 14.5 -86.5
s24 -50.667 43 -71s42 -36.333 69 -48s58.167 -17.5 93.5 -17.5c20 0 39 3.16699 57 9.5s34.5 15 49.5 26s27.833 24 38.5 39s18.334 31.167 23.001 48.5h172z" />
    <glyph glyph-name="ccaron" unicode="&#x10d;" horiz-adv-x="575" 
d="M97 691l77 82l119 -108l120 109l76 -83l-197 -165zM388 293c-3.33301 21.333 -12.166 38.667 -26.499 52s-37.166 20 -68.499 20c-18 0 -33.833 -3.33301 -47.5 -10s-24.834 -15.667 -33.501 -27s-15.167 -24.5 -19.5 -39.5s-6.5 -30.833 -6.5 -47.5
s2.16699 -32.5 6.5 -47.5s11 -28.167 20 -39.5s20.667 -20.333 35 -27s31.5 -10 51.5 -10c26.667 0 46.667 5.5 60 16.5s23.333 26.833 30 47.5h153c-4 -27.333 -12 -52.833 -24 -76.5s-28.333 -44.167 -49 -61.5s-45.834 -31 -75.501 -41s-63.5 -15 -101.5 -15
c-42 0 -79.167 7 -111.5 21s-59.5 32.667 -81.5 56s-38.5 50.333 -49.5 81s-16.5 62.667 -16.5 96s5.5 65.333 16.5 96s27.5 57.667 49.5 81s49.167 42 81.5 56s69.5 21 111.5 21c40.667 0 76 -5.66699 106 -17s55.167 -26.333 75.5 -45s36 -40.167 47 -64.5
s17.833 -49.5 20.5 -75.5h-153z" />
    <glyph glyph-name="Dcaron" unicode="&#x10e;" horiz-adv-x="720" 
d="M141 907l77 83l119 -108l120 108l76 -83l-196 -165zM324 700c58 0 109.5 -9.83105 154.5 -29.498s83 -45.834 114 -78.501s54.667 -70 71 -112s24.5 -85.333 24.5 -130s-8 -88 -24 -130s-39.5 -79.333 -70.5 -112s-69.167 -58.834 -114.5 -78.501s-97 -29.5 -155 -29.5
h-257v700h257zM229 560.002v-420.002h87c32.667 0 61.834 5.83301 87.501 17.5s47.334 27.334 65.001 47.001s31.167 42 40.5 67s14 51.167 14 78.5c0 26.667 -4.66699 52.667 -14 78s-22.833 47.833 -40.5 67.5s-39.334 35.334 -65.001 47.001s-54.834 17.5 -87.501 17.5
h-87z" />
    <glyph glyph-name="dcaron" unicode="&#x10f;" horiz-adv-x="810" 
d="M615 641c0 27.333 9.16895 50.334 27.502 69.001s40.833 28 67.5 28c32 0 57.833 -11.333 77.5 -34s29.5 -52 29.5 -88s-4.5 -66.667 -13.5 -92s-21.833 -45.666 -38.5 -60.999s-37.334 -26.666 -62.001 -33.999s-52.334 -11 -83.001 -11v59c20 0 37 2.33301 51 7
s25.333 10.667 34 18c9.33301 7.33301 16.333 15.666 21 24.999s7.66699 18.666 9 27.999c-1.33301 -1.33301 -4.5 -2.83301 -9.5 -4.5s-10.167 -2.5 -15.5 -2.5c-29.333 0 -52.5 9.16699 -69.5 27.5s-25.5 40.166 -25.5 65.499zM302.002 118.001c17.333 0 33 3.33301 47 10
s26 15.5 36 26.5s17.833 24 23.5 39s8.5 30.833 8.5 47.5s-2.83301 32.334 -8.5 47.001s-13.5 27.667 -23.5 39s-22 20.333 -36 27s-29.667 10 -47 10s-33 -3.33301 -47 -10s-26 -15.667 -36 -27s-17.833 -24.333 -23.5 -39s-8.5 -30.334 -8.5 -47.001
s2.83301 -32.5 8.5 -47.5s13.5 -28 23.5 -39s22 -19.833 36 -26.5s29.667 -10 47 -10zM417.002 700.001l153 -0.000976562v-700h-153v68c-6 -11.333 -14 -21.833 -24 -31.5s-21.5 -18 -34.5 -25s-27.167 -12.667 -42.5 -17s-30.666 -6.5 -45.999 -6.5
c-34.667 0 -66.5 6.5 -95.5 19.5s-53.833 30.667 -74.5 53s-36.667 49 -48 80s-17 64.5 -17 100.5s5.66699 69.5 17 100.5s27.333 57.667 48 80s45.5 40 74.5 53s60.833 19.5 95.5 19.5c15.333 0 30.666 -2.16699 45.999 -6.5s29.5 -10.166 42.5 -17.499s24.5 -16 34.5 -26
s18 -20.333 24 -31v287z" />
    <glyph glyph-name="Dcroat" unicode="&#x110;" horiz-adv-x="720" 
d="M324 700c58 0 109.5 -9.83105 154.5 -29.498s83 -45.834 114 -78.501s54.667 -70 71 -112s24.5 -85.333 24.5 -130s-8 -88 -24 -130s-39.5 -79.333 -70.5 -112s-69.167 -58.834 -114.5 -78.501s-97 -29.5 -155 -29.5h-257v301h-101v98h101v301h257zM334 301.002
l-105 -0.00195312v-161h87c32.667 0 61.834 5.83301 87.501 17.5s47.334 27.334 65.001 47.001s31.167 42 40.5 67s14 51.167 14 78.5c0 26.667 -4.66699 52.667 -14 78s-22.833 47.833 -40.5 67.5s-39.334 35.334 -65.001 47.001s-54.834 17.5 -87.501 17.5h-87v-161h105
v-98z" />
    <glyph glyph-name="dcroat" unicode="&#x111;" horiz-adv-x="635" 
d="M302 118c17.333 0 33 3.33301 47 10s26 15.5 36 26.5s17.833 24 23.5 39s8.5 30.833 8.5 47.5s-2.83301 32.334 -8.5 47.001s-13.5 27.667 -23.5 39s-22 20.333 -36 27s-29.667 10 -47 10s-33 -3.33301 -47 -10s-26 -15.667 -36 -27s-17.833 -24.333 -23.5 -39
s-8.5 -30.334 -8.5 -47.001s2.83301 -32.5 8.5 -47.5s13.5 -28 23.5 -39s22 -19.833 36 -26.5s29.667 -10 47 -10zM615 533l-45 -0.000976562v-533h-153v68c-6 -11.333 -14 -21.833 -24 -31.5s-21.5 -18 -34.5 -25s-27.167 -12.667 -42.5 -17s-30.666 -6.5 -45.999 -6.5
c-34.667 0 -66.5 6.5 -95.5 19.5s-53.833 30.667 -74.5 53s-36.667 49 -48 80s-17 64.5 -17 100.5s5.66699 69.5 17 100.5s27.333 57.667 48 80s45.5 40 74.5 53s60.833 19.5 95.5 19.5c15.333 0 30.666 -2.16699 45.999 -6.5s29.5 -10.166 42.5 -17.499s24.5 -16 34.5 -26
s18 -20.333 24 -31v120h-107v82h107v85h153v-85h45v-82z" />
    <glyph glyph-name="Emacron" unicode="&#x112;" horiz-adv-x="555" 
d="M466 794h-368v115h368v-115zM229 570v-159h265v-127h-265v-154h265v-130h-427v700h427v-130h-265z" />
    <glyph glyph-name="emacron" unicode="&#x113;" horiz-adv-x="577" 
d="M479 573h-368v114h368v-114zM186 204c0.666992 -14.667 2.83008 -28.499 6.49707 -41.499s9.66699 -24.333 18 -34s19.166 -17.334 32.499 -23.001s30 -8.5 50 -8.5c26.667 0 46.834 5.33301 60.501 16s23.167 23.667 28.5 39h150
c-3.33301 -22.667 -11.166 -44 -23.499 -64s-28.666 -37.5 -48.999 -52.5s-44.333 -26.833 -72 -35.5s-58.834 -13 -93.501 -13c-42 0 -79.167 6.16699 -111.5 18.5s-59.5 29.833 -81.5 52.5s-38.667 49.5 -50 80.5s-17 65.167 -17 102.5c0 35.333 5.5 68.333 16.5 99
s27.333 57.5 49 80.5s48.334 41.167 80.001 54.5s68.5 20 110.5 20c38 0 72.167 -6 102.5 -18s56.333 -28 78 -48s38.334 -43.333 50.001 -70s17.5 -54.667 17.5 -84c0 -10 -0.166992 -20.667 -0.5 -32s-1.83301 -24.333 -4.5 -39h-347zM288.996 393.001
c-30 0 -54.668 -8.66699 -74.001 -26s-29 -42.333 -29 -75h202c0 31.333 -9.16699 56 -27.5 74s-42.166 27 -71.499 27z" />
    <glyph glyph-name="Ebreve" unicode="&#x114;" horiz-adv-x="555" 
d="M283 868c25.333 0 45.499 6.83301 60.499 20.5s25.167 30.834 30.5 51.501h123c-4 -26 -12.333 -49.667 -25 -71s-28.5 -39.5 -47.5 -54.5s-40.667 -26.5 -65 -34.5s-49.833 -12 -76.5 -12c-27.333 0 -53.166 4 -77.499 12s-46 19.5 -65 34.5s-34.667 33.167 -47 54.5
s-20.5 45 -24.5 71h122c6 -20.667 16.5 -37.834 31.5 -51.501s35.167 -20.5 60.5 -20.5zM228.999 570v-159h265v-127h-265v-154h265v-130h-427v700h427v-130h-265z" />
    <glyph glyph-name="ebreve" unicode="&#x115;" horiz-adv-x="577" 
d="M291 652c25.333 0 45.499 6.83301 60.499 20.5s25.167 30.834 30.5 51.501h123c-4 -26 -12.333 -49.667 -25 -71s-28.5 -39.5 -47.5 -54.5s-40.667 -26.5 -65 -34.5s-49.833 -12 -76.5 -12c-27.333 0 -53.166 4 -77.499 12s-46 19.5 -65 34.5s-34.667 33.167 -47 54.5
s-20.5 45 -24.5 71h123c5.33301 -20.667 15.5 -37.834 30.5 -51.501s35.167 -20.5 60.5 -20.5zM185.999 204c0.666992 -14.667 2.83008 -28.499 6.49707 -41.499s9.66699 -24.333 18 -34s19.166 -17.334 32.499 -23.001s30 -8.5 50 -8.5c26.667 0 46.834 5.33301 60.501 16
s23.167 23.667 28.5 39h150c-3.33301 -22.667 -11.166 -44 -23.499 -64s-28.666 -37.5 -48.999 -52.5s-44.333 -26.833 -72 -35.5s-58.834 -13 -93.501 -13c-42 0 -79.167 6.16699 -111.5 18.5s-59.5 29.833 -81.5 52.5s-38.667 49.5 -50 80.5s-17 65.167 -17 102.5
c0 35.333 5.5 68.333 16.5 99s27.333 57.5 49 80.5s48.334 41.167 80.001 54.5s68.5 20 110.5 20c38 0 72.167 -6 102.5 -18s56.333 -28 78 -48s38.334 -43.333 50.001 -70s17.5 -54.667 17.5 -84c0 -10 -0.166992 -20.667 -0.5 -32s-1.83301 -24.333 -4.5 -39h-347z
M288.995 393.001c-30 0 -54.668 -8.66699 -74.001 -26s-29 -42.333 -29 -75h202c0 31.333 -9.16699 56 -27.5 74s-42.166 27 -71.499 27z" />
    <glyph glyph-name="Edotaccent" unicode="&#x116;" horiz-adv-x="555" 
d="M183 860c0 12.667 2.33301 24.834 7 36.501s11.334 21.834 20.001 30.501s18.667 15.5 30 20.5s23.666 7.5 36.999 7.5s25.833 -2.5 37.5 -7.5s21.667 -11.833 30 -20.5s15 -18.834 20 -30.501s7.5 -23.834 7.5 -36.501s-2.5 -24.667 -7.5 -36
s-11.667 -21.166 -20 -29.499s-18.333 -15 -30 -20s-24.167 -7.5 -37.5 -7.5s-25.666 2.5 -36.999 7.5s-21.333 11.667 -30 20s-15.334 18.166 -20.001 29.499s-7 23.333 -7 36zM229 570v-159h265v-127h-265v-154h265v-130h-427v700h427v-130h-265z" />
    <glyph glyph-name="edotaccent" unicode="&#x117;" horiz-adv-x="577" 
d="M194 629c0 26 9 48.168 27 66.501s40.333 27.5 67 27.5c13.333 0 25.833 -2.5 37.5 -7.5s21.667 -11.667 30 -20s15 -18.333 20 -30s7.5 -23.834 7.5 -36.501s-2.5 -24.667 -7.5 -36s-11.667 -21.166 -20 -29.499s-18.333 -15 -30 -20s-24.167 -7.5 -37.5 -7.5
s-25.666 2.5 -36.999 7.5s-21.333 11.667 -30 20s-15.334 18.166 -20.001 29.499s-7 23.333 -7 36zM186 204.001c0.666992 -14.667 2.83008 -28.499 6.49707 -41.499s9.66699 -24.333 18 -34s19.166 -17.334 32.499 -23.001s30 -8.5 50 -8.5
c26.667 0 46.834 5.33301 60.501 16s23.167 23.667 28.5 39h150c-3.33301 -22.667 -11.166 -44 -23.499 -64s-28.666 -37.5 -48.999 -52.5s-44.333 -26.833 -72 -35.5s-58.834 -13 -93.501 -13c-42 0 -79.167 6.16699 -111.5 18.5s-59.5 29.833 -81.5 52.5
s-38.667 49.5 -50 80.5s-17 65.167 -17 102.5c0 35.333 5.5 68.333 16.5 99s27.333 57.5 49 80.5s48.334 41.167 80.001 54.5s68.5 20 110.5 20c38 0 72.167 -6 102.5 -18s56.333 -28 78 -48s38.334 -43.333 50.001 -70s17.5 -54.667 17.5 -84
c0 -10 -0.166992 -20.667 -0.5 -32s-1.83301 -24.333 -4.5 -39h-347zM288.996 393.002c-30 0 -54.668 -8.66699 -74.001 -26s-29 -42.333 -29 -75h202c0 31.333 -9.16699 56 -27.5 74s-42.166 27 -71.499 27z" />
    <glyph glyph-name="Eogonek" unicode="&#x118;" horiz-adv-x="555" 
d="M67 0l-0.00390625 700.001h427v-130h-265v-159h265v-127h-265v-154h265v-130h-46l-20 -14.5c-6.66699 -5 -12.667 -10.5 -18 -16.5s-9.66602 -12.833 -12.999 -20.5s-5 -16.5 -5 -26.5c0 -14 4 -26.333 12 -37s19.333 -16 34 -16c8 0 17 1 27 3s19.667 5 29 9l-2 -78
c-13.333 -4.66699 -27.666 -8.33398 -42.999 -11.001s-32.666 -4 -51.999 -4c-43.333 0 -75.166 9.5 -95.499 28.5s-30.5 41.833 -30.5 68.5c0 21.333 6.5 41 19.5 59s32.833 36.667 59.5 56h-283z" />
    <glyph glyph-name="eogonek" unicode="&#x119;" horiz-adv-x="577" 
d="M395 -197c-13.333 -4.66699 -27.6709 -8.33203 -43.0039 -10.999s-32.666 -4 -51.999 -4c-42.667 0 -74.167 9.5 -94.5 28.5s-30.5 41.833 -30.5 68.5c0 20 5.33301 38.333 16 55s27.334 33.667 50.001 51c-34 5.33301 -63.833 15.333 -89.5 30s-47.167 33 -64.5 55
s-30.5 47 -39.5 75s-13.5 58 -13.5 90c0 35.333 5.5 68.333 16.5 99s27.333 57.5 49 80.5s48.334 41.167 80.001 54.5s68.5 20 110.5 20c38 0 72.167 -6 102.5 -18s56.333 -28 78 -48s38.334 -43.333 50.001 -70s17.5 -54.667 17.5 -84c0 -10 -0.166992 -20.667 -0.5 -32
s-1.83301 -24.333 -4.5 -39h-345c0 -14.667 1.83301 -28.5 5.5 -41.5s9.66699 -24.333 18 -34s19.166 -17.334 32.499 -23.001s29.666 -8.5 48.999 -8.5c26.667 0 46.834 5.33301 60.501 16s23.167 23.667 28.5 39h150c-7.33301 -40.667 -27.666 -76.167 -60.999 -106.5
s-78.333 -48.833 -135 -55.5c-10.667 -8 -20.167 -17.333 -28.5 -28s-12.5 -24 -12.5 -40c0 -14 4 -26.333 12 -37s19.333 -16 34 -16c8 0 17 1 27 3s19.667 5 29 9zM288.995 393.002c-30 0 -54.668 -8.66699 -74.001 -26s-29 -42.333 -29 -75h202
c0 31.333 -9.16699 56 -27.5 74s-42.166 27 -71.499 27z" />
    <glyph glyph-name="Ecaron" unicode="&#x11a;" horiz-adv-x="555" 
d="M81 907l76 83l120 -108l120 108l76 -83l-197 -165zM229 570v-159h265v-127h-265v-154h265v-130h-427v700h427v-130h-265z" />
    <glyph glyph-name="ecaron" unicode="&#x11b;" horiz-adv-x="577" 
d="M95 691l77 82l119 -108l120 109l76 -83l-197 -165zM186 204c0.666992 -14.667 2.83008 -28.499 6.49707 -41.499s9.66699 -24.333 18 -34s19.166 -17.334 32.499 -23.001s30 -8.5 50 -8.5c26.667 0 46.834 5.33301 60.501 16s23.167 23.667 28.5 39h150
c-3.33301 -22.667 -11.166 -44 -23.499 -64s-28.666 -37.5 -48.999 -52.5s-44.333 -26.833 -72 -35.5s-58.834 -13 -93.501 -13c-42 0 -79.167 6.16699 -111.5 18.5s-59.5 29.833 -81.5 52.5s-38.667 49.5 -50 80.5s-17 65.167 -17 102.5c0 35.333 5.5 68.333 16.5 99
s27.333 57.5 49 80.5s48.334 41.167 80.001 54.5s68.5 20 110.5 20c38 0 72.167 -6 102.5 -18s56.333 -28 78 -48s38.334 -43.333 50.001 -70s17.5 -54.667 17.5 -84c0 -10 -0.166992 -20.667 -0.5 -32s-1.83301 -24.333 -4.5 -39h-347zM288.996 393.001
c-30 0 -54.668 -8.66699 -74.001 -26s-29 -42.333 -29 -75h202c0 31.333 -9.16699 56 -27.5 74s-42.166 27 -71.499 27z" />
    <glyph glyph-name="Gcircumflex" unicode="&#x11c;" horiz-adv-x="835" 
d="M403 993l197 -164l-76 -84l-120 107l-119 -106l-77 83zM455 370l362.999 -0.000976562v-121h-72c-7.33301 -40 -20 -76.333 -38 -109s-41.667 -60.667 -71 -84s-63.833 -41.5 -103.5 -54.5s-84.5 -19.5 -134.5 -19.5c-58.667 0 -110.834 10 -156.501 30
s-84 46.833 -115 80.5s-54.667 72.667 -71 117s-24.5 91.166 -24.5 140.499c0 48 8.33301 94.167 25 138.5s40.834 83.5 72.501 117.5s70.167 61.167 115.5 81.5s96.666 30.5 153.999 30.5c46 0 88.167 -6.5 126.5 -19.5s71.5 -30.667 99.5 -53s50.333 -48.333 67 -78
s26.667 -61.167 30 -94.5h-173c-2.66699 14 -8 27.333 -16 40s-18.5 23.834 -31.5 33.501s-28.167 17.334 -45.5 23.001s-36.333 8.5 -57 8.5c-32 0 -60.5 -6.33301 -85.5 -19s-46 -29.667 -63 -51s-30 -45.833 -39 -73.5s-13.5 -56.167 -13.5 -85.5
c0 -31.333 4.33301 -60.833 13 -88.5s21.834 -52 39.501 -73s40 -37.667 67 -50s58.5 -18.5 94.5 -18.5c24.667 0 46.667 3.5 66 10.5s36 16.5 50 28.5s25.333 25.833 34 41.5s14.334 32.167 17.001 49.5h-124v121z" />
    <glyph glyph-name="gcircumflex" unicode="&#x11d;" horiz-adv-x="633" 
d="M305 781l197 -164l-76 -84l-120 107l-119 -106l-77 83zM302 364c-17.333 0 -33 -3.33301 -47 -10s-26 -15.667 -36 -27s-17.667 -24.333 -23 -39s-8 -30.334 -8 -47.001s2.66699 -32.5 8 -47.5s13 -28 23 -39s22 -19.833 36 -26.5s29.667 -10 47 -10
s33.166 3.33301 47.499 10s26.5 15.5 36.5 26.5s17.833 24 23.5 39s8.5 30.833 8.5 47.5s-2.83301 32.334 -8.5 47.001s-13.5 27.667 -23.5 39s-22.167 20.333 -36.5 27s-30.166 10 -47.499 10zM571 3c0 -44 -6.33496 -80.668 -19.002 -110.001s-31.334 -53.333 -56.001 -72
c-23.333 -17.333 -50.666 -30.333 -81.999 -39s-69.333 -13 -114 -13c-45.333 0 -83.166 5 -113.499 15s-55.5 23.667 -75.5 41c-21.333 17.333 -38 38 -50 62s-18.667 49.333 -20 76h153c2 -20.667 11.833 -39.334 29.5 -56.001s43.167 -25 76.5 -25
c36 0 64.667 8.66699 86 26s32 45 32 83v81c-13.333 -22 -33.333 -40 -60 -54s-55.667 -21 -87 -21c-34.667 0 -66.5 6 -95.5 18s-53.833 28.833 -74.5 50.5s-36.834 47.334 -48.501 77.001s-17.5 62.5 -17.5 98.5s5.5 69.5 16.5 100.5s26.833 57.667 47.5 80
s45.334 40 74.001 53s60.667 19.5 96 19.5c30.667 0 59.834 -7.16699 87.501 -21.5s48.167 -34.166 61.5 -59.499v69h153v-479z" />
    <glyph glyph-name="Gbreve" unicode="&#x11e;" horiz-adv-x="835" 
d="M403 868c25.333 0 45.5 6.83301 60.5 20.5s25.5 30.834 31.5 51.501h122c-4 -26 -12.333 -49.667 -25 -71s-28.5 -39.5 -47.5 -54.5s-40.667 -26.5 -65 -34.5s-49.833 -12 -76.5 -12c-27.333 0 -53.166 4 -77.499 12s-45.833 19.5 -64.5 34.5
s-34.334 33.167 -47.001 54.5s-21 45 -25 71h123c5.33301 -20.667 15.5 -37.834 30.5 -51.501s35.167 -20.5 60.5 -20.5zM455 370l362.999 -0.000976562v-121h-72c-7.33301 -40 -20 -76.333 -38 -109s-41.667 -60.667 -71 -84s-63.833 -41.5 -103.5 -54.5
s-84.5 -19.5 -134.5 -19.5c-58.667 0 -110.834 10 -156.501 30s-84 46.833 -115 80.5s-54.667 72.667 -71 117s-24.5 91.166 -24.5 140.499c0 48 8.33301 94.167 25 138.5s40.834 83.5 72.501 117.5s70.167 61.167 115.5 81.5s96.666 30.5 153.999 30.5
c46 0 88.167 -6.5 126.5 -19.5s71.5 -30.667 99.5 -53s50.333 -48.333 67 -78s26.667 -61.167 30 -94.5h-173c-2.66699 14 -8 27.333 -16 40s-18.5 23.834 -31.5 33.501s-28.167 17.334 -45.5 23.001s-36.333 8.5 -57 8.5c-32 0 -60.5 -6.33301 -85.5 -19
s-46 -29.667 -63 -51s-30 -45.833 -39 -73.5s-13.5 -56.167 -13.5 -85.5c0 -31.333 4.33301 -60.833 13 -88.5s21.834 -52 39.501 -73s40 -37.667 67 -50s58.5 -18.5 94.5 -18.5c24.667 0 46.667 3.5 66 10.5s36 16.5 50 28.5s25.333 25.833 34 41.5
s14.334 32.167 17.001 49.5h-124v121z" />
    <glyph glyph-name="gbreve" unicode="&#x11f;" horiz-adv-x="633" 
d="M309 652c25.333 0 45.5 6.83301 60.5 20.5s25.5 30.834 31.5 51.501h122c-4 -26 -12.333 -49.667 -25 -71s-28.5 -39.5 -47.5 -54.5s-40.667 -26.5 -65 -34.5s-49.833 -12 -76.5 -12c-27.333 0 -53.166 4 -77.499 12s-45.833 19.5 -64.5 34.5
s-34.334 33.167 -47.001 54.5s-21 45 -25 71h123c5.33301 -20.667 15.5 -37.834 30.5 -51.501s35.167 -20.5 60.5 -20.5zM302 364c-17.333 0 -33 -3.33301 -47 -10s-26 -15.667 -36 -27s-17.667 -24.333 -23 -39s-8 -30.334 -8 -47.001s2.66699 -32.5 8 -47.5s13 -28 23 -39
s22 -19.833 36 -26.5s29.667 -10 47 -10s33.166 3.33301 47.499 10s26.5 15.5 36.5 26.5s17.833 24 23.5 39s8.5 30.833 8.5 47.5s-2.83301 32.334 -8.5 47.001s-13.5 27.667 -23.5 39s-22.167 20.333 -36.5 27s-30.166 10 -47.499 10zM571 3
c0 -44 -6.33496 -80.668 -19.002 -110.001s-31.334 -53.333 -56.001 -72c-23.333 -17.333 -50.666 -30.333 -81.999 -39s-69.333 -13 -114 -13c-45.333 0 -83.166 5 -113.499 15s-55.5 23.667 -75.5 41c-21.333 17.333 -38 38 -50 62s-18.667 49.333 -20 76h153
c2 -20.667 11.833 -39.334 29.5 -56.001s43.167 -25 76.5 -25c36 0 64.667 8.66699 86 26s32 45 32 83v81c-13.333 -22 -33.333 -40 -60 -54s-55.667 -21 -87 -21c-34.667 0 -66.5 6 -95.5 18s-53.833 28.833 -74.5 50.5s-36.834 47.334 -48.501 77.001
s-17.5 62.5 -17.5 98.5s5.5 69.5 16.5 100.5s26.833 57.667 47.5 80s45.334 40 74.001 53s60.667 19.5 96 19.5c30.667 0 59.834 -7.16699 87.501 -21.5s48.167 -34.166 61.5 -59.499v69h153v-479z" />
    <glyph glyph-name="Gdotaccent" unicode="&#x120;" horiz-adv-x="835" 
d="M305 860c0 12.667 2.33301 24.834 7 36.501s11.334 21.834 20.001 30.501s18.667 15.5 30 20.5s23.666 7.5 36.999 7.5s25.833 -2.5 37.5 -7.5s21.667 -11.833 30 -20.5s15 -18.834 20 -30.501s7.5 -23.834 7.5 -36.501s-2.5 -24.667 -7.5 -36
s-11.667 -21.166 -20 -29.499s-18.333 -15 -30 -20s-24.167 -7.5 -37.5 -7.5s-25.666 2.5 -36.999 7.5s-21.333 11.667 -30 20s-15.334 18.166 -20.001 29.499s-7 23.333 -7 36zM455 370l362.999 -0.000976562v-121h-72c-7.33301 -40 -20 -76.333 -38 -109
s-41.667 -60.667 -71 -84s-63.833 -41.5 -103.5 -54.5s-84.5 -19.5 -134.5 -19.5c-58.667 0 -110.834 10 -156.501 30s-84 46.833 -115 80.5s-54.667 72.667 -71 117s-24.5 91.166 -24.5 140.499c0 48 8.33301 94.167 25 138.5s40.834 83.5 72.501 117.5
s70.167 61.167 115.5 81.5s96.666 30.5 153.999 30.5c46 0 88.167 -6.5 126.5 -19.5s71.5 -30.667 99.5 -53s50.333 -48.333 67 -78s26.667 -61.167 30 -94.5h-173c-2.66699 14 -8 27.333 -16 40s-18.5 23.834 -31.5 33.501s-28.167 17.334 -45.5 23.001
s-36.333 8.5 -57 8.5c-32 0 -60.5 -6.33301 -85.5 -19s-46 -29.667 -63 -51s-30 -45.833 -39 -73.5s-13.5 -56.167 -13.5 -85.5c0 -31.333 4.33301 -60.833 13 -88.5s21.834 -52 39.501 -73s40 -37.667 67 -50s58.5 -18.5 94.5 -18.5c24.667 0 46.667 3.5 66 10.5
s36 16.5 50 28.5s25.333 25.833 34 41.5s14.334 32.167 17.001 49.5h-124v121z" />
    <glyph glyph-name="gdotaccent" unicode="&#x121;" horiz-adv-x="633" 
d="M199 628c0 12.667 2.49805 24.834 7.49805 36.501s11.667 21.834 20 30.501s18.166 15.5 29.499 20.5s23.666 7.5 36.999 7.5s25.833 -2.5 37.5 -7.5s21.834 -11.833 30.501 -20.5s15.5 -18.834 20.5 -30.501s7.5 -23.834 7.5 -36.501
c0 -25.333 -9.16699 -47.166 -27.5 -65.499s-41.166 -27.5 -68.499 -27.5c-13.333 0 -25.666 2.5 -36.999 7.5s-21.166 11.667 -29.499 20s-15 18.166 -20 29.499s-7.5 23.333 -7.5 36zM301.998 364c-17.333 0 -33 -3.33301 -47 -10s-26 -15.667 -36 -27
s-17.667 -24.333 -23 -39s-8 -30.334 -8 -47.001s2.66699 -32.5 8 -47.5s13 -28 23 -39s22 -19.833 36 -26.5s29.667 -10 47 -10s33.166 3.33301 47.499 10s26.5 15.5 36.5 26.5s17.833 24 23.5 39s8.5 30.833 8.5 47.5s-2.83301 32.334 -8.5 47.001s-13.5 27.667 -23.5 39
s-22.167 20.333 -36.5 27s-30.166 10 -47.499 10zM570.998 3c0 -44 -6.33496 -80.668 -19.002 -110.001s-31.334 -53.333 -56.001 -72c-23.333 -17.333 -50.666 -30.333 -81.999 -39s-69.333 -13 -114 -13c-45.333 0 -83.166 5 -113.499 15s-55.5 23.667 -75.5 41
c-21.333 17.333 -38 38 -50 62s-18.667 49.333 -20 76h153c2 -20.667 11.833 -39.334 29.5 -56.001s43.167 -25 76.5 -25c36 0 64.667 8.66699 86 26s32 45 32 83v81c-13.333 -22 -33.333 -40 -60 -54s-55.667 -21 -87 -21c-34.667 0 -66.5 6 -95.5 18
s-53.833 28.833 -74.5 50.5s-36.834 47.334 -48.501 77.001s-17.5 62.5 -17.5 98.5s5.5 69.5 16.5 100.5s26.833 57.667 47.5 80s45.334 40 74.001 53s60.667 19.5 96 19.5c30.667 0 59.834 -7.16699 87.501 -21.5s48.167 -34.166 61.5 -59.499v69h153v-479z" />
    <glyph glyph-name="Gcommaaccent" unicode="&#x122;" horiz-adv-x="835" 
d="M455 370l362.999 -0.000976562v-121h-72c-7.33301 -40 -20 -76.333 -38 -109s-41.667 -60.667 -71 -84s-63.833 -41.5 -103.5 -54.5s-84.5 -19.5 -134.5 -19.5c-58.667 0 -110.834 10 -156.501 30s-84 46.833 -115 80.5s-54.667 72.667 -71 117
s-24.5 91.166 -24.5 140.499c0 48 8.33301 94.167 25 138.5s40.834 83.5 72.501 117.5s70.167 61.167 115.5 81.5s96.666 30.5 153.999 30.5c46 0 88.167 -6.5 126.5 -19.5s71.5 -30.667 99.5 -53s50.333 -48.333 67 -78s26.667 -61.167 30 -94.5h-173
c-2.66699 14 -8 27.333 -16 40s-18.5 23.834 -31.5 33.501s-28.167 17.334 -45.5 23.001s-36.333 8.5 -57 8.5c-32 0 -60.5 -6.33301 -85.5 -19s-46 -29.667 -63 -51s-30 -45.833 -39 -73.5s-13.5 -56.167 -13.5 -85.5c0 -31.333 4.33301 -60.833 13 -88.5
s21.834 -52 39.501 -73s40 -37.667 67 -50s58.5 -18.5 94.5 -18.5c24.667 0 46.667 3.5 66 10.5s36 16.5 50 28.5s25.333 25.833 34 41.5s14.334 32.167 17.001 49.5h-124v121zM324.999 -103.001c0 21.333 7.33203 39.499 21.999 54.499s32.667 22.5 54 22.5
c25.333 0 46 -9.16699 62 -27.5s24 -41.833 24 -70.5c0 -29.333 -3.66699 -54 -11 -74s-17.666 -36.167 -30.999 -48.5s-29.833 -21.5 -49.5 -27.5s-41.834 -9 -66.501 -9v48c16.667 0 30.5 1.83301 41.5 5.5s20.167 8.5 27.5 14.5c7.33301 5.33301 12.833 11.833 16.5 19.5
s5.83398 15.167 6.50098 22.5c-1.33301 -1.33301 -4 -2.66602 -8 -3.99902s-8 -2 -12 -2c-23.333 0 -41.833 7.33301 -55.5 22s-20.5 32.667 -20.5 54z" />
    <glyph glyph-name="gcommaaccent" unicode="&#x123;" horiz-adv-x="633" 
d="M386 626c0 -25.333 -8.66699 -46.8369 -26 -64.5039s-38.333 -26.5 -63 -26.5c-30.667 0 -55.167 10.667 -73.5 32s-27.5 49 -27.5 83s4.16699 62.833 12.5 86.5s20.333 42.834 36 57.501s35 25.334 58 32.001s49.167 10 78.5 10v-56c-36 0 -62.667 -7.66699 -80 -23
c-9.33301 -7.33301 -16 -15.166 -20 -23.499s-6.66699 -17.166 -8 -26.499c1.33301 1.33301 4.33301 2.83301 9 4.5s9.66699 2.5 15 2.5c27.333 0 49 -8.66699 65 -26s24 -38 24 -62zM302 363.996c-17.333 0 -33 -3.33301 -47 -10s-26 -15.667 -36 -27
s-17.667 -24.333 -23 -39s-8 -30.334 -8 -47.001s2.66699 -32.5 8 -47.5s13 -28 23 -39s22 -19.833 36 -26.5s29.667 -10 47 -10s33.166 3.33301 47.499 10s26.5 15.5 36.5 26.5s17.833 24 23.5 39s8.5 30.833 8.5 47.5s-2.83301 32.334 -8.5 47.001s-13.5 27.667 -23.5 39
s-22.167 20.333 -36.5 27s-30.166 10 -47.499 10zM571 2.99609c0 -44 -6.33496 -80.668 -19.002 -110.001s-31.334 -53.333 -56.001 -72c-23.333 -17.333 -50.666 -30.333 -81.999 -39s-69.333 -13 -114 -13c-45.333 0 -83.166 5 -113.499 15s-55.5 23.667 -75.5 41
c-21.333 17.333 -38 38 -50 62s-18.667 49.333 -20 76h153c2 -20.667 11.833 -39.334 29.5 -56.001s43.167 -25 76.5 -25c36 0 64.667 8.66699 86 26s32 45 32 83v81c-13.333 -22 -33.333 -40 -60 -54s-55.667 -21 -87 -21c-34.667 0 -66.5 6 -95.5 18
s-53.833 28.833 -74.5 50.5s-36.834 47.334 -48.501 77.001s-17.5 62.5 -17.5 98.5s5.5 69.5 16.5 100.5s26.833 57.667 47.5 80s45.334 40 74.001 53s60.667 19.5 96 19.5c30.667 0 59.834 -7.16699 87.501 -21.5s48.167 -34.166 61.5 -59.499v69h153v-479z" />
    <glyph glyph-name="Hcircumflex" unicode="&#x124;" horiz-adv-x="699" 
d="M350 993l196 -164l-76 -84l-120 107l-119 -106l-77 83zM471 278h-242v-278h-162v700h162v-283h242v283h161v-700h-161v278z" />
    <glyph glyph-name="hcircumflex" unicode="&#x125;" horiz-adv-x="597" 
d="M299 984l197 -164l-76 -84l-120 107l-120 -106l-76 83zM65 700l148.002 0.000976562v-288c13.333 25.333 33.333 45.333 60 60s58.667 22 96 22c31.333 0 57.666 -4.83301 78.999 -14.5s38.666 -23.167 51.999 -40.5c15.333 -18.667 25.666 -40.334 30.999 -65.001
s8 -54.334 8 -89.001v-285h-148v247c0 34.667 -6.16699 62.834 -18.5 84.501s-34.5 32.5 -66.5 32.5c-31.333 0 -54.666 -11 -69.999 -33s-23 -51.667 -23 -89v-242h-148v700z" />
    <glyph glyph-name="Hbar" unicode="&#x126;" horiz-adv-x="699" 
d="M471 506h-242v-89h242v89zM229 700v-106h242v106h161v-700h-161v278h-242v-278h-162v700h162z" />
    <glyph glyph-name="hbar" unicode="&#x127;" horiz-adv-x="597" 
d="M347 533l-133.998 0.000976562v-121c13.333 25.333 33.333 45.333 60 60s58.667 22 96 22c31.333 0 57.666 -4.83301 78.999 -14.5s38.666 -23.167 51.999 -40.5c15.333 -18.667 25.666 -40.334 30.999 -65.001s8 -54.334 8 -89.001v-285h-148v247
c0 34.667 -6.16699 62.834 -18.5 84.501s-34.5 32.5 -66.5 32.5c-31.333 0 -54.666 -11 -69.999 -33s-23 -51.667 -23 -89v-242h-148v533h-66v82h66v85h148v-85h134v-82z" />
    <glyph glyph-name="Itilde" unicode="&#x128;" horiz-adv-x="298" 
d="M219 884c16.667 0 30.167 4.5 40.5 13.5s19.833 19.833 28.5 32.5l81 -70c-18.667 -30 -40.667 -51.333 -66 -64s-51 -19 -77 -19c-18.667 0 -35.167 2.5 -49.5 7.5s-27.333 10.333 -39 16l-33 16c-10.333 5 -20.5 7.5 -30.5 7.5c-16.667 0 -30 -4.33301 -40 -13
s-19.667 -19.667 -29 -33l-78 77c19.333 27.333 41 46.833 65 58.5s49.333 17.5 76 17.5c18.667 0 35 -2.5 49 -7.5s26.833 -10.333 38.5 -16l32.5 -16c10 -5 20.333 -7.5 31 -7.5zM67 700h164v-700h-164v700z" />
    <glyph glyph-name="itilde" unicode="&#x129;" horiz-adv-x="283" 
d="M212 680c16.667 0 30.1689 4.33301 40.502 13s20.166 19.667 29.499 33l80 -71c-18.667 -29.333 -40.667 -50.5 -66 -63.5s-51 -19.5 -77 -19.5c-18.667 0 -35.167 2.5 -49.5 7.5s-27.333 10.333 -39 16l-33 16c-10.333 5 -20.5 7.5 -30.5 7.5
c-16.667 0 -29.834 -4.33301 -39.501 -13s-19.167 -19.667 -28.5 -33l-78 77c18.667 27.333 40.167 46.833 64.5 58.5s49.5 17.5 75.5 17.5c18.667 0 35 -2.33301 49 -7s26.833 -10 38.5 -16s22.5 -11.333 32.5 -16s20.333 -7 31 -7zM65.002 482h153v-482h-153v482z" />
    <glyph glyph-name="Imacron" unicode="&#x12a;" horiz-adv-x="298" 
d="M334 794h-368v115h368v-115zM67 700h164v-700h-164v700z" />
    <glyph glyph-name="imacron" unicode="&#x12b;" horiz-adv-x="283" 
d="M325 572h-368v115h368v-115zM65 482h153v-482h-153v482z" />
    <glyph glyph-name="Ibreve" unicode="&#x12c;" horiz-adv-x="298" 
d="M150 868c25.333 0 45.499 6.83301 60.499 20.5s25.167 30.834 30.5 51.501h123c-4 -26 -12.333 -49.667 -25 -71s-28.5 -39.5 -47.5 -54.5s-40.667 -26.5 -65 -34.5s-49.833 -12 -76.5 -12c-27.333 0 -53.166 4 -77.499 12s-46 19.5 -65 34.5s-34.667 33.167 -47 54.5
s-20.5 45 -24.5 71h122c6 -20.667 16.5 -37.834 31.5 -51.501s35.167 -20.5 60.5 -20.5zM66.999 700h164v-700h-164v700z" />
    <glyph glyph-name="ibreve" unicode="&#x12d;" horiz-adv-x="283" 
d="M143 652c25.333 0 45.499 6.83301 60.499 20.5s25.167 30.834 30.5 51.501h123c-4 -26 -12.333 -49.667 -25 -71s-28.5 -39.5 -47.5 -54.5s-40.667 -26.5 -65 -34.5s-49.833 -12 -76.5 -12c-27.333 0 -53.166 4 -77.499 12s-46 19.5 -65 34.5s-34.667 33.167 -47 54.5
s-20.5 45 -24.5 71h122c6 -20.667 16.5 -37.834 31.5 -51.501s35.167 -20.5 60.5 -20.5zM64.999 482h153v-482h-153v482z" />
    <glyph glyph-name="Iogonek" unicode="&#x12e;" horiz-adv-x="298" 
d="M231 0l-28.0029 0.000976562l-20 -14.5c-6.66699 -5 -12.667 -10.5 -18 -16.5s-9.66602 -12.833 -12.999 -20.5s-5 -16.5 -5 -26.5c0 -14 4 -26.333 12 -37s19.333 -16 34 -16c8 0 17 1 27 3s19.667 5 29 9l-2 -78c-13.333 -4.66699 -27.666 -8.33398 -42.999 -11.001
s-32.666 -4 -51.999 -4c-42.667 0 -74.167 9.5 -94.5 28.5s-30.5 41.833 -30.5 68.5c0 21.333 6.5 41 19.5 59s32.833 36.667 59.5 56h-39v700h164v-700z" />
    <glyph glyph-name="iogonek" unicode="&#x12f;" horiz-adv-x="283" 
d="M43 642c0 27.333 9.33301 50.333 28 69s42 28 70 28c14 0 27 -2.5 39 -7.5s22.5 -11.833 31.5 -20.5s16 -19 21 -31s7.5 -24.667 7.5 -38s-2.5 -25.833 -7.5 -37.5s-12 -22 -21 -31s-19.5 -16 -31.5 -21s-25 -7.5 -39 -7.5s-26.833 2.5 -38.5 7.5s-22 12 -31 21
s-16 19.333 -21 31s-7.5 24.167 -7.5 37.5zM237 -197c-13.333 -4.66699 -27.6699 -8.33301 -43.0029 -11s-32.666 -4 -51.999 -4c-43.333 0 -75.166 9.5 -95.499 28.5s-30.5 41.833 -30.5 68.5c0 21.333 6.5 41 19.5 59s32.833 36.667 59.5 56h-30v482h153v-482h-25
l-20 -14.5c-6.66699 -5 -12.667 -10.5 -18 -16.5s-9.66602 -12.833 -12.999 -20.5s-5 -16.5 -5 -26.5c0 -14 4 -26.333 12 -37s19.333 -16 34 -16c8 0 17 1 27 3s19.667 5 29 9z" />
    <glyph glyph-name="Idotaccent" unicode="&#x130;" horiz-adv-x="298" 
d="M54 861c0 12.667 2.5 24.834 7.5 36.501s11.667 21.667 20 30s18.166 15 29.499 20s23.666 7.5 36.999 7.5s25.833 -2.5 37.5 -7.5s21.834 -11.667 30.501 -20s15.5 -18.333 20.5 -30s7.5 -23.834 7.5 -36.501s-2.5 -24.667 -7.5 -36s-11.833 -21.166 -20.5 -29.499
s-18.834 -15 -30.501 -20s-24.167 -7.5 -37.5 -7.5s-25.666 2.5 -36.999 7.5s-21.166 11.667 -29.499 20s-15 18.166 -20 29.499s-7.5 23.333 -7.5 36zM67 700h164v-700h-164v700z" />
    <glyph glyph-name="dotlessi" unicode="&#x131;" horiz-adv-x="258" 
d="M53 482h153v-482h-153v482z" />
    <glyph glyph-name="Jcircumflex" unicode="&#x134;" horiz-adv-x="583" 
d="M442 993l197 -164l-76 -84l-120 107l-119 -106l-77 83zM523 241c0 -83.333 -22.499 -147.164 -67.499 -191.497s-107.833 -66.5 -188.5 -66.5c-42 0 -79 6.66699 -111 20s-58.667 31.666 -80 54.999s-37.333 50.666 -48 81.999s-16 65.333 -16 102h162
c0 -34.667 7.66699 -63.334 23 -86.001s38.666 -34 69.999 -34s55 10.5 71 31.5s24 50.167 24 87.5v459h161v-459z" />
    <glyph glyph-name="jcircumflex" unicode="&#x135;" horiz-adv-x="283" 
d="M142 781l197 -164l-76 -84l-120 107l-119 -106l-77 83zM218 -75c0 -31.333 -3.49805 -57.166 -10.498 -77.499s-16.333 -36.166 -28 -47.499s-25.334 -19.166 -41.001 -23.499s-32.167 -6.5 -49.5 -6.5c-19.333 0 -39 1.16699 -59 3.5s-34.667 5.16602 -44 8.49902v114
c9.33301 -2.66699 16.666 -4.33398 21.999 -5.00098s11 -1 17 -1c13.333 0 23.333 3.66699 30 11s10 19.666 10 36.999v544h153v-557z" />
    <glyph glyph-name="Kcommaaccent" unicode="&#x136;" horiz-adv-x="659" 
d="M455 0l-226 296v-296h-162v700h162v-297l226 297h195l-277 -350l277 -350h-195zM253 -93c0 21.333 7.33594 39.499 22.0029 54.499s32.667 22.5 54 22.5c25.333 0 46 -9.16699 62 -27.5s24 -41.833 24 -70.5c0 -29.333 -3.66699 -54 -11 -74
s-17.666 -36.167 -30.999 -48.5s-29.833 -21.5 -49.5 -27.5s-41.834 -9 -66.501 -9v48c16 0 29.667 1.83301 41 5.5s20.666 8.5 27.999 14.5c7.33301 5.33301 12.666 11.833 15.999 19.5s5.66602 15.167 6.99902 22.5c-1.33301 -1.33301 -4 -2.66602 -8 -3.99902
s-8 -2 -12 -2c-23.333 0 -41.833 7.33301 -55.5 22s-20.5 32.667 -20.5 54z" />
    <glyph glyph-name="kcommaaccent" unicode="&#x137;" horiz-adv-x="554" 
d="M549 482l-188 -241l187 -241h-182l-148 202v-202h-153v700h153v-422l149 204h182zM197 -93c0 21.333 7.33691 39.499 22.0039 54.499s32.334 22.5 53.001 22.5c25.333 0 46.166 -9.16699 62.499 -27.5s24.5 -41.833 24.5 -70.5c0 -29.333 -3.66699 -54 -11 -74
s-17.833 -36.167 -31.5 -48.5s-30.334 -21.5 -50.001 -27.5s-41.834 -9 -66.501 -9v48c16.667 0 30.667 1.83301 42 5.5s20.666 8.5 27.999 14.5c7.33301 5.33301 12.666 11.833 15.999 19.5s5.33301 15.167 6 22.5c-1.33301 -1.33301 -3.83301 -2.66602 -7.5 -3.99902
s-7.83398 -2 -12.501 -2c-23.333 0 -41.666 7.33301 -54.999 22s-20 32.667 -20 54z" />
    <glyph glyph-name="kgreenlandic" unicode="&#x138;" horiz-adv-x="554" 
d="M361 241l187 -241h-182l-148 202v-202h-153v482h153v-204l149 204h182z" />
    <glyph glyph-name="Lacute" unicode="&#x139;" horiz-adv-x="453" 
d="M35 740l-48 106l276 128l48 -106zM428 140v-140h-361v700h162v-560h199z" />
    <glyph glyph-name="lacute" unicode="&#x13a;" horiz-adv-x="283" 
d="M28 747l-48 106l276 128l48 -106zM65 700h153v-700h-153v700z" />
    <glyph glyph-name="Lcommaaccent" unicode="&#x13b;" horiz-adv-x="453" 
d="M67 700h162v-560h199v-140h-361v700zM145 -93c0 21.333 7.33203 39.499 21.999 54.499s32.667 22.5 54 22.5c25.333 0 46 -9.16699 62 -27.5s24 -41.833 24 -70.5c0 -29.333 -3.66699 -54 -11 -74s-17.666 -36.167 -30.999 -48.5s-29.833 -21.5 -49.5 -27.5
s-41.834 -9 -66.501 -9v48c16.667 0 30.5 1.83301 41.5 5.5s20.167 8.5 27.5 14.5c7.33301 5.33301 12.833 11.833 16.5 19.5s5.83398 15.167 6.50098 22.5c-1.33301 -1.33301 -4 -2.66602 -8 -3.99902s-8 -2 -12 -2c-23.333 0 -41.833 7.33301 -55.5 22
s-20.5 32.667 -20.5 54z" />
    <glyph glyph-name="lcommaaccent" unicode="&#x13c;" horiz-adv-x="283" 
d="M65 700h153v-700h-153v700zM61 -93c0 21.333 7.33691 39.499 22.0039 54.499s32.334 22.5 53.001 22.5c25.333 0 46.166 -9.16699 62.499 -27.5s24.5 -41.833 24.5 -70.5c0 -29.333 -3.66699 -54 -11 -74s-17.833 -36.167 -31.5 -48.5s-30.334 -21.5 -50.001 -27.5
s-41.834 -9 -66.501 -9v48c16.667 0 30.667 1.83301 42 5.5s20.666 8.5 27.999 14.5c7.33301 5.33301 12.666 11.833 15.999 19.5s5.33301 15.167 6 22.5c-1.33301 -1.33301 -3.83301 -2.66602 -7.5 -3.99902s-7.83398 -2 -12.501 -2c-23.333 0 -41.666 7.33301 -54.999 22
s-20 32.667 -20 54z" />
    <glyph glyph-name="Lcaron" unicode="&#x13d;" horiz-adv-x="453" 
d="M312 643c0 13.333 2.50098 26.001 7.50098 38.001s11.667 22.333 20 31s18.166 15.5 29.499 20.5s23.666 7.5 36.999 7.5c32.667 0 58.834 -11.333 78.501 -34s29.5 -52 29.5 -88s-4.5 -66.667 -13.5 -92s-22 -45.666 -39 -60.999s-37.667 -26.666 -62 -33.999
s-52.166 -11 -83.499 -11v59c20.667 0 37.834 2.33301 51.501 7s25.167 10.667 34.5 18s16.166 15.666 20.499 24.999s7.16602 18.666 8.49902 27.999c-1.33301 -1.33301 -4.5 -2.83301 -9.5 -4.5s-10.167 -2.5 -15.5 -2.5c-29.333 0 -52.333 9.16699 -69 27.5
s-25 40.166 -25 65.499zM428.001 140.001v-140h-361v700h162v-560h199z" />
    <glyph glyph-name="lcaron" unicode="&#x13e;" horiz-adv-x="492" 
d="M280 643c0 13.333 2.50098 26.001 7.50098 38.001s11.667 22.333 20 31s18.166 15.5 29.499 20.5s23.666 7.5 36.999 7.5c32.667 0 58.834 -11.333 78.501 -34s29.5 -52 29.5 -88s-4.5 -66.667 -13.5 -92s-22 -45.666 -39 -60.999s-37.667 -26.666 -62 -33.999
s-52.166 -11 -83.499 -11v59c20.667 0 37.834 2.33301 51.501 7s25.167 10.667 34.5 18s16.166 15.666 20.499 24.999s7.16602 18.666 8.49902 27.999c-1.33301 -1.33301 -4.5 -2.83301 -9.5 -4.5s-10.167 -2.5 -15.5 -2.5c-29.333 0 -52.333 9.16699 -69 27.5
s-25 40.166 -25 65.499zM65.001 700.001h153v-700h-153v700z" />
    <glyph glyph-name="Ldot" unicode="&#x13f;" horiz-adv-x="478" 
d="M428 140v-140h-361v700h162v-560h199zM295 410c0 14 2.5 27 7.5 39s12 22.5 21 31.5s19.667 16.167 32 21.5s25.5 8 39.5 8c29.333 0 53.666 -9.66699 72.999 -29s29 -43 29 -71s-9.66699 -51.667 -29 -71s-43.666 -29 -72.999 -29c-14 0 -27.167 2.66699 -39.5 8
s-23 12.5 -32 21.5s-16 19.5 -21 31.5s-7.5 25 -7.5 39z" />
    <glyph glyph-name="ldot" unicode="&#x140;" horiz-adv-x="440" 
d="M65 700h153v-700h-153v700zM261 344c0 14 2.66699 27 8 39s12.5 22.5 21.5 31.5s19.667 16.167 32 21.5s25.5 8 39.5 8s27.333 -2.66699 40 -8s23.5 -12.5 32.5 -21.5s16.167 -19.5 21.5 -31.5s8 -25 8 -39s-2.66699 -27 -8 -39s-12.5 -22.5 -21.5 -31.5
s-19.833 -16.167 -32.5 -21.5s-26 -8 -40 -8s-27.167 2.66699 -39.5 8s-23 12.5 -32 21.5s-16.167 19.5 -21.5 31.5s-8 25 -8 39z" />
    <glyph glyph-name="Lslash" unicode="&#x141;" horiz-adv-x="456" 
d="M431 140v-140h-361v256l-43 -20v96l43 20v348h162v-273l137 62v-96l-137 -62v-191h199z" />
    <glyph glyph-name="lslash" unicode="&#x142;" horiz-adv-x="290" 
d="M66 281l-64 -33v94l64 33v325h164v-248l66 35v-96l-66 -34v-357h-164v281z" />
    <glyph glyph-name="Nacute" unicode="&#x143;" horiz-adv-x="717" 
d="M244 740l-48 106l276 128l48 -106zM489 244v456h161v-700h-169l-252 450v-450h-162v700h169z" />
    <glyph glyph-name="nacute" unicode="&#x144;" horiz-adv-x="607" 
d="M190 509l-49 106l276 128l49 -106zM65 482l152.999 -0.000976562v-70c13.333 26 33.5 46.167 60.5 60.5s59.5 21.5 97.5 21.5c31.333 0 58.333 -4.83301 81 -14.5s40.667 -23.167 54 -40.5c15.333 -18.667 25.5 -40.167 30.5 -64.5s7.5 -53.833 7.5 -88.5v-286h-153v247
c0 34.667 -6.16699 62.834 -18.5 84.501s-34.5 32.5 -66.5 32.5c-31.333 0 -54.666 -11 -69.999 -33s-23 -51.667 -23 -89v-242h-153v482z" />
    <glyph glyph-name="Ncommaaccent" unicode="&#x145;" horiz-adv-x="717" 
d="M481 0l-252 450v-450h-162v700h169l253 -456v456h161v-700h-169zM277 -93c0 21.333 7.33203 39.499 21.999 54.499s32.667 22.5 54 22.5c25.333 0 46 -9.16699 62 -27.5s24 -41.833 24 -70.5c0 -29.333 -3.66699 -54 -11 -74s-17.666 -36.167 -30.999 -48.5
s-29.833 -21.5 -49.5 -27.5s-41.834 -9 -66.501 -9v48c16.667 0 30.5 1.83301 41.5 5.5s20.167 8.5 27.5 14.5c7.33301 5.33301 12.833 11.833 16.5 19.5s5.83398 15.167 6.50098 22.5c-1.33301 -1.33301 -4 -2.66602 -8 -3.99902s-8 -2 -12 -2
c-23.333 0 -41.833 7.33301 -55.5 22s-20.5 32.667 -20.5 54z" />
    <glyph glyph-name="ncommaaccent" unicode="&#x146;" horiz-adv-x="607" 
d="M65 0l-0.000976562 481.999h153v-70c13.333 26 33.5 46.167 60.5 60.5s59.5 21.5 97.5 21.5c31.333 0 58.333 -4.83301 81 -14.5s40.667 -23.167 54 -40.5c15.333 -18.667 25.5 -40.167 30.5 -64.5s7.5 -53.833 7.5 -88.5v-286h-153v247
c0 34.667 -6.16699 62.834 -18.5 84.501s-34.5 32.5 -66.5 32.5c-31.333 0 -54.666 -11 -69.999 -33s-23 -51.667 -23 -89v-242h-153zM232.999 -93.001c0 21.333 7.33691 39.499 22.0039 54.499s32.334 22.5 53.001 22.5c25.333 0 46.166 -9.16699 62.499 -27.5
s24.5 -41.833 24.5 -70.5c0 -29.333 -3.66699 -54 -11 -74s-17.833 -36.167 -31.5 -48.5s-30.334 -21.5 -50.001 -27.5s-41.834 -9 -66.501 -9v48c16.667 0 30.667 1.83301 42 5.5s20.666 8.5 27.999 14.5c7.33301 5.33301 12.666 11.833 15.999 19.5s5.33301 15.167 6 22.5
c-1.33301 -1.33301 -3.83301 -2.66602 -7.5 -3.99902s-7.83398 -2 -12.501 -2c-23.333 0 -41.666 7.33301 -54.999 22s-20 32.667 -20 54z" />
    <glyph glyph-name="Ncaron" unicode="&#x147;" horiz-adv-x="717" 
d="M165 907l76 83l120 -108l120 108l76 -83l-197 -165zM489 244v456h161v-700h-169l-252 450v-450h-162v700h169z" />
    <glyph glyph-name="ncaron" unicode="&#x148;" horiz-adv-x="607" 
d="M117 691l77 82l119 -108l120 109l76 -83l-197 -165zM65 0l-0.000976562 481.999h153v-70c13.333 26 33.5 46.167 60.5 60.5s59.5 21.5 97.5 21.5c31.333 0 58.333 -4.83301 81 -14.5s40.667 -23.167 54 -40.5c15.333 -18.667 25.5 -40.167 30.5 -64.5
s7.5 -53.833 7.5 -88.5v-286h-153v247c0 34.667 -6.16699 62.834 -18.5 84.501s-34.5 32.5 -66.5 32.5c-31.333 0 -54.666 -11 -69.999 -33s-23 -51.667 -23 -89v-242h-153z" />
    <glyph glyph-name="napostrophe" unicode="&#x149;" horiz-adv-x="607" 
d="M-83 718c0 22.667 7.83008 41.9961 23.4971 57.9961s34.834 24 57.501 24c27.333 0 49.5 -9.66699 66.5 -29s25.5 -44.666 25.5 -75.999c0 -61.333 -15 -104.666 -45 -129.999s-71.333 -38.333 -124 -39v52c17.333 0 31.833 1.83301 43.5 5.5s21.5 8.5 29.5 14.5
c8 6.66699 13.833 13.834 17.5 21.501s6.16699 15.5 7.5 23.5c-1.33301 -1.33301 -4.16602 -2.66602 -8.49902 -3.99902s-8.5 -2 -12.5 -2c-25.333 0 -45.166 8 -59.499 24s-21.5 35 -21.5 57zM64.9971 -0.00390625l-0.000976562 481.999h153v-70
c13.333 26 33.5 46.167 60.5 60.5s59.5 21.5 97.5 21.5c31.333 0 58.333 -4.83301 81 -14.5s40.667 -23.167 54 -40.5c15.333 -18.667 25.5 -40.167 30.5 -64.5s7.5 -53.833 7.5 -88.5v-286h-153v247c0 34.667 -6.16699 62.834 -18.5 84.501s-34.5 32.5 -66.5 32.5
c-31.333 0 -54.666 -11 -69.999 -33s-23 -51.667 -23 -89v-242h-153z" />
    <glyph glyph-name="Eng" unicode="&#x14a;" horiz-adv-x="717" 
d="M489 244v455.999h161v-688c0 -83.333 -22.5 -147 -67.5 -191s-107.833 -66 -188.5 -66c-36 0 -68 6.83301 -96 20.5s-52.333 32.167 -73 55.5l94 100c12.667 -11.333 24.334 -20.5 35.001 -27.5s24 -10.5 40 -10.5c30 0 52.667 9.83301 68 29.5
s23.666 45.834 24.999 78.501l-258 449v-450h-162v700h162z" />
    <glyph glyph-name="eng" unicode="&#x14b;" horiz-adv-x="607" 
d="M249 -76c10 -9.33301 19.6689 -17 29.002 -23s21.333 -9 36 -9c27.333 0 47.666 9.5 60.999 28.5s20.333 43.5 21 73.5v253c0 34.667 -6.16699 62.834 -18.5 84.501s-34.5 32.5 -66.5 32.5c-31.333 0 -54.666 -11 -69.999 -33s-23 -51.667 -23 -89v-242h-153v482h153v-70
c13.333 26 33.5 46.167 60.5 60.5s59.5 21.5 97.5 21.5c31.333 0 58.333 -4.83301 81 -14.5s40.667 -23.167 54 -40.5c15.333 -18.667 25.5 -40.167 30.5 -64.5s7.5 -53.833 7.5 -88.5v-298c0 -70.667 -18.167 -124.834 -54.5 -162.501s-87.5 -56.5 -153.5 -56.5
c-32.667 0 -61.334 5.5 -86.001 16.5s-46.334 25.5 -65.001 43.5z" />
    <glyph glyph-name="Omacron" unicode="&#x14c;" horiz-adv-x="805" 
d="M587 794h-368v115h368v-115zM403 -18c-58 0 -110 10.167 -156 30.5s-85 47.5 -117 81.5s-56.333 73.167 -73 117.5s-25 90.5 -25 138.5s8.33301 94.167 25 138.5s41 83.5 73 117.5s71 61.167 117 81.5s98 30.5 156 30.5s109.833 -10.167 155.5 -30.5
s84.5 -47.5 116.5 -81.5s56.333 -73.167 73 -117.5s25 -90.5 25 -138.5s-8.33301 -94.167 -25 -138.5s-41 -83.5 -73 -117.5s-70.833 -61.167 -116.5 -81.5s-97.5 -30.5 -155.5 -30.5zM403 128c32 0 60.667 6.16699 86 18.5s46.833 28.833 64.5 49.5
s31.167 44.334 40.5 71.001s14 54.334 14 83.001s-4.66699 56.334 -14 83.001s-22.833 50.334 -40.5 71.001s-39.167 37.167 -64.5 49.5s-54 18.5 -86 18.5s-60.667 -6.16699 -86 -18.5s-46.833 -28.833 -64.5 -49.5s-31.167 -44.334 -40.5 -71.001s-14 -54.334 -14 -83.001
s4.66699 -56.334 14 -83.001s22.833 -50.334 40.5 -71.001s39.167 -37.167 64.5 -49.5s54 -18.5 86 -18.5z" />
    <glyph glyph-name="omacron" unicode="&#x14d;" horiz-adv-x="599" 
d="M484 572h-368v115h368v-115zM299 -13c-41.333 0 -78.5 6.83301 -111.5 20.5s-61 32 -84 55s-40.667 49.833 -53 80.5s-18.5 63.334 -18.5 98.001s6.16699 67.334 18.5 98.001s30 57.5 53 80.5s51 41.333 84 55s70.167 20.5 111.5 20.5c42 0 79.5 -6.83301 112.5 -20.5
s61 -32 84 -55s40.667 -49.833 53 -80.5s18.5 -63.334 18.5 -98.001s-6.16699 -67.334 -18.5 -98.001s-30 -57.5 -53 -80.5s-51 -41.333 -84 -55s-70.5 -20.5 -112.5 -20.5zM299 118c17.333 0 33.166 3.16699 47.499 9.5s26.5 15.166 36.5 26.499s17.833 24.333 23.5 39
s8.5 30.667 8.5 48c0 16.667 -2.83301 32.5 -8.5 47.5s-13.5 28 -23.5 39s-22.167 19.833 -36.5 26.5s-30.166 10 -47.499 10s-33 -3.33301 -47 -10s-26 -15.5 -36 -26.5s-17.667 -24 -23 -39s-8 -30.833 -8 -47.5c0 -17.333 2.66699 -33.333 8 -48s13 -27.667 23 -39
s22 -20.166 36 -26.499s29.667 -9.5 47 -9.5z" />
    <glyph glyph-name="Obreve" unicode="&#x14e;" horiz-adv-x="805" 
d="M403 868c25.333 0 45.499 6.83301 60.499 20.5s25.167 30.834 30.5 51.501h123c-4 -26 -12.333 -49.667 -25 -71s-28.5 -39.5 -47.5 -54.5s-40.667 -26.5 -65 -34.5s-49.833 -12 -76.5 -12c-27.333 0 -53.166 4 -77.499 12s-46 19.5 -65 34.5s-34.667 33.167 -47 54.5
s-20.5 45 -24.5 71h122c6 -20.667 16.5 -37.834 31.5 -51.501s35.167 -20.5 60.5 -20.5zM402.999 -18c-58 0 -110 10.167 -156 30.5s-85 47.5 -117 81.5s-56.333 73.167 -73 117.5s-25 90.5 -25 138.5s8.33301 94.167 25 138.5s41 83.5 73 117.5s71 61.167 117 81.5
s98 30.5 156 30.5s109.833 -10.167 155.5 -30.5s84.5 -47.5 116.5 -81.5s56.333 -73.167 73 -117.5s25 -90.5 25 -138.5s-8.33301 -94.167 -25 -138.5s-41 -83.5 -73 -117.5s-70.833 -61.167 -116.5 -81.5s-97.5 -30.5 -155.5 -30.5zM402.999 128
c32 0 60.667 6.16699 86 18.5s46.833 28.833 64.5 49.5s31.167 44.334 40.5 71.001s14 54.334 14 83.001s-4.66699 56.334 -14 83.001s-22.833 50.334 -40.5 71.001s-39.167 37.167 -64.5 49.5s-54 18.5 -86 18.5s-60.667 -6.16699 -86 -18.5s-46.833 -28.833 -64.5 -49.5
s-31.167 -44.334 -40.5 -71.001s-14 -54.334 -14 -83.001s4.66699 -56.334 14 -83.001s22.833 -50.334 40.5 -71.001s39.167 -37.167 64.5 -49.5s54 -18.5 86 -18.5z" />
    <glyph glyph-name="obreve" unicode="&#x14f;" horiz-adv-x="599" 
d="M299 652c25.333 0 45.499 6.83301 60.499 20.5s25.167 30.834 30.5 51.501h123c-4 -26 -12.333 -49.667 -25 -71s-28.5 -39.5 -47.5 -54.5s-40.667 -26.5 -65 -34.5s-49.833 -12 -76.5 -12c-27.333 0 -53.166 4 -77.499 12s-46 19.5 -65 34.5s-34.667 33.167 -47 54.5
s-20.5 45 -24.5 71h123c5.33301 -20.667 15.5 -37.834 30.5 -51.501s35.167 -20.5 60.5 -20.5zM298.999 -13c-41.333 0 -78.5 6.83301 -111.5 20.5s-61 32 -84 55s-40.667 49.833 -53 80.5s-18.5 63.334 -18.5 98.001s6.16699 67.334 18.5 98.001s30 57.5 53 80.5
s51 41.333 84 55s70.167 20.5 111.5 20.5c42 0 79.5 -6.83301 112.5 -20.5s61 -32 84 -55s40.667 -49.833 53 -80.5s18.5 -63.334 18.5 -98.001s-6.16699 -67.334 -18.5 -98.001s-30 -57.5 -53 -80.5s-51 -41.333 -84 -55s-70.5 -20.5 -112.5 -20.5zM298.999 118
c17.333 0 33.166 3.16699 47.499 9.5s26.5 15.166 36.5 26.499s17.833 24.333 23.5 39s8.5 30.667 8.5 48c0 16.667 -2.83301 32.5 -8.5 47.5s-13.5 28 -23.5 39s-22.167 19.833 -36.5 26.5s-30.166 10 -47.499 10s-33 -3.33301 -47 -10s-26 -15.5 -36 -26.5
s-17.667 -24 -23 -39s-8 -30.833 -8 -47.5c0 -17.333 2.66699 -33.333 8 -48s13 -27.667 23 -39s22 -20.166 36 -26.499s29.667 -9.5 47 -9.5z" />
    <glyph glyph-name="Ohungarumlaut" unicode="&#x150;" horiz-adv-x="805" 
d="M208 798l125 180l106 -62l-169 -146zM528 978l106 -62l-169 -146l-62 28zM403 -18c-58 0 -110 10.167 -156 30.5s-85 47.5 -117 81.5s-56.333 73.167 -73 117.5s-25 90.5 -25 138.5s8.33301 94.167 25 138.5s41 83.5 73 117.5s71 61.167 117 81.5s98 30.5 156 30.5
s109.833 -10.167 155.5 -30.5s84.5 -47.5 116.5 -81.5s56.333 -73.167 73 -117.5s25 -90.5 25 -138.5s-8.33301 -94.167 -25 -138.5s-41 -83.5 -73 -117.5s-70.833 -61.167 -116.5 -81.5s-97.5 -30.5 -155.5 -30.5zM403 128c32 0 60.667 6.16699 86 18.5
s46.833 28.833 64.5 49.5s31.167 44.334 40.5 71.001s14 54.334 14 83.001s-4.66699 56.334 -14 83.001s-22.833 50.334 -40.5 71.001s-39.167 37.167 -64.5 49.5s-54 18.5 -86 18.5s-60.667 -6.16699 -86 -18.5s-46.833 -28.833 -64.5 -49.5s-31.167 -44.334 -40.5 -71.001
s-14 -54.334 -14 -83.001s4.66699 -56.334 14 -83.001s22.833 -50.334 40.5 -71.001s39.167 -37.167 64.5 -49.5s54 -18.5 86 -18.5z" />
    <glyph glyph-name="ohungarumlaut" unicode="&#x151;" horiz-adv-x="599" 
d="M380 547l-62 28l125 179l106 -61zM248 754l106 -61l-169 -146l-62 28zM299 -13c-41.333 0 -78.5 6.83301 -111.5 20.5s-61 32 -84 55s-40.667 49.833 -53 80.5s-18.5 63.334 -18.5 98.001s6.16699 67.334 18.5 98.001s30 57.5 53 80.5s51 41.333 84 55
s70.167 20.5 111.5 20.5c42 0 79.5 -6.83301 112.5 -20.5s61 -32 84 -55s40.667 -49.833 53 -80.5s18.5 -63.334 18.5 -98.001s-6.16699 -67.334 -18.5 -98.001s-30 -57.5 -53 -80.5s-51 -41.333 -84 -55s-70.5 -20.5 -112.5 -20.5zM299 118
c17.333 0 33.166 3.16699 47.499 9.5s26.5 15.166 36.5 26.499s17.833 24.333 23.5 39s8.5 30.667 8.5 48c0 16.667 -2.83301 32.5 -8.5 47.5s-13.5 28 -23.5 39s-22.167 19.833 -36.5 26.5s-30.166 10 -47.499 10s-33 -3.33301 -47 -10s-26 -15.5 -36 -26.5
s-17.667 -24 -23 -39s-8 -30.833 -8 -47.5c0 -17.333 2.66699 -33.333 8 -48s13 -27.667 23 -39s22 -20.166 36 -26.499s29.667 -9.5 47 -9.5z" />
    <glyph glyph-name="OE" unicode="&#x152;" horiz-adv-x="1097" 
d="M403 127c32 0 60.667 6.16699 86 18.5s46.833 28.833 64.5 49.5s31.167 44.334 40.5 71.001s14 54.334 14 83.001s-4.66699 56.167 -14 82.5s-22.833 49.833 -40.5 70.5s-39.167 37.167 -64.5 49.5s-54 18.5 -86 18.5s-60.667 -6.16699 -86 -18.5
s-46.833 -28.833 -64.5 -49.5s-31.167 -44.167 -40.5 -70.5s-14 -53.833 -14 -82.5s4.66699 -56.334 14 -83.001s22.833 -50.334 40.5 -71.001s39.167 -37.167 64.5 -49.5s54 -18.5 86 -18.5zM770 570v-158.999h266v-127h-266v-154h266v-130h-427v47
c-26.667 -20.667 -57.167 -36.834 -91.5 -48.501s-72.5 -17.5 -114.5 -17.5c-58 0 -110 10.167 -156 30.5s-85 47.5 -117 81.5s-56.333 73.167 -73 117.5s-25 90.5 -25 138.5s8.33301 94.167 25 138.5s41 83.5 73 117.5s71 61.167 117 81.5s98 30.5 156 30.5
c42 0 80.167 -6 114.5 -18s64.833 -28.333 91.5 -49v50h427v-130h-266z" />
    <glyph glyph-name="oe" unicode="&#x153;" horiz-adv-x="958" 
d="M569 204c0 -14.667 1.83301 -28.501 5.5 -41.501s9.66699 -24.333 18 -34s19.166 -17.334 32.499 -23.001s30 -8.5 50 -8.5c26.667 0 46.834 5.33301 60.501 16s23.167 23.667 28.5 39h150c-4 -22.667 -12.167 -44 -24.5 -64s-28.666 -37.5 -48.999 -52.5
s-44.333 -26.833 -72 -35.5s-58.834 -13 -93.501 -13c-40.667 0 -76.667 6.33301 -108 19s-57.666 30 -78.999 52c-22.667 -21.333 -49.834 -38.5 -81.501 -51.5s-67.5 -19.5 -107.5 -19.5c-41.333 0 -78.5 6.83301 -111.5 20.5s-61 32 -84 55s-40.667 49.833 -53 80.5
s-18.5 63.334 -18.5 98.001s6.16699 67.334 18.5 98.001s30 57.5 53 80.5s51 41.333 84 55s70.167 20.5 111.5 20.5c40 0 75.667 -6.5 107 -19.5s58.333 -30.167 81 -51.5c21.333 22 47.5 39.333 78.5 52s66.5 19 106.5 19c38 0 72.167 -6 102.5 -18s56.333 -28 78 -48
s38.334 -43.333 50.001 -70s17.5 -54.667 17.5 -84c0 -10 -0.333008 -20.667 -1 -32s-2.33398 -24.333 -5.00098 -39h-345zM670 386.999c-28.667 0 -52.5 -8.16699 -71.5 -24.5s-28.5 -39.833 -28.5 -70.5h199c0 29.333 -9 52.5 -27 69.5s-42 25.5 -72 25.5zM299 117.999
c34.667 0 62.667 11.666 84 34.999s32 52.666 32 87.999c0 34.667 -10.667 63.834 -32 87.501s-49.333 35.5 -84 35.5c-17.333 0 -33 -3.33301 -47 -10s-26 -15.5 -36 -26.5s-17.667 -24 -23 -39s-8 -30.833 -8 -47.5c0 -17.333 2.66699 -33.333 8 -48s13 -27.667 23 -39
s22 -20.166 36 -26.499s29.667 -9.5 47 -9.5z" />
    <glyph glyph-name="Racute" unicode="&#x154;" horiz-adv-x="654" 
d="M213 740l-48 106l276 128l48 -106zM340 326c16.667 0 32 3.33301 46 10s25.833 15.5 35.5 26.5s17.167 23.833 22.5 38.5s8 30 8 46s-2.66699 31.333 -8 46s-12.833 27.5 -22.5 38.5s-21.5 19.833 -35.5 26.5s-29.333 10 -46 10h-111v-242h111zM67 700
l294.001 -0.000976562c38.667 0 73.667 -6.83301 105 -20.5s58.166 -32 80.499 -55s39.5 -49.833 51.5 -80.5s18 -63 18 -97c0 -49.333 -12.167 -94.166 -36.5 -134.499s-58.5 -70.833 -102.5 -91.5l140 -221h-188l-124 194h-76v-194h-162v700z" />
    <glyph glyph-name="racute" unicode="&#x155;" horiz-adv-x="417" 
d="M95 522l-48 106l276 128l48 -106zM411 343c-10.667 2.66699 -19.666 4.50098 -26.999 5.50098s-16.333 1.5 -27 1.5c-42 0 -75.667 -12.333 -101 -37s-38 -66.334 -38 -125.001v-188h-153v482h153v-78c11.333 22.667 30.166 42.667 56.499 60s56.5 26 90.5 26
c18 0 33.333 -2.66699 46 -8v-139z" />
    <glyph glyph-name="Rcommaaccent" unicode="&#x156;" horiz-adv-x="654" 
d="M67 700l294.001 -0.000976562c38.667 0 73.667 -6.83301 105 -20.5s58.166 -32 80.499 -55s39.5 -49.833 51.5 -80.5s18 -63 18 -97c0 -49.333 -12.167 -94.166 -36.5 -134.499s-58.5 -70.833 -102.5 -91.5l140 -221h-188l-124 194h-76v-194h-162v700zM229.001 567.999
v-242h111c16.667 0 32 3.33301 46 10s25.833 15.5 35.5 26.5s17.167 23.833 22.5 38.5s8 30 8 46s-2.66699 31.333 -8 46s-12.833 27.5 -22.5 38.5s-21.5 19.833 -35.5 26.5s-29.333 10 -46 10h-111zM246.001 -93.001c0 21.333 7.33398 39.499 22.001 54.499
s32.334 22.5 53.001 22.5c25.333 0 46.166 -9.16699 62.499 -27.5s24.5 -41.833 24.5 -70.5c0 -29.333 -3.66699 -54 -11 -74s-17.833 -36.167 -31.5 -48.5s-30.334 -21.5 -50.001 -27.5s-41.834 -9 -66.501 -9v48c32 0 55 6.5 69 19.5s21.667 27.167 23 42.5
c-0.666992 -1.33301 -3.16699 -2.66602 -7.5 -3.99902s-8.5 -2 -12.5 -2c-23.333 0 -41.666 7.33301 -54.999 22s-20 32.667 -20 54z" />
    <glyph glyph-name="rcommaaccent" unicode="&#x157;" horiz-adv-x="417" 
d="M411 343c-10.667 2.66699 -19.666 4.50098 -26.999 5.50098s-16.333 1.5 -27 1.5c-42 0 -75.667 -12.333 -101 -37s-38 -66.334 -38 -125.001v-188h-153v482h153v-78c11.333 22.667 30.166 42.667 56.499 60s56.5 26 90.5 26c18 0 33.333 -2.66699 46 -8v-139z
M61.001 -92.999c0 21.333 7.33691 39.5029 22.0039 54.5029s32.334 22.5 53.001 22.5c25.333 0 46.166 -9 62.499 -27s24.5 -41.667 24.5 -71s-3.66699 -53.833 -11 -73.5s-17.833 -35.834 -31.5 -48.501s-30.334 -21.834 -50.001 -27.501s-41.834 -8.5 -66.501 -8.5v48
c16.667 0 30.667 1.66699 42 5s20.666 8 27.999 14c13.333 11.333 20.666 25.666 21.999 42.999c-1.33301 -1.33301 -3.83301 -2.83301 -7.5 -4.5s-7.83398 -2.5 -12.501 -2.5c-23.333 0 -41.666 7.5 -54.999 22.5s-20 32.833 -20 53.5z" />
    <glyph glyph-name="Rcaron" unicode="&#x158;" horiz-adv-x="654" 
d="M109 907l76 83l120 -108l120 108l76 -83l-197 -165zM340 326c16.667 0 32 3.33301 46 10s25.833 15.5 35.5 26.5s17.167 23.833 22.5 38.5s8 30 8 46s-2.66699 31.333 -8 46s-12.833 27.5 -22.5 38.5s-21.5 19.833 -35.5 26.5s-29.333 10 -46 10h-111v-242h111zM67 700
l294.001 -0.000976562c38.667 0 73.667 -6.83301 105 -20.5s58.166 -32 80.499 -55s39.5 -49.833 51.5 -80.5s18 -63 18 -97c0 -49.333 -12.167 -94.166 -36.5 -134.499s-58.5 -70.833 -102.5 -91.5l140 -221h-188l-124 194h-76v-194h-162v700z" />
    <glyph glyph-name="rcaron" unicode="&#x159;" horiz-adv-x="417" 
d="M37 691l77 82l119 -108l120 109l76 -83l-197 -165zM411 343c-10.667 2.66699 -19.666 4.50098 -26.999 5.50098s-16.333 1.5 -27 1.5c-42 0 -75.667 -12.333 -101 -37s-38 -66.334 -38 -125.001v-188h-153v482h153v-78c11.333 22.667 30.166 42.667 56.499 60
s56.5 26 90.5 26c18 0 33.333 -2.66699 46 -8v-139z" />
    <glyph glyph-name="Sacute" unicode="&#x15a;" horiz-adv-x="606" 
d="M189 740l-49 106l276 128l49 -106zM200 232c0 -38 10.333 -67.666 31 -88.999s47.667 -32 81 -32c26 0 47.833 7.5 65.5 22.5s26.5 34.833 26.5 59.5c0 14 -2.83301 25.833 -8.5 35.5s-13.334 18.167 -23.001 25.5s-21.167 13.833 -34.5 19.5l-43 17.5
c-32 12 -62.5 24 -91.5 36s-54.167 26.5 -75.5 43.5s-38.333 37.5 -51 61.5s-19 53.667 -19 89c0 32 6.83301 60.333 20.5 85s31.834 45.334 54.501 62.001s48.834 29.167 78.501 37.5s60.5 12.5 92.5 12.5c41.333 0 77.666 -6 108.999 -18s57.333 -28.333 78 -49
s36.167 -44.334 46.5 -71.001s15.5 -55 15.5 -85h-162c0 31.333 -7.5 56 -22.5 74s-36.5 27 -64.5 27c-23.333 0 -43.333 -6 -60 -18s-25 -30 -25 -54c0 -23.333 9.16699 -41.833 27.5 -55.5s42.5 -25.834 72.5 -36.501c28.667 -10 57.667 -20.833 87 -32.5
s55.666 -26 78.999 -43s42.5 -37.667 57.5 -62s22.5 -53.833 22.5 -88.5c0 -36 -6.5 -68 -19.5 -96s-31.167 -51.5 -54.5 -70.5s-51 -33.333 -83 -43s-67.333 -14.5 -106 -14.5c-37.333 0 -72.166 5.5 -104.499 16.5s-60.333 27.167 -84 48.5s-42.167 47.5 -55.5 78.5
s-20 66.5 -20 106.5h162z" />
    <glyph glyph-name="sacute" unicode="&#x15b;" horiz-adv-x="510" 
d="M141 509l-48 106l276 128l48 -106zM318 284c21.333 -6 41.333 -12.4971 60 -19.4971s35 -15.667 49 -26s25.167 -23.166 33.5 -38.499s12.5 -34.666 12.5 -57.999c0 -28.667 -5.66699 -52.834 -17 -72.501s-27 -35.667 -47 -48s-43.167 -21.166 -69.5 -26.499
s-54.5 -8 -84.5 -8c-68.667 0 -122.834 15 -162.501 45s-59.5 73.333 -59.5 130l150 -1c0 -25.333 7.16699 -43.5 21.5 -54.5s32.833 -16.5 55.5 -16.5c18.667 0 33.834 3.5 45.501 10.5s17.5 18.5 17.5 34.5c0 9.33301 -2.5 16.833 -7.5 22.5s-12.667 11 -23 16
s-23.666 10 -39.999 15l-58.5 18.5c-20 6 -39 12.5 -57 19.5s-33.833 15.5 -47.5 25.5s-24.5 22.667 -32.5 38s-12 34.666 -12 57.999c0 50 19.167 87 57.5 111s90.166 36 155.499 36c34.667 0 65.167 -4.16699 91.5 -12.5s48 -19.833 65 -34.5s29.833 -32 38.5 -52
s13 -41.333 13 -64h-151c0 20 -5.16699 35.5 -15.5 46.5s-26.166 16.5 -47.499 16.5c-15.333 0 -28.666 -3.5 -39.999 -10.5s-17 -17.833 -17 -32.5c0 -8.66699 2.66699 -15.834 8 -21.501s13.166 -10.834 23.499 -15.501s23.166 -9.33398 38.499 -14.001
s33 -10.334 53 -17.001z" />
    <glyph glyph-name="Scircumflex" unicode="&#x15c;" horiz-adv-x="606" 
d="M305 993l197 -164l-76 -84l-120 107l-119 -106l-77 83zM200 232c0 -38 10.333 -67.666 31 -88.999s47.667 -32 81 -32c26 0 47.833 7.5 65.5 22.5s26.5 34.833 26.5 59.5c0 14 -2.83301 25.833 -8.5 35.5s-13.334 18.167 -23.001 25.5s-21.167 13.833 -34.5 19.5
l-43 17.5c-32 12 -62.5 24 -91.5 36s-54.167 26.5 -75.5 43.5s-38.333 37.5 -51 61.5s-19 53.667 -19 89c0 32 6.83301 60.333 20.5 85s31.834 45.334 54.501 62.001s48.834 29.167 78.501 37.5s60.5 12.5 92.5 12.5c41.333 0 77.666 -6 108.999 -18s57.333 -28.333 78 -49
s36.167 -44.334 46.5 -71.001s15.5 -55 15.5 -85h-162c0 31.333 -7.5 56 -22.5 74s-36.5 27 -64.5 27c-23.333 0 -43.333 -6 -60 -18s-25 -30 -25 -54c0 -23.333 9.16699 -41.833 27.5 -55.5s42.5 -25.834 72.5 -36.501c28.667 -10 57.667 -20.833 87 -32.5
s55.666 -26 78.999 -43s42.5 -37.667 57.5 -62s22.5 -53.833 22.5 -88.5c0 -36 -6.5 -68 -19.5 -96s-31.167 -51.5 -54.5 -70.5s-51 -33.333 -83 -43s-67.333 -14.5 -106 -14.5c-37.333 0 -72.166 5.5 -104.499 16.5s-60.333 27.167 -84 48.5s-42.167 47.5 -55.5 78.5
s-20 66.5 -20 106.5h162z" />
    <glyph glyph-name="scircumflex" unicode="&#x15d;" horiz-adv-x="510" 
d="M256 781l197 -164l-76 -84l-120 107l-120 -106l-76 83zM318 284c21.333 -6 41.333 -12.4971 60 -19.4971s35 -15.667 49 -26s25.167 -23.166 33.5 -38.499s12.5 -34.666 12.5 -57.999c0 -28.667 -5.66699 -52.834 -17 -72.501s-27 -35.667 -47 -48
s-43.167 -21.166 -69.5 -26.499s-54.5 -8 -84.5 -8c-68.667 0 -122.834 15 -162.501 45s-59.5 73.333 -59.5 130l150 -1c0 -25.333 7.16699 -43.5 21.5 -54.5s32.833 -16.5 55.5 -16.5c18.667 0 33.834 3.5 45.501 10.5s17.5 18.5 17.5 34.5
c0 9.33301 -2.5 16.833 -7.5 22.5s-12.667 11 -23 16s-23.666 10 -39.999 15l-58.5 18.5c-20 6 -39 12.5 -57 19.5s-33.833 15.5 -47.5 25.5s-24.5 22.667 -32.5 38s-12 34.666 -12 57.999c0 50 19.167 87 57.5 111s90.166 36 155.499 36
c34.667 0 65.167 -4.16699 91.5 -12.5s48 -19.833 65 -34.5s29.833 -32 38.5 -52s13 -41.333 13 -64h-151c0 20 -5.16699 35.5 -15.5 46.5s-26.166 16.5 -47.499 16.5c-15.333 0 -28.666 -3.5 -39.999 -10.5s-17 -17.833 -17 -32.5c0 -8.66699 2.66699 -15.834 8 -21.501
s13.166 -10.834 23.499 -15.501s23.166 -9.33398 38.499 -14.001s33 -10.334 53 -17.001z" />
    <glyph glyph-name="Scedilla" unicode="&#x15e;" horiz-adv-x="606" 
d="M263 -16c-32.667 4 -62.8291 12.168 -90.4961 24.501s-51.5 29 -71.5 50s-35.5 46 -46.5 75s-16.5 61.833 -16.5 98.5h162c0 -38 10.333 -67.667 31 -89s47.667 -32 81 -32c26 0 47.833 7.5 65.5 22.5s26.5 34.833 26.5 59.5c0 14 -2.83301 25.833 -8.5 35.5
s-13.334 18.167 -23.001 25.5s-21.167 13.833 -34.5 19.5l-43 17.5c-32 12 -62.5 24 -91.5 36s-54.167 26.5 -75.5 43.5s-38.333 37.5 -51 61.5s-19 53.667 -19 89c0 32 6.83301 60.333 20.5 85s31.834 45.334 54.501 62.001s48.834 29.167 78.501 37.5s60.5 12.5 92.5 12.5
c41.333 0 77.666 -6 108.999 -18s57.333 -28.333 78 -49s36.167 -44.334 46.5 -71.001s15.5 -55 15.5 -85h-162c0 31.333 -7.5 56 -22.5 74s-36.5 27 -64.5 27c-23.333 0 -43.333 -6 -60 -18s-25 -30 -25 -54c0 -23.333 9.16699 -41.833 27.5 -55.5
s42.5 -25.834 72.5 -36.501c28.667 -10 57.667 -20.833 87 -32.5s55.666 -26 78.999 -43s42.5 -37.667 57.5 -62s22.5 -53.833 22.5 -88.5c0 -33.333 -5.33301 -63 -16 -89s-25.834 -48.333 -45.501 -67s-43.334 -33.5 -71.001 -44.5s-58.167 -18.167 -91.5 -21.5v-43
c4 4 9.33301 7.5 16 10.5s15.334 4.5 26.001 4.5s21.167 -2.16699 31.5 -6.5s19.166 -10.5 26.499 -18.5s13.333 -17.5 18 -28.5s7 -22.833 7 -35.5s-2.33301 -25 -7 -37s-11.5 -22.833 -20.5 -32.5s-20.333 -17.334 -34 -23.001s-29.5 -8.5 -47.5 -8.5
c-9.33301 0 -19.833 1.33301 -31.5 4s-22.834 7.5 -33.501 14.5s-20 16.5 -28 28.5s-13 27.333 -15 46h74c2 -9.33301 5.83301 -16.666 11.5 -21.999s13.167 -8 22.5 -8c10 0 18.333 3.5 25 10.5s10 16.167 10 27.5c0 10 -3.33301 18.167 -10 24.5s-14.667 9.5 -24 9.5
c-14 0 -24 -5.66699 -30 -17h-65v100z" />
    <glyph glyph-name="scedilla" unicode="&#x15f;" horiz-adv-x="510" 
d="M205 -9c-54.667 7.33301 -97 25.501 -127 54.501s-45 67.833 -45 116.5l150 -1c0 -25.333 7.16699 -43.5 21.5 -54.5s32.833 -16.5 55.5 -16.5c18.667 0 33.834 3.5 45.501 10.5s17.5 18.5 17.5 34.5c0 9.33301 -2.5 16.833 -7.5 22.5s-12.667 11 -23 16
s-23.666 10 -39.999 15l-58.5 18.5c-20 6 -39 12.5 -57 19.5s-33.833 15.5 -47.5 25.5s-24.5 22.667 -32.5 38s-12 34.666 -12 57.999c0 50 19.167 87 57.5 111s90.166 36 155.499 36c34.667 0 65.167 -4.16699 91.5 -12.5s48 -19.833 65 -34.5s29.833 -32 38.5 -52
s13 -41.333 13 -64h-151c0 20 -5.16699 35.5 -15.5 46.5s-26.166 16.5 -47.499 16.5c-15.333 0 -28.666 -3.5 -39.999 -10.5s-17 -17.833 -17 -32.5c0 -8.66699 2.66699 -15.834 8 -21.501s13.166 -10.834 23.499 -15.501s23.166 -9.33398 38.499 -14.001
s33 -10.334 53 -17.001c21.333 -6 41.333 -12.5 60 -19.5s35 -15.667 49 -26s25.167 -23.166 33.5 -38.499s12.5 -34.666 12.5 -57.999c0 -26 -4.83301 -48.333 -14.5 -67s-23 -34.167 -40 -46.5s-37.167 -21.666 -60.5 -27.999s-48.333 -10.166 -75 -11.499v-46
c4 4 9.33301 7.5 16 10.5s15.334 4.5 26.001 4.5s21.167 -2.16699 31.5 -6.5s19.166 -10.5 26.499 -18.5s13.333 -17.5 18 -28.5s7 -22.833 7 -35.5s-2.33301 -25 -7 -37s-11.5 -22.833 -20.5 -32.5s-20.333 -17.334 -34 -23.001s-29.5 -8.5 -47.5 -8.5
c-9.33301 0 -19.833 1.33301 -31.5 4s-22.834 7.5 -33.501 14.5s-20 16.5 -28 28.5s-13 27.333 -15 46h74c2 -9.33301 5.83301 -16.666 11.5 -21.999s13.167 -8 22.5 -8c10 0 18.333 3.5 25 10.5s10 16.167 10 27.5c0 10 -3.33301 18.167 -10 24.5s-14.667 9.5 -24 9.5
c-14 0 -24 -5.66699 -30 -17h-65v105z" />
    <glyph glyph-name="Scaron" unicode="&#x160;" horiz-adv-x="606" 
d="M113 907l77 83l119 -108l120 108l76 -83l-197 -165zM200 232c0 -38 10.335 -67.666 31.002 -88.999s47.667 -32 81 -32c26 0 47.833 7.5 65.5 22.5s26.5 34.833 26.5 59.5c0 14 -2.83301 25.833 -8.5 35.5s-13.334 18.167 -23.001 25.5s-21.167 13.833 -34.5 19.5
l-43 17.5c-32 12 -62.5 24 -91.5 36s-54.167 26.5 -75.5 43.5s-38.333 37.5 -51 61.5s-19 53.667 -19 89c0 32 6.83301 60.333 20.5 85s32 45.334 55 62.001s49.5 29.167 79.5 37.5s61 12.5 93 12.5c41.333 0 77.5 -6 108.5 -18s56.667 -28.333 77 -49
s35.666 -44.334 45.999 -71.001s15.5 -55 15.5 -85h-162c0 31.333 -7.5 56 -22.5 74s-36.5 27 -64.5 27c-23.333 0 -43.333 -6 -60 -18s-25 -30 -25 -54c0 -23.333 9.16699 -41.833 27.5 -55.5s42.5 -25.834 72.5 -36.501c28.667 -10 57.667 -20.833 87 -32.5
s55.666 -26 78.999 -43s42.5 -37.667 57.5 -62s22.5 -53.833 22.5 -88.5c0 -36 -6.5 -68 -19.5 -96s-31.167 -51.5 -54.5 -70.5s-51 -33.333 -83 -43s-67.333 -14.5 -106 -14.5c-37.333 0 -72.166 5.5 -104.499 16.5s-60.333 27.167 -84 48.5s-42.167 47.5 -55.5 78.5
s-20 66.5 -20 106.5h162z" />
    <glyph glyph-name="scaron" unicode="&#x161;" horiz-adv-x="510" 
d="M61 691l76 82l120 -108l120 109l76 -83l-197 -165zM318 284c21.333 -6 41.333 -12.4971 60 -19.4971s35 -15.667 49 -26s25.167 -23.166 33.5 -38.499s12.5 -34.666 12.5 -57.999c0 -28.667 -5.66699 -52.834 -17 -72.501s-27 -35.667 -47 -48
s-43.167 -21.166 -69.5 -26.499s-54.5 -8 -84.5 -8c-68.667 0 -122.834 15 -162.501 45s-59.5 73 -59.5 129h150c0 -25.333 7.16699 -43.5 21.5 -54.5s32.833 -16.5 55.5 -16.5c18.667 0 33.834 3.5 45.501 10.5s17.5 18.5 17.5 34.5c0 9.33301 -2.5 16.833 -7.5 22.5
s-12.667 11 -23 16s-23.666 10 -39.999 15l-58.5 18.5c-20 6 -39 12.5 -57 19.5s-33.833 15.5 -47.5 25.5s-24.5 22.667 -32.5 38s-12 34.666 -12 57.999c0 50 19.167 87 57.5 111s90.166 36 155.499 36c34.667 0 65.167 -4.16699 91.5 -12.5s48 -19.833 65 -34.5
s29.833 -32 38.5 -52s13 -41.333 13 -64h-151c0 20 -5.16699 35.5 -15.5 46.5s-26.166 16.5 -47.499 16.5c-15.333 0 -28.666 -3.5 -39.999 -10.5s-17 -17.833 -17 -32.5c0 -8.66699 2.66699 -15.834 8 -21.501s13.166 -10.834 23.499 -15.501
s23.166 -9.33398 38.499 -14.001s33 -10.334 53 -17.001z" />
    <glyph glyph-name="Tcommaaccent" unicode="&#x162;" horiz-adv-x="509" 
d="M173 560h-158v140h479v-140h-159v-560h-162v560zM176 -93c0 21.333 7.33398 39.499 22.001 54.499s32.334 22.5 53.001 22.5c25.333 0 46.166 -9.16699 62.499 -27.5s24.5 -41.833 24.5 -70.5c0 -29.333 -3.66699 -54 -11 -74s-17.833 -36.167 -31.5 -48.5
s-30.334 -21.5 -50.001 -27.5s-41.834 -9 -66.501 -9v48c32 0 55 6.5 69 19.5s21.667 27.167 23 42.5c-0.666992 -1.33301 -3.16699 -2.66602 -7.5 -3.99902s-8.5 -2 -12.5 -2c-23.333 0 -41.666 7.33301 -54.999 22s-20 32.667 -20 54z" />
    <glyph glyph-name="tcommaaccent" unicode="&#x163;" horiz-adv-x="383" 
d="M17 482l76 0.00195312v143h152v-143h110v-114h-110v-172c0 -18 1.66699 -32.333 5 -43s8 -18.834 14 -24.501s13 -9.5 21 -11.5s16.667 -3 26 -3s19 0.166992 29 0.5s18.667 1.16602 26 2.49902v-117c-11.333 -2 -25.5 -3.83301 -42.5 -5.5s-36.833 -2.5 -59.5 -2.5
c-18 0 -37 1.33301 -57 4s-38.5 9.5 -55.5 20.5s-31 28 -42 51s-16.5 54.5 -16.5 94.5v206h-76v114zM143 -92.998c0 21.333 7.33691 39.499 22.0039 54.499s32.334 22.5 53.001 22.5c25.333 0 46.166 -9.16699 62.499 -27.5s24.5 -41.833 24.5 -70.5
c0 -29.333 -3.66699 -54 -11 -74s-17.833 -36.167 -31.5 -48.5s-30.334 -21.5 -50.001 -27.5s-41.834 -9 -66.501 -9v48c16.667 0 30.667 1.83301 42 5.5s20.666 8.5 27.999 14.5c7.33301 5.33301 12.666 11.833 15.999 19.5s5.33301 15.167 6 22.5
c-1.33301 -1.33301 -3.83301 -2.66602 -7.5 -3.99902s-7.83398 -2 -12.501 -2c-23.333 0 -41.666 7.33301 -54.999 22s-20 32.667 -20 54z" />
    <glyph glyph-name="Tcaron" unicode="&#x164;" horiz-adv-x="509" 
d="M59 907l76 83l120 -108l120 108l76 -83l-197 -165zM173 560h-158v140h479v-140h-159v-560h-162v560z" />
    <glyph glyph-name="tcaron" unicode="&#x165;" horiz-adv-x="635" 
d="M379 628c0 26.667 9.16699 49.502 27.5 68.502s40.833 28.5 67.5 28.5c32 0 57.833 -11.333 77.5 -34s29.5 -52.334 29.5 -89.001c0 -36 -4.33301 -66.667 -13 -92s-21.5 -45.666 -38.5 -60.999s-37.667 -26.666 -62 -33.999s-52.166 -11 -83.499 -11v60
c20.667 0 37.834 2.33301 51.501 7s25.167 10.667 34.5 18s16.166 15.666 20.499 24.999s7.16602 18.666 8.49902 27.999c-1.33301 -1.33301 -4.5 -2.83301 -9.5 -4.5s-10.167 -2.5 -15.5 -2.5c-29.333 0 -52.5 9.16699 -69.5 27.5s-25.5 40.166 -25.5 65.499zM17 482.002
l76 0.00195312v143h152v-143h110v-114h-110v-172c0 -18 1.66699 -32.333 5 -43s8 -18.834 14 -24.501s13 -9.5 21 -11.5s16.667 -3 26 -3s19 0.166992 29 0.5s18.667 1.16602 26 2.49902v-117c-11.333 -2 -25.5 -3.83301 -42.5 -5.5s-36.833 -2.5 -59.5 -2.5
c-18 0 -37 1.33301 -57 4s-38.5 9.5 -55.5 20.5s-31 28 -42 51s-16.5 54.5 -16.5 94.5v206h-76v114z" />
    <glyph glyph-name="Tbar" unicode="&#x166;" horiz-adv-x="509" 
d="M438 368h-103v-368h-162v368h-103v89h103v103h-158v140h479v-140h-159v-103h103v-89z" />
    <glyph glyph-name="tbar" unicode="&#x167;" horiz-adv-x="383" 
d="M366 0c-11.333 -2 -25.501 -3.83203 -42.501 -5.49902s-36.833 -2.5 -59.5 -2.5c-18 0 -37 1.33301 -57 4s-38.5 9.5 -55.5 20.5s-31 28 -42 51s-16.5 54.5 -16.5 94.5v47h-76v82h76v77h-76v114h76v143h152v-143h110v-114h-110v-77h91v-82h-89v-19
c0 -16.667 1.66699 -30 5 -40s7.83301 -17.667 13.5 -23s12.334 -8.83301 20.001 -10.5s16.167 -2.5 25.5 -2.5s19 0.166992 29 0.5s18.667 1.16602 26 2.49902v-117z" />
    </font>
</defs>
</svg>
